<?xml version="1.0" encoding="UTF-8"?><svg id="a" xmlns="http://www.w3.org/2000/svg" viewBox="0 0 468.6 920"><defs><style>.b{fill:#f5f6f6;}.c{fill:#424244;}</style></defs><path class="c" d="M156.69,258.44c-32.57,21-63.73,44.11-93.3,69.16-77.83,69-84.98,188.03-15.98,265.85,16.07,18.12,35.48,32.97,57.17,43.74,23.37,10.92,45.21,24.52,69.93,38.32-9.39,7.28-16.28,13.03-23.56,19.16-17.87,11.73-35.01,24.53-51.34,38.32-37.96,36.67-59.28,87.27-59.01,140.05,.82,14.46,6.96,28.11,17.24,38.32,11.88,11.3,23.95,0,35.63-8.62,9.87-6.37,21.4-9.7,33.14-9.58h229.9c14.91-1.61,29.53,4.9,38.32,17.05,8.14,8.09,19.83,11.48,31.04,9,9.88-6.14,16.43-16.43,17.82-27.97,.44-16.82-2.22-33.57-7.85-49.43-20.59-64.01-60.8-119.91-114.95-159.78,14.56-11.3,27.97-20.69,40.42-31.61,20.3-16.48,39.5-34.27,57.47-53.26,58.82-68.2,66.67-139.85,17.63-214.95-25.65-33.93-54.32-65.48-85.64-94.26-8.71-7.06-17.93-13.46-27.59-19.16,5.45-4.59,11.14-8.87,17.05-12.84,73.38-46.55,98.66-117.44,100.77-199.82,.43-13.66-2.32-27.24-8.05-39.66-4.82-8.98-13.65-15.11-23.76-16.48-7.85,0-16.67,9.96-22.8,17.43-3.13,6.41-4.96,13.38-5.36,20.5H111.29c-13.81,.93-26.95-6.05-33.91-18.01-6.82-7.36-17.02-10.56-26.82-8.43-8.81,4.98-13.41,17.63-19.16,27.78-1.72,3.45,0,9,1.34,13.6,11.3,83.15,34.87,159.01,117.82,200.2,3.07-.58,4.21,2.87,6.13,5.36Z"/><path class="b" d="M64.54,446.77H399.81c-3.45-23.37-8.05-41.19-34.68-41.19H74.12l-9.58,41.19Z"/><path class="b" d="M105.92,542.56H367.24c21.46,0,30.08-10.35,29.5-33.91H71.05c1.72,22.99,10.54,34.68,34.29,34.48l.57-.57Z"/><path class="b" d="M371.26,822.46c-11.69-8.62-19.16-20.31-28.74-20.5-68.78-1.53-137.56-.96-206.14-.96-17.24,0-24.33,9.2-23.95,25.48,44.64,11.3,220.13,9.77,258.25-3.45l.57-.58Z"/><path class="b" d="M192.9,117.44c31.99,1.53,63.99,0,95.79,0q69.93,0,89.28-12.84c-3.26-3.07-6.32-8.43-9.39-8.43-83.78-1.15-167.44-1.79-250.97-1.92-4.79,0-9.77,4.21-23.95,10.73,37.36,19.35,68.78,11.5,98.66,13.03l.57-.57Z"/><path class="b" d="M155.92,179.13c73.38,59.77,101.35,69.35,181.81,0H155.92Z"/><path class="b" d="M145.77,342.93h172.42c-58.82-56.52-85.64-55.37-172.61,.58l.19-.58Z"/><path class="b" d="M311.11,606.93h-116.67c63.99,43.87,67.82,43.87,116.1,.58l.57-.58Z"/><path class="b" d="M288.31,739.69c-43.87-35.06-48.28-35.06-87.55,0h87.55Z"/></svg>