<?xml version="1.0" encoding="UTF-8"?><svg id="a" xmlns="http://www.w3.org/2000/svg" viewBox="0 0 316.54 248.95"><defs><style>.cls-1{fill:#fff;}.cls-2{fill:#414143;}.cls-3{fill:#525256;}</style></defs><path class="cls-2" d="M288.45,166.44L51.01,214.59l-21.84-47.79L220.93,18.76l67.52,147.68Zm0,0"/><path class="cls-1" d="M51.87,216.47l-23.57-51.53c-2.8-6.16-10.09-8.86-16.22-6.04-6.16,2.8-8.88,10.06-6.06,16.22l23.55,51.53c2.82,6.16,10.09,8.86,16.24,6.04,6.16-2.8,8.86-10.07,6.06-16.22h0Zm63.91-14.67l4.76,26.47,63.46-11.41-5.14-28.21,15.49-3.14,6.48,35.92c.81,4.55-2.21,8.88-6.75,9.69l-78.05,14.04c-4.55,.81-8.91-2.16-9.72-6.73l-6.08-33.79,15.55-2.82Zm0,0"/><path class="cls-1" d="M178.82,188.32l.04,.32-31.55,6.45,31.51-6.77Zm0,0"/><path class="cls-2" d="M293.05,165.04c-.08-.21-.04-.44-.14-.65L225.4,16.71c-.1-.21-.29-.33-.41-.52l-6.08-13.33c-1.13-2.45-4.05-3.54-6.52-2.42-2.45,1.13-3.55,4.05-2.42,6.5l4.76,10.39L30.62,159.48c-4.86-6.2-13.29-8.38-20.6-5.05-8.61,3.93-12.41,14.13-8.47,22.74l23.57,51.53c3.89,8.5,14.04,12.45,22.72,8.46,7.11-3.24,11.24-10.89,9.68-18.87l39.97-8.11,5.19,28.88c1.15,6.44,7.31,10.87,14,9.7l78.05-14.04c6.5-1.17,10.89-7.34,9.73-13.96l-5.62-31.14,86.62-17.56,4.76,10.4c1.11,2.45,4.03,3.54,6.5,2.42,2.45-1.13,3.55-4.05,2.42-6.5l-6.08-13.32ZM43.78,228.25c-3.76,1.7-8.07,0-9.74-3.63l-23.55-51.53c-1.69-3.68-.06-8.05,3.62-9.74,3.76-1.71,8.08,.02,9.73,3.62l23.57,51.53c1.67,3.68,.07,8.04-3.63,9.74h0Zm132.36-34.02l3.57,19.66-56.19,10.1-3.32-18.41,55.94-11.35Zm21.07,27.83c.44,2.55-1.21,4.97-3.78,5.42l-78.03,14.04c-2.61,.44-5.02-1.27-5.46-3.76l-5.22-29.03,8.27-1.69,3.93,21.88c.34,1.98,2.22,3.34,4.28,2.98l63.46-11.41c2.01-.37,3.31-2.3,2.95-4.3l-4.26-23.42,8.29-1.69,5.58,30.97Zm-143.36-13.04l-18.6-40.69L218.92,26.51l62.34,136.38L53.84,209.01ZM310.89,66.91c-6.89-15.07-19.21-26.56-34.69-32.31-1.29-.48-2.69,.16-3.16,1.44-.48,1.27,.17,2.69,1.44,3.17,14.27,5.29,25.6,15.86,31.94,29.74,6.35,13.89,6.93,29.38,1.62,43.63-.48,1.27,.17,2.69,1.43,3.17,1.31,.48,2.69-.21,3.15-1.44,5.77-15.5,5.16-32.33-1.72-47.39h0Zm0,0"/><path class="cls-3" d="M270.67,49.39c-1.27-.46-2.69,.17-3.14,1.44-.48,1.29,.17,2.69,1.43,3.17,10.32,3.83,18.53,11.48,23.11,21.51,4.58,10.05,5,21.25,1.15,31.57-.48,1.27,.17,2.69,1.44,3.15,1.32,.48,2.7-.19,3.16-1.44,4.3-11.55,3.84-24.09-1.28-35.31-5.14-11.24-14.32-19.79-25.87-24.08h0Zm0,0"/><path class="cls-3" d="M263.46,68.77c13.16,4.91,19.89,19.62,14.98,32.77-.48,1.29,.17,2.69,1.44,3.17,1.31,.48,2.69-.2,3.17-1.44,5.85-15.71-2.17-33.25-17.87-39.1-1.27-.46-2.69,.17-3.16,1.44-.46,1.28,.17,2.69,1.45,3.16h0Zm0,0"/><path class="cls-1" d="M105.85,183.22c-1.86,0-3.64-1.06-4.47-2.86l-12.44-27.25c-1.13-2.47-.04-5.37,2.42-6.5,2.47-1.13,5.39-.04,6.5,2.42l12.46,27.25c1.13,2.45,.04,5.37-2.42,6.5-.67,.3-1.36,.44-2.05,.44h0Zm0,0"/><path class="cls-1" d="M135.88,172.48c-1.86,0-3.64-1.06-4.47-2.86l-14.71-32.19c-1.13-2.45-.06-5.37,2.42-6.5,2.47-1.13,5.39-.03,6.5,2.42l14.73,32.19c1.11,2.45,.04,5.37-2.43,6.5-.65,.31-1.34,.44-2.03,.44h0Zm0,0"/><path class="cls-1" d="M166.41,162.85c-1.86,0-3.64-1.07-4.47-2.88l-17.99-39.33c-1.11-2.45-.04-5.37,2.43-6.5,2.45-1.13,5.37-.03,6.5,2.44l17.97,39.31c1.13,2.47,.06,5.39-2.42,6.5-.65,.3-1.36,.46-2.03,.46h0Zm0,0"/><path class="cls-1" d="M197.86,155.24c-1.86,0-3.64-1.08-4.47-2.88l-23.09-50.51c-1.13-2.47-.04-5.39,2.42-6.52,2.47-1.13,5.39-.03,6.5,2.44l23.11,50.51c1.11,2.47,.04,5.39-2.43,6.5-.65,.3-1.34,.46-2.03,.46h0Zm0,0"/><path class="cls-1" d="M231.34,152.08c-1.86,0-3.64-1.08-4.47-2.88l-32.27-70.61c-1.13-2.47-.04-5.39,2.42-6.52,2.47-1.13,5.39-.04,6.52,2.43l32.28,70.63c1.13,2.45,.03,5.37-2.42,6.5-.67,.31-1.36,.44-2.05,.44h0Zm0,0"/></svg>