<?xml version="1.0" encoding="UTF-8"?><svg id="a" xmlns="http://www.w3.org/2000/svg" viewBox="0 0 920 538.13"><defs><style>.b{fill:#f5f6f6;}.c{fill:#424244;}</style></defs><path class="c" d="M6.69,538.13H916c8.54-60.26,3.37-121.67-15.11-179.65-28.78,6.48-73.4,53.01-91.39,2.88-11.03-30.94,45.09-42.22,76.28-62.36-17.75-34.06-35.02-67.64-54.93-105.54-14.58,18.53-30.62,35.85-47.97,51.81-8.16,6.72-25.67,14.87-35.02,7.44-9.35-7.44-4.8-26.62,0-35.5,14.75-22.63,30.77-44.42,47.97-65.24-23.01-26.67-48.83-50.8-77-71.96-17.51,25.9-31.9,47.97-47.97,69.56-8.87,12.47-18.95,27.58-36.94,16.31-17.99-11.27-11.99-25.9-3.36-40.3l40.78-67.16C619.57,22.69,558.19,3.46,495.28,3.25c1.32,25.89,1.32,51.83,0,77.71-1.44,11.03-7.68,29.26-15.83,30.94-18.95,3.36-28.54-13.91-28.78-30.7V1.09c-46.87-4.4-94.03,4.59-136,25.9,10.01,20.57,18.58,41.81,25.67,63.56,3.38,11.48,.05,23.9-8.63,32.14-11.8,.4-23.22-4.22-31.42-12.71-12.88-20.92-24.26-42.72-34.06-65.24-33.15,20.58-65.18,42.92-95.94,66.92,16.31,21.59,27.82,36.7,39.1,52.05,11.27,15.35,17.51,29.5,0,39.1-12.3,2.43-25.04-.93-34.54-9.11-15.15-14.36-29.11-29.92-41.74-46.53-25.43,36.7-47.97,68.84-71.96,103.86,19.69,11.77,38.53,24.92,56.37,39.34,9.76,6.61,12.32,19.88,5.71,29.65-6.25,9.24-18.57,12.1-28.25,6.57-19.89-7.83-39.21-17.04-57.81-27.58C2.22,373.55-8.43,457.2,6.69,538.13Z"/><path class="b" d="M149.41,421.56c205.56,9.11,412.08,4.08,626.75,3.36,.82-37.37-10.36-74.02-31.9-104.58-21.38-30.32-48.42-56.22-79.63-76.28-70.04-47.67-153.83-70.94-238.42-66.2-63.68,5.59-124.09,30.72-172.94,71.96-27.26,20.25-49.77,46.19-65.96,76.04-15.36,29.93-28.28,61.05-38.62,93.07,0,3.84,.24,4.8,.72,4.8v-2.16Z"/></svg>