<?xml version="1.0" encoding="utf-8"?>
<!-- Generator: Adobe Illustrator 26.3.1, SVG Export Plug-In . SVG Version: 6.00 Build 0)  -->
<svg version="1.1" id="Ebene_1" xmlns="http://www.w3.org/2000/svg" xmlns:xlink="http://www.w3.org/1999/xlink" x="0px" y="0px"
	 viewBox="0 0 151.3 62.8" style="enable-background:new 0 0 151.3 62.8;" xml:space="preserve">
<style type="text/css">
	.st0{fill:#69C5AC;}
	.st1{fill:#414143;}
	.st2{fill:#FFFFFF;}
	.st3{fill:#F58F8B;}
	.st4{fill:#FFD87A;}
	.st5{fill:#E06C96;}
	.st6{clip-path:url(#SVGID_00000088815608448375344270000016468303066206707347_);}
	.st7{clip-path:url(#SVGID_00000021818841746684444810000009252730666653178813_);fill:#6AC5AC;}
	.st8{clip-path:url(#SVGID_00000021818841746684444810000009252730666653178813_);fill:#414143;}
	.st9{fill:#59BDD9;}
	.st10{fill:#414144;}
	.st11{fill:#8F8F91;}
</style>
<g>
	<path class="st0" d="M5.6,25.9c1.5,0,3,0,4.5,0c0.5,0,0.6,0.1,0.6,0.6c0,2,0,4,0,6c0,0.1,0,0.2,0,0.3c-0.1,0.7,0.6,1,1.1,1
		c0.5-0.1,0.9-0.3,1.2-0.6c0.1-0.2,0.2-0.3,0.2-0.5c0.2-1.4,0.1-2.8-0.3-4.1c-0.2-0.7-0.6-1.2-1.1-1.7c-0.6-0.6-1.3-1.1-2-1.6
		c-0.9-0.6-1.9-1.2-2.8-1.8c-1.6-1.1-3.2-2.3-4.5-3.7c-0.3-0.3-0.6-0.6-0.9-1c-0.7-0.9-1-1.9-1.3-2.9c-0.7-2.8-0.7-5.7-0.1-8.5
		c0.4-2.1,1.7-3.9,3.5-5.1c1.5-1,3.3-1.7,5.1-2.1C10.3,0,11.6,0,12.9,0c2.3,0.2,4.6,0.7,6.6,1.9c0.7,0.4,1.3,1,1.9,1.7
		c0.5,0.7,0.9,1.5,0.9,2.3c0.1,1.5,0.3,3.1,0.4,4.6c0.1,0.7,0.1,1.5,0.2,2.2c0,0.3,0,0.5-0.1,0.8c0,0.2-0.2,0.3-0.4,0.3
		c-0.1,0-0.3,0-0.4,0l-8.2,0c-0.2,0-0.3,0-0.5-0.1c-0.1,0-0.2-0.1-0.3-0.3c-0.1-0.3-0.2-0.6-0.2-0.9c0-0.7,0-1.3,0-2
		c0-0.6-0.1-1.3-0.2-1.9c-0.3-0.9-1.3-1-1.9-0.5c-0.1,0.1-0.2,0.3-0.3,0.5c-0.1,0.3-0.1,0.7-0.1,1c0,1.9,0.7,3.4,2.3,4.5
		c1.2,0.8,2.5,1.6,3.7,2.4c1.5,1,3,2.1,4.4,3.3c1.5,1.3,2.3,3,2.6,4.9c0.5,2.8,0.5,5.7,0.2,8.6c-0.1,0.4-0.2,0.9-0.3,1.3
		c-0.6,2.4-2.2,4-4.3,5.1c-1.5,0.8-3.1,1.3-4.8,1.5c-2.7,0.4-5.4,0-7.9-1.1c-1.7-0.7-3.2-1.8-4.4-3.3c-0.9-1.2-1.3-2.6-1.3-4.1
		c0-1.2,0-2.4-0.1-3.5c0-0.7,0-1.5,0-2.2c0-0.2,0-0.4,0-0.6c0-0.3,0.1-0.5,0.4-0.6c0.1,0,0.2,0,0.4,0L5.6,25.9L5.6,25.9z"/>
	<path class="st1" d="M6.4,11.5c0-0.5,0-1,0-1.5c0-0.4,0-0.8,0.4-1C7,8.7,7.1,8.4,7,8.2C6.9,7.9,6.6,7.9,6.3,7.9l-3,0
		c-0.1,0-0.2,0-0.3,0C2.7,8,2.5,8.3,2.6,8.6c0,0,0,0.1,0,0.1c0.1,0.2,0.2,0.3,0.3,0.5C3,9.4,3,9.5,3.1,9.7c0,0.6,0,1.2,0,1.8
		c0,0.1-0.1,0.3-0.2,0.3c-0.1,0.1-0.3,0.2-0.4,0.3c-1.8,1.5-1.4,4-0.1,5.2c1.6,1.3,4.1,1.1,5.4-0.5c1.2-1.4,1-3.5-0.4-4.7
		C7.3,12,7.3,12,7.2,11.9C7,11.8,6.7,11.7,6.4,11.5z"/>
	<path class="st1" d="M17.7,13.1L17.7,13.1c1.1,0,2.2,0,3.3,0c0.2,0,0.4,0,0.5-0.2c0.3-0.5,0.4-1.1,0.1-1.6c-0.5-0.9-1-1.7-1.5-2.6
		c-0.3-0.5-0.6-0.9-0.8-1.5c-0.1-0.5,0-1.1,0-1.7c0-0.6,0-1.2,0.4-1.7C20,3.5,19.8,3.1,19.4,3c-0.1,0-0.2,0-0.3,0c-1,0-2,0-3,0
		c-0.1,0-0.2,0-0.3,0c-0.3,0.1-0.4,0.3-0.3,0.6c0.1,0.2,0.2,0.4,0.3,0.6C15.9,4.4,16,4.6,16,4.9c0,0.8,0,1.6,0,2.3
		c0,0.2,0,0.3-0.1,0.4c-0.7,1.1-1.4,2.2-2.1,3.3c-0.1,0.2-0.2,0.4-0.2,0.6c0,0.3,0,0.6,0,0.9c0.1,0.5,0.3,0.7,0.8,0.7L17.7,13.1z"/>
	<path class="st1" d="M5.1,29.6c-0.3,0.2-0.6,0.4-0.9,0.7C3.3,31,3.2,32.2,3.9,33c0.2,0.2,0.4,0.3,0.6,0.4c0.2,0.1,0.5,0.2,0.7,0.4
		C5.1,33.9,5.1,33.9,5,34c-0.2,0.1-0.4,0.2-0.5,0.4c-0.4,0.4-0.6,0.9-0.6,1.4c0,0.1,0.1,0.3,0.2,0.4c0.1,0.1,0.2,0,0.4-0.1
		C4.5,36.1,4.6,36,4.8,36c0.8,0,1.6,0,2.3,0c0.2,0,0.3,0,0.4,0.2c0.1,0.1,0.2,0.1,0.3,0.1C7.9,36.2,8,36.1,8,36c0-0.2,0-0.3-0.1-0.5
		c-0.2-0.6-0.6-1.2-1.2-1.6c0.1-0.1,0.3-0.2,0.4-0.3c0.2-0.2,0.4-0.3,0.6-0.5c0.6-0.7,0.7-1.4,0.2-2.2c-0.3-0.3-0.6-0.7-0.9-1
		c-0.1-0.1-0.2-0.1-0.3-0.2c0.1,0,0.1-0.1,0.2-0.1c0.7-0.5,1-1.2,1-2c0-0.1,0-0.3-0.1-0.4C7.8,27,7.7,27,7.6,27
		c-0.1,0-0.2,0.1-0.2,0.2c0,0.1-0.1,0.1-0.1,0.2c-0.9,0-1.8,0-2.7,0c-0.1,0-0.3-0.1-0.3-0.2c-0.1-0.1-0.2-0.1-0.3-0.1
		c-0.1,0.1-0.1,0.2-0.2,0.3c0,0,0,0.1,0,0.1C3.9,28.3,4.2,29.1,5.1,29.6C5,29.5,5,29.6,5.1,29.6z"/>
	<path class="st1" d="M14,18.6c0.4-1,0.3-1.8-0.4-2.3c-0.7-0.5-1.8-0.4-2.3,0.4c-0.4,0.5-0.4,1.1-0.2,1.7c0.2,0.3,0.4,0.6,0.8,0.8
		c0.5,0.3,1,0.2,1.5,0c0.1,0.3,0.3,0.5,0.4,0.7c0.1,0.1,0.1,0.3,0,0.4c-0.1,0.3-0.2,0.5-0.2,0.8c0,0.1,0,0.2-0.1,0.3
		c-0.3,0.3-0.6,0.6-0.8,0.9c-1-0.3-1.6-0.2-2,0.4c-0.4,0.6-0.3,1.5,0.4,2c0.4,0.3,0.9,0.3,1.4,0.1c0.3-0.1,0.5-0.3,0.7-0.6
		c0.2-0.4,0.2-0.9,0-1.4l0.9-0.9c0.6,0.5,1.2,0.5,1.9,0l0.8,0.5c0.2,1.1,0.7,1.7,1.5,1.8c0.9,0.1,1.7-0.5,1.8-1.4
		c0.1-0.6-0.2-1.2-0.7-1.5c-0.3-0.2-0.6-0.3-1-0.3c-0.6,0-1.1,0.3-1.4,0.8l-0.7-0.4c0-1.3-0.4-1.6-1.8-1.7L14,18.6z"/>
	<path class="st1" d="M11.3,6.3c0.4,0.1,0.7-0.1,1-0.3c0.6-0.5,1.2-1,1.8-1.5c0.1-0.1,0.2-0.2,0.2-0.3c0-0.1,0-0.2,0-0.3
		c-0.1-0.1-0.2-0.1-0.3-0.1c-0.1,0-0.2,0.1-0.3,0.1c-0.3,0.1-0.6,0.2-0.9,0.3c-0.9,0.2-1.4-0.3-1.3-1.3c0-0.2,0.1-0.3,0.2-0.5
		c0.1-0.2,0.2-0.3,0.2-0.5c0-0.1,0.1-0.3,0-0.4c-0.1-0.1-0.3-0.1-0.5-0.1c-0.1,0-0.2,0.1-0.2,0.1c-0.7,0.5-1.3,1.1-2,1.6
		C9,3.3,8.9,3.6,9,3.9c0,0.1,0,0.2,0,0.3c0.1,0.2,0,0.5-0.2,0.6C8.2,5.3,7.7,6,7.4,6.8C7.3,7,7.1,7.4,7.4,7.7C7.6,8,8,7.9,8.4,7.8
		c0.8-0.2,1.5-0.6,2.1-1.1C10.7,6.4,11,6.2,11.3,6.3z"/>
	<path class="st1" d="M12.3,3.9c0.1-0.1,0.2-0.2,0.3-0.2c0.3-0.3,0.7-0.7,1-1.1c0.1-0.1,0.2-0.2,0.2-0.3c0-0.1,0-0.3,0-0.4
		c-0.1-0.2-0.3-0.1-0.4,0c0,0-0.1,0-0.1,0.1c-0.5,0.3-0.9,0.7-1.4,1c-0.2,0.2-0.2,0.4-0.1,0.6C11.9,3.8,12.1,3.9,12.3,3.9z"/>
	<path class="st2" d="M5,15.7c-0.1,0.6-0.6,1-1.2,1c-0.6,0-1.1-0.3-1.3-0.9c-0.2-0.6-0.1-1.3,0.8-1.7H2.1C2,14.2,2,14.3,2,14.4
		c-0.1,0.9,0.3,1.9,1.1,2.4c0.5,0.3,1,0.5,1.6,0.5c1.2,0.1,2.3-0.6,2.9-1.6c0.3-0.5,0.3-1.1,0.2-1.7H4.1C5,14.4,5.2,15.1,5,15.7z"/>
	<path class="st2" d="M7.4,13.2C7.2,13,7,12.8,6.8,12.7c-0.3-0.2-0.5-0.4-0.8-0.5c-0.3-0.1-0.4-0.4-0.4-0.6c0-0.5,0-1,0-1.5
		c0-0.4-0.1-0.8,0.3-1.2c-0.8-0.1-1.5-0.1-2.3,0c0.1,0.2,0.2,0.5,0.2,0.7c0,0.7,0,1.4,0,2.1c0,0.4-0.2,0.7-0.5,0.8
		c-0.3,0.2-0.6,0.5-0.9,0.8L7.4,13.2z"/>
	<path class="st1" d="M3.8,14.9c-0.3,0-0.5,0.2-0.5,0.4c0,0.3,0.2,0.5,0.4,0.5c0,0,0,0,0.1,0c0.3,0,0.5-0.2,0.5-0.4c0,0,0,0,0-0.1
		C4.3,15.1,4.1,14.9,3.8,14.9C3.8,14.9,3.8,14.9,3.8,14.9z"/>
	<path class="st2" d="M15.4,10.3c-0.1,0-0.3,0.1-0.3,0.2c-0.3,0.4-0.5,0.7-0.7,1.1c-0.2,0.3-0.1,0.7,0.2,0.9
		c0.1,0.1,0.2,0.1,0.3,0.1c1.8,0,3.7,0,5.5,0c0.5,0,0.7-0.3,0.5-0.7c-0.3-0.5-0.6-1-0.8-1.5C18.5,10.3,17,10.2,15.4,10.3z"/>
	<path class="st2" d="M17.5,6.8c0.2,0,0.4,0.2,0.4,0.4c0,0.2-0.2,0.4-0.4,0.4c-0.2,0-0.4,0-0.7,0l-1.1,1.8h3.8
		c-0.1-0.2-0.1-0.3-0.2-0.4c-0.2-0.4-0.4-0.8-0.7-1.2c-0.1-0.2-0.2-0.5-0.2-0.8c0-0.6,0-1.3,0-1.9c0-0.4-0.1-0.9,0.3-1.3h-2.2
		c0.1,0.4,0.3,0.6,0.7,0.5c0,0,0.1,0,0.1,0c0.2,0,0.4,0.2,0.4,0.4c0,0.2-0.2,0.4-0.4,0.4c-0.2,0-0.3,0-0.5,0
		c-0.1,0.2-0.1,0.3,0.1,0.3c0.1,0,0.3,0,0.4,0c0.2,0,0.4,0.2,0.4,0.4c0,0.2-0.2,0.4-0.4,0.4c-0.2,0-0.4,0-0.6,0v0.5
		C17.1,6.8,17.3,6.8,17.5,6.8L17.5,6.8z"/>
	<path class="st2" d="M4.1,31.5h3.4c0-0.2-0.1-0.4-0.4-0.4h-3L4.1,31.5z"/>
	<path class="st2" d="M4.5,32.5c0.9,0,1.8,0,2.7,0c0.2,0,0.3-0.1,0.3-0.3H4.2C4.2,32.4,4.3,32.5,4.5,32.5L4.5,32.5z"/>
	<path class="st2" d="M7.2,35.3c-0.1-0.1-0.2-0.2-0.3-0.2c-0.7,0-1.4,0-2.1,0c-0.2,0-0.2,0.1-0.2,0.3C5.1,35.5,6.8,35.4,7.2,35.3
		L7.2,35.3z"/>
	<path class="st2" d="M5.4,28.2c0.3,0,0.6,0,1,0c0.7,0,0.7,0,0.9-0.1c0,0-0.1-0.1-0.1-0.1c-0.9,0-1.7,0-2.5,0c0,0-0.1,0-0.2,0.1
		C4.8,28.2,5.1,28.1,5.4,28.2L5.4,28.2z"/>
	<path class="st2" d="M5.1,28.8c0.7,0.6,1,0.7,1.8,0H5.1z"/>
	<path class="st2" d="M4.9,30.4h1.8C6.1,29.9,5.8,29.9,4.9,30.4L4.9,30.4z"/>
	<path class="st2" d="M6.6,33.1H5.4C6.1,33.6,6.1,33.6,6.6,33.1L6.6,33.1z"/>
	<path class="st2" d="M6.4,34.5c-0.4-0.4-0.5-0.4-0.9,0H6.4z"/>
	<path class="st2" d="M12.6,16.8c-0.5,0-0.9,0.3-0.9,0.8c0,0.5,0.3,0.9,0.8,0.9c0,0,0.1,0,0.1,0c0.5,0,0.8-0.4,0.8-0.9
		C13.4,17.2,13.1,16.8,12.6,16.8z"/>
	<path class="st2" d="M18.5,21.7c-0.4,0-0.8,0.3-0.8,0.8c0,0,0,0,0,0c0,0.5,0.3,0.9,0.8,0.9c0,0,0,0,0,0c0.5,0,0.9-0.4,0.9-0.8
		c0,0,0,0,0,0C19.3,22.1,19,21.7,18.5,21.7C18.5,21.7,18.5,21.7,18.5,21.7L18.5,21.7z"/>
	<path class="st2" d="M11.3,23.5c0,0.3,0.3,0.6,0.6,0.6c0.3,0,0.6-0.3,0.6-0.6c0-0.3-0.3-0.6-0.6-0.6c0,0,0,0,0,0
		C11.6,22.8,11.3,23.1,11.3,23.5C11.3,23.4,11.3,23.4,11.3,23.5L11.3,23.5z"/>
	<path class="st2" d="M15,20.4c-0.3,0-0.5,0.3-0.6,0.6c0,0.3,0.2,0.5,0.5,0.6c0,0,0,0,0,0c0.3,0,0.6-0.2,0.6-0.5c0,0,0,0,0,0
		C15.6,20.6,15.3,20.4,15,20.4L15,20.4z"/>
	<g>
		<path class="st1" d="M16.9,32.4v1.4c0,0.5,0,1,0,1.4c0,0.2,0,0.4,0.1,0.5c0.3,0.9,1.2,1.3,2.2,1.1c0.9-0.2,1.6-0.9,1.6-1.8
			c0-1.8,0-3.7,0-5.5c0-0.3,0.1-0.6,0.2-0.8c0.1-0.2,0.3-0.4,0.4-0.7c0.1-0.1,0.1-0.4-0.1-0.5c-0.1,0-0.1-0.1-0.2-0.1
			c-0.1,0-0.2,0-0.4,0h-2.5c-0.5,0-1,0-1.4,0c-0.5,0-0.6,0.2-0.4,0.7c0.1,0.2,0.2,0.4,0.3,0.6c0.2,0.3,0.2,0.6,0.2,0.9
			C16.9,30.6,16.9,31.5,16.9,32.4z"/>
		<path class="st2" d="M20.1,31.9c0-0.6,0-1.2,0-1.8c0-0.4,0-0.8,0.1-1.2c0.1-0.2,0.2-0.5,0.3-0.7c-0.6,0-1.2-0.1-1.7,0
			c-0.5,0-1.2,0-1.7,0.1c0.1,0.3,0.3,0.6,0.3,0.9c0.1,0.3,0.1,0.6,0.1,0.9c0,0.6-0.1,1.3,0,1.9L20.1,31.9z"/>
		<path class="st2" d="M17.6,35.4c0,0.2,0.1,0.5,0.3,0.6c0.4,0.4,0.9,0.5,1.5,0.3c0.5-0.2,0.8-0.7,0.8-1.2c0-0.7,0-1.4,0-2.1
			c0-0.1,0-0.2,0-0.4h-2.6C17.5,33.5,17.5,34.4,17.6,35.4z"/>
	</g>
	<path class="st2" d="M10.3,6c0.2-0.2,0.3-0.3,0.6-0.3c0.1,0,0.2,0,0.3,0c0.3,0,0.6,0,0.8-0.3c0.2-0.2,0.5-0.4,0.7-0.7
		c-0.6,0-1.1-0.1-1.5-0.6s-0.3-1-0.2-1.7c-0.2,0.2-0.5,0.4-0.7,0.6C9.7,3.4,9.5,3.9,9.7,4.5c0.1,0.2,0,0.4-0.2,0.5
		C8.8,5.4,8.4,6.1,8,6.9C8,7,7.9,7.1,7.9,7.3C8.9,7.1,9.7,6.7,10.3,6z"/>
	<g>
		<path class="st3" d="M69.4,9.9v6.2h0.5l4.7,0c0.6,0,0.8,0.1,0.8,0.7c0,2.3,0,4.6,0,6.9c0,0.5-0.1,0.6-0.6,0.6
			c-1.6,0-3.2,0-4.8,0.1c-0.2,0-0.4,0-0.6,0v7.3h0.6c1.7,0,3.4,0,5.1,0c0.2,0,0.4,0,0.6,0.1c0.3,0.1,0.4,0.2,0.4,0.6
			c0,0.1,0,0.2,0,0.3c0,2.2,0,4.4,0,6.6c0,0.1,0,0.2,0,0.3c-0.1,0.7-0.2,0.8-0.9,0.8c-5.3,0-10.7,0-16,0c-0.3,0-0.5-0.1-0.8-0.2
			c-0.3-0.1-0.4-0.3-0.4-0.6c0-0.1,0-0.2,0-0.4c0-12.3,0-24.7,0.1-37c0-0.1,0-0.2,0-0.3c0-0.4,0.2-0.6,0.6-0.7c0.1,0,0.2,0,0.4,0
			c5.2,0,10.4,0,15.6,0c0.3,0,0.7,0.1,0.9,0.4c0.1,0.2,0.2,0.4,0.2,0.7c0,1.1,0,2.1,0,3.2c0,1.2,0,2.4,0,3.6c0,0.1,0,0.3,0,0.4
			c0,0.2-0.2,0.4-0.4,0.4c-0.3,0-0.6,0.1-0.8,0.1c-1.5,0-3,0-4.5,0L69.4,9.9z"/>
		<path class="st1" d="M66.8,14c0.1-0.2,0.2-0.3,0.3-0.5c0.5-0.9,0.5-0.7-0.2-1.5c-0.3-0.3-0.4-0.3-0.7-0.1
			c-0.2,0.1-0.4,0.2-0.6,0.3c-0.4,0.3-0.7,0.2-0.8-0.3c0-0.1-0.1-0.3-0.1-0.5C64.4,11,64.4,11,63.8,11c-0.9,0-0.9-0.1-1.1,0.8
			c-0.1,0.7-0.4,0.7-0.9,0.4c-0.8-0.5-0.8-0.6-1.6,0.3c-0.2,0.1-0.2,0.4-0.1,0.6c0.1,0.2,0.2,0.4,0.3,0.6c0.2,0.3,0.1,0.6-0.2,0.8
			c0,0-0.1,0.1-0.2,0.1c-0.2,0.1-0.5,0.1-0.7,0.2c-0.2,0.1-0.4,0.1-0.4,0.4c0,0.3-0.2,0.7,0.1,1c0.1,0.1,0.2,0.1,0.3,0.1
			c0.2,0.1,0.4,0.1,0.6,0.2c0.2,0,0.4,0.2,0.5,0.4c0.2,0.3,0.1,0.6-0.1,0.9c-0.1,0.1-0.1,0.2-0.2,0.3c-0.1,0.4,0.5,1.2,0.9,1.1
			c0.1,0,0.2-0.1,0.3-0.1c0.1-0.1,0.2-0.1,0.3-0.2c0.4-0.2,0.7-0.1,0.9,0.3c0.1,0.1,0.2,0.3,0.3,0.4c0.4,0.8,0.3,0.7,1.2,0.6
			c0.3,0,0.5-0.2,0.5-0.4c0.1-0.2,0.1-0.4,0.2-0.6c0-0.1,0.1-0.3,0.3-0.3c0.3-0.2,0.6-0.1,0.8,0.1c0.1,0.1,0.3,0.2,0.4,0.2
			c0.2,0.1,0.4,0.1,0.6,0c0.3-0.2,0.6-0.4,0.6-0.8c0-0.1,0-0.2-0.1-0.3c-0.1-0.2-0.2-0.4-0.3-0.6c-0.2-0.2-0.2-0.6,0-0.8
			c0.4-0.1,0.7-0.2,1-0.3c0.1,0,0.3-0.1,0.3-0.2c0-0.4,0-0.7-0.1-1.1c0-0.1-0.2-0.2-0.3-0.2c-0.2-0.1-0.5-0.2-0.7-0.2
			C67,14.5,66.8,14.2,66.8,14L66.8,14z"/>
		<path class="st1" d="M66.9,35.6c0.2,0,0.3-0.1,0.5-0.1c1-0.3,0.9-0.1,0.9-1.2c0-0.3-0.1-0.5-0.4-0.6c-0.2-0.1-0.5-0.1-0.7-0.2
			c-0.5-0.1-0.6-0.4-0.3-0.8c0.1-0.2,0.3-0.4,0.4-0.6c0.1-0.2,0.1-0.4-0.1-0.5c-0.2-0.2-0.4-0.4-0.5-0.6c-0.1-0.2-0.3-0.2-0.5-0.1
			c-0.2,0.1-0.4,0.2-0.6,0.4c-0.4,0.2-0.6,0.1-0.7-0.3c-0.1-0.2-0.1-0.5-0.2-0.7c0-0.2-0.2-0.3-0.4-0.4c-0.8-0.2-1.2,0-1.4,0.8
			c0,0.1,0,0.1,0,0.2c-0.1,0.3-0.4,0.5-0.7,0.5c-0.1,0-0.1,0-0.2-0.1c-0.2-0.1-0.4-0.3-0.7-0.4c-0.1,0-0.3-0.1-0.3-0.1
			c-0.3,0.1-0.5,0.3-0.7,0.5c-0.1,0.1-0.2,0.4,0,0.5c0.1,0.2,0.3,0.5,0.4,0.7c0,0.1,0.1,0.2,0.1,0.3c-0.2,0.4-0.3,0.8-0.8,0.8
			c0,0-0.1,0-0.1,0c-0.4,0.1-0.5,0.2-0.5,0.6c0,0.6-0.2,0.8,0.7,1c0.5,0.1,0.6,0.4,0.5,0.9c-0.1,0.3-0.2,0.6-0.2,0.9
			c0,0.1,0,0.3,0,0.4c0.5,0.7,0.8,0.7,1.5,0.3c0.1,0,0.1-0.1,0.2-0.1c0.1,0,0.3,0,0.4,0c0.3,0,0.6,0.3,0.6,0.6c0,0.1,0,0.2,0.1,0.3
			c0.1,0.2,0.1,0.5,0.4,0.5c0.3,0,0.7,0,1,0c0.1,0,0.1-0.2,0.2-0.3c0.1-0.2,0.2-0.5,0.2-0.7c0-0.3,0.3-0.6,0.6-0.6
			c0.3,0.2,0.6,0.4,0.9,0.5c0.1,0,0.3,0.1,0.4,0c0.3-0.2,0.5-0.5,0.7-0.7c0.1-0.1,0-0.3,0-0.4c-0.1-0.2-0.2-0.5-0.4-0.7
			C66.7,36.1,66.7,35.8,66.9,35.6L66.9,35.6z"/>
		<path class="st1" d="M67.1,6c0.1-0.1,0.3-0.2,0.4-0.3c0.8-0.6,0.8-0.5,0.4-1.5c-0.1-0.3-0.3-0.4-0.7-0.4c-0.2,0-0.5,0.1-0.7,0.1
			C66.1,4,65.9,3.8,66,3.4c0-0.3,0.1-0.5,0.1-0.8c0-0.2,0-0.3-0.2-0.4c-0.2-0.1-0.4-0.2-0.6-0.3c-0.4-0.1-0.7,0-0.9,0.4
			c-0.1,0.1-0.1,0.2-0.2,0.3c-0.2,0.3-0.5,0.3-0.7,0c-0.1-0.2-0.2-0.3-0.4-0.5C63,2.1,62.9,2,62.8,2c-0.3,0-0.6,0-0.9,0
			c-0.4,0.1-0.5,0.2-0.5,0.7c0,0.2,0,0.3,0.1,0.5c0.1,0.5-0.2,0.8-0.7,0.7c-0.2,0-0.5-0.1-0.7-0.1c-0.1,0-0.3,0-0.3,0.1
			c-0.2,0.3-0.4,0.5-0.5,0.8c-0.1,0.2,0,0.4,0.2,0.4c0.2,0.2,0.4,0.3,0.6,0.5c0.1,0.1,0.2,0.2,0.2,0.2c0,0.4,0.1,0.8-0.4,1
			c0,0-0.1,0.1-0.1,0.1c-0.3,0.3-0.4,0.4-0.2,0.8c0.3,0.7,0.3,0.7,1,0.6C61,8.4,61.3,8.6,61.3,9c0,0.3,0.1,0.6,0.1,0.9
			c0,0.1,0.1,0.3,0.2,0.4c0.7,0.4,1,0.3,1.5-0.2l0.1-0.1c0.3-0.4,0.8-0.4,1.1,0c0.1,0.1,0.2,0.3,0.3,0.4c0.1,0.2,0.3,0.3,0.5,0.2
			c0.3-0.1,0.7-0.2,0.9-0.5c0.1-0.1,0-0.2,0-0.3c0-0.2,0-0.5-0.1-0.7c-0.1-0.3,0-0.6,0.3-0.7c0.4,0,0.7,0.1,1.1,0.1
			c0.1,0,0.3,0,0.3-0.1c0.2-0.3,0.4-0.7,0.4-1.1c0-0.1-0.1-0.2-0.2-0.3c-0.2-0.2-0.4-0.3-0.6-0.5C67.1,6.5,67,6.3,67.1,6L67.1,6z"/>
		<path class="st1" d="M70.5,2.4l-3.4,0c-0.1,0-0.2,0-0.3,0c-0.1,0-0.2,0.2-0.2,0.3c0,0.1,0.1,0.2,0.2,0.2c0.1,0,0.2,0,0.3,0
			c2,0,4,0,6.1,0h0.6c0.1,0,0.2,0,0.3,0c0.1,0,0.2-0.2,0.2-0.3c0-0.1-0.1-0.2-0.2-0.2c-0.1,0-0.3-0.1-0.4-0.1L70.5,2.4z"/>
		<path class="st1" d="M71.5,38.4l2.7,0c0.1,0,0.2,0,0.4-0.1c0.1,0,0.2-0.2,0.2-0.3c0-0.1-0.1-0.2-0.2-0.2c-0.1,0-0.2-0.1-0.4,0
			L69,37.8c-0.2,0-0.4,0-0.6,0.1c-0.1,0.1-0.1,0.3,0,0.4c0,0,0,0,0,0c0.1,0.1,0.3,0.1,0.4,0.1L71.5,38.4z"/>
		<path class="st1" d="M71.2,5.3h1h1.3c0.1,0,0.2,0,0.4,0c0.1,0,0.2-0.2,0.2-0.3c0-0.1-0.1-0.2-0.2-0.2c-0.1,0-0.2-0.1-0.4,0l-4.6,0
			c-0.2,0-0.4,0-0.5,0.2c0,0.1,0,0.3,0.2,0.3c0.1,0.1,0.3,0.1,0.4,0.1L71.2,5.3z"/>
		<path class="st1" d="M71.7,34.1h2.6c0.1,0,0.2,0,0.3,0c0.1,0,0.2-0.1,0.2-0.2c0-0.1-0.1-0.2-0.2-0.3c-0.1,0-0.2-0.1-0.4-0.1
			l-5.1,0c-0.1,0-0.4,0-0.5,0.1c-0.1,0.1-0.1,0.3,0.1,0.4c0.1,0,0.2,0.1,0.3,0.1L71.7,34.1z"/>
		<path class="st1" d="M70.5,20.8c0.8,0,1.7,0,2.5,0c0.1,0,0.2,0,0.3,0c0.1,0,0.2-0.2,0.2-0.3c0-0.1-0.1-0.2-0.2-0.2
			c-0.1,0-0.2,0-0.3,0l-4.6,0c-0.2,0-0.4,0-0.6,0c-0.2,0-0.4,0.1-0.4,0.2c0,0.1,0.1,0.2,0.2,0.3c0.1,0,0.2,0.1,0.4,0.1
			C68.8,20.8,69.6,20.8,70.5,20.8L70.5,20.8z"/>
		<path class="st1" d="M71.3,7.2c-0.5,0-0.9,0-1.4,0c-0.2,0-0.5,0-0.7,0c-0.1,0-0.3,0-0.4,0.1c-0.1,0.1-0.1,0.2-0.1,0.3c0,0,0,0,0,0
			c0.1,0.1,0.2,0.1,0.3,0.1c0.2,0,0.5,0,0.7,0.1c1.1,0,2.3,0,3.5,0c0.2,0,0.3,0,0.5-0.1c0,0,0.1,0,0.1,0c0.1-0.1,0.1-0.3,0-0.4
			c-0.1-0.1-0.3-0.1-0.4-0.1C72.6,7.2,72,7.2,71.3,7.2L71.3,7.2z"/>
		<path class="st1" d="M72,36.3c0.6,0,1.3,0,1.9,0c0.1,0,0.2,0,0.3,0c0.1,0,0.2-0.1,0.3-0.2c0.1-0.1,0-0.2,0-0.3
			c-0.1-0.1-0.2-0.1-0.3-0.1c-0.2,0-0.4,0-0.6,0l-3.2,0c-0.2,0-0.4,0-0.7,0c-0.1,0-0.2,0-0.3,0.1c-0.1,0-0.1,0.1-0.2,0.2
			c0,0.1,0.1,0.2,0.2,0.3c0.1,0,0.2,0.1,0.3,0.1C70.6,36.4,71.3,36.4,72,36.3L72,36.3z"/>
		<path class="st1" d="M71.1,18.4c0.6,0,1.2,0,1.8,0c0.1,0,0.3,0,0.4-0.1c0.1-0.1,0.2-0.2,0.2-0.3c0-0.1-0.1-0.2-0.2-0.2
			c-0.1,0-0.2,0-0.3,0h-3.2c-0.2,0-0.4,0-0.7,0c-0.1,0-0.2,0-0.3,0.1c-0.1,0-0.2,0.1-0.2,0.2c0,0.1,0.1,0.2,0.2,0.3
			c0.1,0,0.2,0.1,0.4,0L71.1,18.4z"/>
		<path class="st1" d="M71.2,22.9l1.5,0c0.1,0,0.3,0,0.4-0.1c0.1-0.1,0.2-0.2,0.2-0.3c0-0.1-0.1-0.2-0.2-0.2c-0.1,0-0.2,0-0.3,0
			l-3.1,0.1c-0.1,0-0.2,0-0.3,0c-0.1,0-0.2,0.2-0.2,0.3c0,0.1,0.1,0.2,0.2,0.2c0.1,0,0.2,0.1,0.3,0L71.2,22.9z"/>
		<g>
			<path class="st1" d="M67.1,25.1c0-0.1,0.1-0.2,0.1-0.3l0.3-0.2c0.8-0.6,0.8-0.5,0.4-1.4c-0.1-0.4-0.3-0.5-0.7-0.4l-0.6,0.1
				c-0.3,0.1-0.5-0.1-0.6-0.4c0-0.1,0-0.1,0-0.2c0-0.3,0.1-0.5,0.1-0.8c0-0.2-0.1-0.4-0.3-0.4l-0.7-0.3c-0.2-0.1-0.5,0-0.6,0.1
				c-0.1,0.2-0.3,0.3-0.4,0.5c-0.3,0.4-0.5,0.4-0.8,0c-0.1-0.1-0.2-0.2-0.3-0.3c-0.4-0.5-0.5-0.6-1.1-0.3l-0.1,0
				c-0.4,0.2-0.5,0.2-0.4,0.7c0,0.2,0,0.3,0.1,0.5c0.1,0.3-0.1,0.6-0.5,0.7c-0.1,0-0.2,0-0.3,0c-0.2,0-0.5-0.1-0.7-0.1
				c-0.1,0-0.3,0-0.3,0.1c-0.2,0.3-0.4,0.6-0.5,0.9c0,0.1,0.1,0.3,0.2,0.4c0.2,0.2,0.4,0.3,0.6,0.5c0.1,0.1,0.2,0.2,0.2,0.2
				c0,0.4,0.1,0.8-0.4,1c-0.1,0-0.1,0.1-0.1,0.1c-0.3,0.3-0.3,0.4-0.2,0.7c0.3,0.7,0.3,0.7,1,0.7c0.5-0.1,0.7,0.1,0.8,0.6
				c0,0.3,0.1,0.6,0.1,0.9c0,0.1,0.1,0.3,0.2,0.4c0.7,0.4,1,0.3,1.5-0.2l0.1-0.1c0.3-0.4,0.8-0.4,1.1,0c0.1,0.1,0.2,0.3,0.3,0.4
				c0.1,0.2,0.3,0.3,0.5,0.2c0.3-0.1,0.7-0.2,0.9-0.5c0.1-0.1,0-0.2,0-0.3c0-0.2-0.1-0.6-0.1-0.8c-0.1-0.3,0.1-0.5,0.3-0.6
				c0.4,0,0.7,0.1,1.1,0.1c0.1,0,0.3,0,0.3-0.1c0.2-0.3,0.4-0.7,0.4-1.1c0-0.1-0.1-0.2-0.2-0.3c-0.2-0.2-0.4-0.3-0.6-0.5
				C67.2,25.4,67.1,25.3,67.1,25.1L67.1,25.1z"/>
			<path class="st1" d="M65.6,28.7l-0.4,0.2l-0.6-0.8C64.5,28,64.4,28,64.2,28h-0.7c-0.1,0-0.2,0-0.3,0.1c-0.1,0.1-0.1,0.1-0.2,0.2
				l-0.5,0.6L62,28.7c-0.1-0.4,0.1-0.8-0.1-1.2c-0.1-0.2-0.2-0.3-0.3-0.4l-0.3-0.3c0,0-0.1-0.1-0.1-0.1c-0.1,0-0.1,0-0.2,0l-0.8,0.1
				L60,26.3l0.7-0.5c0.1,0,0.1-0.1,0.1-0.1c0-0.1,0-0.1,0-0.2v-0.9c0-0.1,0-0.1,0-0.2c0,0-0.1-0.1-0.1-0.1l-0.8-0.6l0.2-0.3
				c0,0,0-0.1,0-0.1c0,0,0,0,0.1,0c0.1,0,0.1,0,0.2,0c0.2,0,0.4,0.1,0.6,0.1c0.1,0,0.2,0,0.3,0c0.3-0.1,0.6-0.3,0.8-0.6
				c0,0,0.1-0.1,0.1-0.1c0-0.1,0-0.1,0-0.2l0-1l0.5-0.2l0.6,0.8c0,0.1,0.1,0.1,0.2,0.2c0.1,0.1,0.2,0.1,0.3,0.1c0.6,0,1.2-0.4,1.3-1
				l0.6,0.2c-0.1,0.4-0.2,0.8-0.1,1.2c0.1,0.4,0.4,0.7,0.8,0.7c0.4,0,0.7-0.2,1.1-0.1l0.2,0.5l-0.7,0.6c-0.1,0.1-0.2,0.2-0.3,0.2
				c-0.2,0.3-0.1,0.7,0.1,1c0.2,0.3,0.6,0.5,0.8,0.7l-0.2,0.5c-0.3-0.1-0.5-0.1-0.8-0.2c-0.6-0.1-1.1,0.3-1.1,0.9c0,0.1,0,0.1,0,0.2
				C65.5,28.1,65.5,28.4,65.6,28.7L65.6,28.7z"/>
		</g>
		<path class="st1" d="M63.7,23.4c-0.9,0-1.6,0.7-1.6,1.6c0,0,0,0,0,0c0,0.9,0.7,1.5,1.6,1.5c0.9,0,1.5-0.7,1.5-1.6
			C65.2,24.1,64.5,23.4,63.7,23.4z"/>
		<path class="st1" d="M66.4,12.4l0.4,0.4L66.1,14c0,0,0,0,0,0.1c0.3,0.8,0.3,0.8,1.1,1c0,0,0.1,0,0.1,0c0.4,0.1,0.4,0.1,0.4,0.6
			l-1.2,0.4c-0.1,0.2-0.2,0.5-0.3,0.7c0,0.1,0,0.2,0,0.3c0.2,0.3,0.4,0.7,0.5,1l-0.3,0.4l-1-0.6c-0.3,0.1-0.7,0.3-1,0.4
			c-0.1,0-0.2,0.2-0.2,0.3c-0.1,0.3-0.1,0.6-0.2,0.9l-0.6,0.1c-0.1-0.3-0.3-0.6-0.4-0.8c0-0.2-0.2-0.4-0.4-0.4
			c-0.1,0-0.2-0.1-0.3-0.1c-0.4-0.3-0.7-0.2-1,0.1c-0.1,0.1-0.2,0.1-0.3,0.2l-0.3-0.3l0.5-0.9L60.8,16l-1.1-0.3
			c0-0.5-0.1-0.4,0.2-0.5c0.3-0.1,0.7-0.2,1-0.2c0.1-0.3,0.3-0.5,0.4-0.8c0-0.1,0-0.2,0-0.3c-0.1-0.3-0.3-0.6-0.5-0.9l0.4-0.4
			c0.4,0.2,0.7,0.4,1.1,0.6l0.9-0.3l0.3-1.2l0.6,0c0.1,0.3,0.2,0.6,0.2,0.9c0,0.2,0.2,0.4,0.4,0.4c0.5,0.3,0.9,0.2,1.3-0.1
			C66.1,12.6,66.2,12.5,66.4,12.4L66.4,12.4z"/>
		<path class="st1" d="M65.1,14.8c-0.3-0.8-1.2-1.2-2-0.8c0,0,0,0-0.1,0c-0.8,0.3-1.2,1.3-0.8,2.1c0.3,0.8,1.3,1.2,2.1,0.8
			C65.1,16.5,65.4,15.6,65.1,14.8C65.1,14.8,65.1,14.8,65.1,14.8z"/>
		<path class="st1" d="M64.2,30.4l0.2,0.9c0,0.1,0,0.2,0.1,0.2c0.1,0.1,0.2,0.2,0.3,0.2l0.4,0.2c0.1,0,0.1,0.1,0.2,0.1
			c0.1,0,0.2,0,0.2-0.1l0.8-0.5l0.4,0.4c-0.1,0.3-0.4,0.5-0.5,0.8c-0.1,0.4,0,0.9,0.3,1.1c0.3,0.3,0.7,0.4,1.2,0.4l0,0.6l-1,0.1
			c-0.1,0-0.2,0-0.3,0.1c-0.1,0.1-0.1,0.1-0.1,0.2l-0.3,0.6c0,0.1-0.1,0.2-0.1,0.3c0,0.1,0,0.2,0.1,0.2l0.5,0.9l-0.4,0.4
			C66,37.4,65.7,37,65.3,37c-0.4,0-0.7,0.2-0.9,0.5c-0.2,0.3-0.3,0.7-0.3,1.1l-0.5,0l-0.2-0.9c0-0.2-0.2-0.4-0.3-0.4
			c-0.3-0.2-0.7-0.3-1-0.2c-0.3,0.1-0.5,0.3-0.8,0.4l-0.5-0.4c0,0,0.1-0.3,0.2-0.3c0-0.1,0.1-0.2,0.1-0.3c0.1-0.2,0.1-0.4,0.1-0.6
			c0-0.2,0-0.4-0.1-0.6c0-0.1-0.1-0.1-0.1-0.2c-0.1-0.1-0.2-0.2-0.3-0.3c-0.2-0.1-0.5-0.2-0.7-0.2l0-0.5l0.7-0.2
			c0.1,0,0.2-0.1,0.2-0.1c0.1-0.1,0.2-0.2,0.2-0.3l0.3-0.6c0-0.1,0.1-0.2,0.1-0.3c0-0.1,0-0.2-0.1-0.2l-0.5-0.8l0.4-0.3l0.8,0.5
			c0.1,0.1,0.2,0.1,0.3,0.1c0.1,0,0.3,0,0.4-0.1c0.2-0.1,0.4-0.1,0.5-0.2c0.1-0.1,0.1-0.2,0.1-0.3l0.3-0.9L64.2,30.4z"/>
		<path class="st1" d="M65.2,34.9c0.3-0.8,0-1.7-0.8-2c0,0,0,0,0,0c-0.8-0.3-1.7,0.1-2,0.9c-0.3,0.8,0.1,1.7,0.9,2
			C63.9,36.1,64.9,35.7,65.2,34.9z"/>
		<path class="st1" d="M62,2.6l0.5-0.2l0.6,0.8c0,0.1,0.1,0.1,0.2,0.2c0.1,0,0.1,0,0.2,0c0.3,0,0.6,0,0.8-0.2
			c0.3-0.2,0.3-0.6,0.6-0.8l0.6,0.3c-0.1,0.3-0.1,0.5-0.2,0.8c-0.1,0.5,0.3,1,0.9,1.1c0.1,0,0.1,0,0.2,0c0.3,0,0.6-0.1,0.9-0.2
			L67.6,5l-0.9,0.7c-0.1,0-0.1,0.1-0.1,0.1c0,0.1,0,0.2,0,0.3c0,0.2,0,0.3,0,0.5c0,0.1,0.1,0.2,0.2,0.2l0.8,0.7L67.4,8
			C67,8,66.5,7.8,66.1,8c-0.3,0.2-0.6,0.5-0.6,0.9c0,0.4,0,0.7,0.1,1.1l-0.4,0.2l-0.6-0.8c0,0-0.1-0.1-0.1-0.1c-0.1,0-0.1,0-0.2,0
			h-0.6c-0.1,0-0.2,0-0.3,0c-0.4,0.1-0.5,0.6-0.8,0.8l-0.5-0.2C61.8,9.5,62,9,61.9,8.7c-0.1-0.2-0.2-0.3-0.3-0.4l-0.3-0.3
			c-0.1-0.1-0.2-0.1-0.3-0.1l-0.8,0.1L60,7.4c0.3-0.1,0.5-0.2,0.7-0.4c0.1-0.1,0.2-0.3,0.2-0.4c0-0.1,0-0.2,0-0.2c0,0,0-0.1,0-0.1
			c0,0,0-0.1,0-0.1c0-0.1,0-0.1,0-0.2c0-0.1,0-0.3-0.1-0.4c-0.1-0.1-0.1-0.1-0.2-0.2l-0.8-0.6l0.2-0.4c0.5,0,0.9,0.3,1.3,0.1
			c0.2-0.1,0.4-0.3,0.5-0.5C62,4,62,3.9,62.1,3.8c0-0.1,0-0.1,0-0.2L62,2.6z"/>
		<path class="st1" d="M63.7,7.7c0.9,0,1.6-0.7,1.6-1.5c0-0.9-0.7-1.6-1.5-1.6c-0.9,0-1.6,0.7-1.6,1.6c0,0,0,0,0,0
			C62.1,7,62.8,7.7,63.7,7.7C63.7,7.7,63.7,7.7,63.7,7.7L63.7,7.7z"/>
		<path class="st2" d="M63.7,26c0.6,0,1-0.4,1.1-1c0-0.6-0.5-1-1-1c-0.5,0-1,0.4-1,0.9c0,0,0,0,0,0.1C62.7,25.5,63.1,26,63.7,26
			C63.7,26,63.7,26,63.7,26L63.7,26z"/>
		<path class="st2" d="M64.6,15c-0.2-0.5-0.8-0.8-1.4-0.5c-0.5,0.2-0.7,0.9-0.5,1.4c0.2,0.5,0.8,0.7,1.3,0.5
			C64.6,16.1,64.8,15.6,64.6,15L64.6,15z"/>
		<path class="st2" d="M64.7,34.8c0.2-0.5,0-1.1-0.6-1.4c-0.5-0.2-1.1,0.1-1.3,0.6c-0.2,0.5,0.1,1,0.5,1.3
			C63.9,35.5,64.5,35.3,64.7,34.8L64.7,34.8z"/>
		<path class="st2" d="M63.7,7.2c0.6,0,1-0.5,1-1c0-0.6-0.5-1-1-1c0,0,0,0,0,0c-0.5,0-1,0.4-1,1c0,0,0,0,0,0
			C62.7,6.7,63.2,7.2,63.7,7.2L63.7,7.2z"/>
	</g>
	<g>
		<path class="st4" d="M50.4,2.2c0-0.1,0-0.2,0-0.4c-0.1-0.5-0.2-0.6-0.7-0.6c-7,0-14,0-21,0c-0.2,0-0.5,0-0.7,0.1
			c-0.4,0.1-0.5,0.2-0.5,0.7c0,2.5,0,4.9,0,7.4c0,0.5,0.1,0.6,0.6,0.6c1.4,0,2.9,0,4.3,0.1H33c0,0.3,0,0.5,0,0.7
			c0,9.5,0,18.9,0,28.4c0,0.3,0,0.6,0.1,0.9c0,0.2,0.2,0.4,0.5,0.4c0.1,0,0.2,0,0.4,0l9.2-0.1c0.1,0,0.3,0,0.4,0
			c0.5,0,0.9-0.4,0.9-0.9c0,0,0,0,0-0.1v-0.2V10.6V9.9h0.6H49c0.3,0,0.6,0,0.9,0c0.2,0,0.5-0.2,0.5-0.4c0,0,0,0,0-0.1
			c0-0.1,0-0.2,0-0.4L50.4,2.2z"/>
		<path class="st1" d="M46.7,8.4c-0.3,0.3-0.7,0.4-1.1,0.1c0,0-0.1-0.1-0.1-0.1c-0.2-0.2-0.4-0.3-0.7-0.2c-0.6,0.1-1.2,0.1-1.9,0
			c-0.2,0-0.5,0-0.6,0.2c-0.3,0.3-0.7,0.6-0.9,0.9s-0.1,0.8-0.1,1.2c0,2.4,0,4.8,0,7.1c0,0.3-0.1,0.6-0.3,0.8
			c-0.1,0.2-0.3,0.3-0.4,0.5c-0.4,0.3-0.4,0.7-0.4,1.1c0,5.4,0,10.7,0,16.1c0,0.1,0,0.2,0,0.4c-0.1,0.4,0.2,0.7,0.4,1
			c0.1,0,0.1,0.1,0.2,0.1c0.5,0,0.9,0,1.4,0c0.1-0.4,0.2-16.8,0.1-17.9c0-0.2,0-0.3,0-0.5c0-2.4,0-4.7,0-7.1c0-0.2-0.1-0.5-0.3-0.6
			c-0.3-0.3-0.3-0.7-0.1-1c0,0,0,0,0.1-0.1c0.3-0.3,0.7-0.3,1-0.1c0.4,0.3,0.5,0.8,0.2,1.2C43,11.6,43,11.9,43,12.2l0,25.3
			c0,0.2,0,0.3,0,0.5c0,0.3-0.1,0.4-0.4,0.3c-0.5,0-1.1,0-1.6,0c-0.1,0-0.3,0.1-0.4,0.2c-0.4,0.4-0.7,0.4-1.2,0
			c-0.1-0.1-0.2-0.1-0.4-0.1c-0.2,0-0.5,0-0.7,0c-0.2,0-0.5,0.1-0.6,0.2c-0.3,0.3-0.8,0.2-1.1-0.1c0,0-0.1-0.1-0.1-0.1
			c-0.3-0.6-0.7-1-1.1-1.5c-0.3-0.3-0.4-0.7-0.4-1c0-8.1,0-16.1,0-24.2c0-0.3,0-0.6-0.3-0.8c-0.3-0.2-0.3-0.8,0-1.1
			c0.3-0.3,0.8-0.4,1.1-0.1c0.3,0.2,0.4,0.7,0.2,1c0,0,0,0.1-0.1,0.1c-0.2,0.2-0.3,0.5-0.3,0.7c0,8,0,16,0,24.1
			c0,0.4,0.1,0.8,0.4,1.1c0.2,0.2,0.4,0.4,0.5,0.6c0.8-0.5,1.2-0.2,1.6,0.5h1c0.2-0.2,0.3-0.4,0.5-0.6c0.1-0.1,0.1-0.3,0.1-0.4
			c0-1.5,0-3,0-4.5c0-4.2,0-8.4,0-12.5c0-0.4,0.1-0.8,0.4-1c0.6-0.4,0.7-1,0.7-1.7c0-2.4,0-4.8,0-7.2c0-0.6,0.1-1,0.6-1.4
			C41.7,8.3,41.8,8.2,42,8c0.1-0.3,0.4-0.4,0.6-0.4c0.8,0,1.6,0,2.3,0c0.2,0,0.5-0.1,0.6-0.2C45.8,7,46.3,7,46.6,7.3
			c0,0,0.1,0.1,0.1,0.1C47,7.7,47,8.1,46.7,8.4L46.7,8.4z"/>
		<path class="st1" d="M41.8,35.8c0.1,0.1,0.2,0.3,0.3,0.4c0.3,0.5-0.2,1.4-1,1c-0.2-0.1-0.3-0.2-0.4-0.4c-0.1-0.4,0.1-0.6,0.2-0.9
			c0.1-0.4,0.2-0.8,0.1-1.2v-14c-0.4-0.2-0.6-0.7-0.5-1.1c0.2-0.4,0.7-0.6,1.1-0.5c0.1,0,0.2,0.1,0.2,0.2c0.1,0.1,0.2,0.3,0.3,0.5
			c0,0.1,0,0.1,0,0.2c0,0.1,0,0.3-0.1,0.4c0,0.1-0.1,0.1-0.1,0.2c0,0-0.1,0.1-0.1,0.1c-0.1,0.1-0.1,0.1-0.2,0.1c0,4.8,0,9.6,0,14.4
			C41.7,35.4,41.8,35.6,41.8,35.8z"/>
		<path class="st1" d="M38.1,5.4c-0.3,0.1-0.6,0-0.8-0.2C37.1,5,36.9,5,36.6,5c-1.5,0-3,0-4.6,0c-0.3,0-0.6,0-0.8,0.2
			c-0.3,0.3-0.8,0.2-1-0.1c-0.2-0.3-0.2-0.7,0-1c0.3-0.3,0.7-0.3,1-0.1c0.1,0.1,0.2,0.2,0.3,0.3h2.4c0.9,0,1.8,0,2.7,0
			c0.3,0,0.5,0,0.7-0.3c0.2-0.2,0.6-0.3,0.9-0.1c0.3,0.1,0.4,0.4,0.4,0.7C38.6,5.1,38.4,5.3,38.1,5.4z"/>
		<path class="st1" d="M39.1,5.3c0.1,0,0.2,0,0.3,0.1c1,0.5,0.4,1.6-0.3,1.6c-0.5,0-0.9-0.4-0.9-0.8C38.3,5.6,38.7,5.3,39.1,5.3
			L39.1,5.3z"/>
		<path class="st1" d="M31.7,5.5c0.2,0,0.4,0.1,0.6,0.2c1,0.3,2,0.1,3.1,0.1c1-0.1,2.2,0.1,2.9,0.8c0.7,0.7,0.8,1.9,0.8,3l-0.1,7.3
			c0,0.2,0,0.5,0.1,0.7c0,0.1,0.1,0.3,0.2,0.4c0.1,0.1,0.1,0.1,0.1,0.2c0.1,0.1,0.1,0.3,0.1,0.4c0,0.3-0.3,0.6-0.6,0.8
			c0,0-0.1,0-0.1,0c-0.5,0.1-1-0.4-0.9-0.9c0.1-0.2,0.2-0.4,0.3-0.7c0.1-0.3,0.1-0.5,0.1-0.8c0-2.8,0-5.5,0-8.3c0-0.3,0-0.7-0.1-1
			c0-0.1-0.1-0.2-0.2-0.3c-0.4-0.6-1.1-0.9-1.8-0.9c-0.8-0.1-1.6,0.1-2.4,0c-0.5,0-1-0.1-1.5,0.1c-0.2,0.1-0.4,0.3-0.7,0.3
			c-0.5,0.1-1-0.4-0.8-0.9C31,5.7,31.3,5.5,31.7,5.5L31.7,5.5z"/>
		<path class="st1" d="M39.3,35.3c0,0.4-0.2,0.7-0.6,0.7c-0.3,0.1-0.5,0-0.7-0.2L38,35.8c0,0-0.1-0.1-0.1-0.1c-0.1-0.2,0-0.5,0-0.7
			c0-0.1,0.1-0.2,0.1-0.2c0.2-0.2,0.2-0.4,0.2-0.7c0-4.1,0-8.2,0-12.4c0-0.3-0.1-0.5-0.2-0.7c-0.3-0.3-0.2-0.8,0.1-1.1
			c0,0,0,0,0.1,0c0.4-0.3,0.9-0.2,1.1,0.1c0.3,0.3,0.2,0.9-0.1,1.1c-0.1,0.1-0.2,0.2-0.3,0.2v13.2c0,0,0,0.1,0,0.1
			C39.1,34.8,39.3,35,39.3,35.3L39.3,35.3z"/>
		<path class="st1" d="M48.1,6.7L48.1,6.7C47.8,7,47.3,7,47,6.8c-0.1-0.1-0.2-0.2-0.3-0.2c-0.1-0.1-0.3-0.1-0.4-0.1l-4.6,0
			c-0.2,0-0.4,0-0.6,0.1c-0.3,0.1-0.4,0.4-0.6,0.6c-0.2,0.1-0.3,0.3-0.4,0.4c-0.1,0.2-0.1,0.3-0.1,0.5v8.3c0,0.1,0,0.2,0.1,0.3
			c0.1,0.1,0.1,0.1,0.2,0.2c0.3,0.3,0.4,0.7,0.1,1.1c-0.1,0.1-0.1,0.1-0.2,0.2c-0.1,0-0.2,0.1-0.3,0.1c-0.1,0-0.2,0-0.3,0
			c-0.1,0-0.2,0-0.3-0.1c-0.1-0.1-0.1-0.1-0.2-0.2c-0.1-0.1-0.1-0.2-0.1-0.3c0-0.1,0-0.2,0-0.3c0-0.1,0-0.2,0.1-0.3
			c0.1-0.1,0.2-0.3,0.2-0.4c0-0.1,0.1-0.3,0.1-0.4c0-2.7,0-5.4,0-8.1c0-0.2,0-0.5,0.1-0.7c0.1-0.3,0.4-0.5,0.6-0.7
			C40.5,6.4,40.7,6.1,41,6c0.3-0.1,0.6-0.2,0.9-0.1l4,0c0.3,0.1,0.7,0,1-0.3c0.2-0.2,0.4-0.2,0.7-0.2C48.4,5.5,48.5,6.3,48.1,6.7z"
			/>
		<path class="st1" d="M48.7,4.6c0,0.1,0,0.3-0.1,0.4c-0.1,0.1-0.3,0.2-0.5,0.2l-3.9-0.1c-1.1,0-2.3,0-3.4,0.3
			c-0.2,0.1-0.4,0.1-0.6,0.1c-0.4,0-0.7-0.4-0.7-0.8c0-0.4,0.4-0.7,0.8-0.7c0.1,0,0.2,0,0.4,0.1c0.1,0.1,0.3,0.2,0.4,0.3
			c0.2,0.1,0.4,0.1,0.6,0.1H48V3.6H29.9v4h4.4c0.5,0,1,0,1.5,0.2c0.7,0.3,1.2,1,1.4,1.7c0.2,0.7,0.2,1.5,0.2,2.3
			c0,7.1-0.1,14.2-0.1,21.3c0,0.5,0,1.5,0,1.5c0.2,0.1,0.3,0.3,0.3,0.5c0,0.2,0,0.7-0.1,0.9c0,0-0.1,0.1-0.1,0.1c0,0-0.1,0-0.1,0
			c0,0-0.1,0-0.1,0c-0.1,0-0.1,0-0.2,0c-0.1,0-0.3,0-0.4-0.1c-0.1,0-0.2-0.1-0.3-0.2c-0.2-0.3-0.3-0.8,0-1.1
			c0.1-0.1,0.2-0.2,0.3-0.3c0,0,0-0.5,0-0.8c0-7.5,0-15,0.1-22.5c0-1-0.1-2.2-0.9-2.7c-0.5-0.3-1.2-0.3-1.8-0.3l-3.2,0.1
			c-0.1,0-0.3,0-0.4,0c-1.2-0.1-1.2-0.7-1.2-1.2V3.4c0-0.2,0.1-0.4,0.3-0.5c0.1,0,0.1,0,0.2,0H48c0.2,0,0.4,0,0.6,0.2
			c0.1,0.1,0.1,0.3,0.1,0.4L48.7,4.6C48.7,4.6,48.7,4.6,48.7,4.6L48.7,4.6z"/>
	</g>
	<path class="st5" d="M99.5,33.4h-2.9c-0.1,0.5-0.1,1-0.2,1.4c-0.1,1.4-0.3,2.8-0.4,4.3c-0.1,0.5-0.2,0.7-0.8,0.7
		c-3.1,0-6.2,0-9.3,0c-0.6,0-0.8-0.2-0.7-0.8c0.2-1.2,0.3-2.5,0.5-3.7c0.3-2.2,0.6-4.4,0.9-6.6c0.3-2.2,0.6-4.4,0.9-6.5
		c0.3-2.2,0.6-4.4,0.9-6.6s0.6-4.4,0.9-6.6c0.3-2.2,0.6-4.3,0.9-6.5c0-0.3,0.1-0.5,0.2-0.8c0-0.2,0.2-0.3,0.4-0.3c0.2,0,0.4,0,0.7,0
		h12.3c0.3,0,0.6,0,0.8,0c0.5,0,0.6,0,0.7,0.6c0.1,0.7,0.2,1.4,0.3,2.1c0.4,2.9,0.9,5.7,1.3,8.6c0.4,2.6,0.8,5.2,1.2,7.8
		c0.4,2.8,0.8,5.6,1.3,8.4c0.4,2.6,0.8,5.2,1.2,7.8c0.1,0.7,0.2,1.5,0.3,2.2c0.1,0.9,0,1-0.8,1l-8.4,0.1c-0.1,0-0.3,0-0.4,0
		c-0.2,0-0.4-0.1-0.5-0.4c-0.1-0.3-0.2-0.7-0.2-1c-0.2-1.7-0.4-3.3-0.7-5C99.5,33.6,99.5,33.5,99.5,33.4L99.5,33.4z"/>
	<path class="st1" d="M100.7,3.2c0,0.2,0,0.4,0,0.5c0,1,0,2-0.1,3c0,0.4,0,0.7,0,1.1c0,0.5-0.2,0.6-0.6,0.5c-0.1,0-0.2,0-0.2,0
		c-0.5,0-0.9,0.3-1.1,0.7c-0.1,0.5,0.1,1,0.6,1.2c0.7,0.2,1.4,0.1,1.7-0.7c0.1-0.2,0.1-0.5,0.1-0.7c0-1.1,0-2.2,0-3.4
		c0-0.1,0-0.3,0-0.5l2.3,1.1v3.5l-0.5-0.1c-0.5-0.1-1,0.2-1.1,0.8c0,0,0,0,0,0c-0.1,0.5,0.3,1,0.8,1.2c0.5,0.2,1.1,0,1.3-0.4
		c0.2-0.4,0.3-0.8,0.2-1.2c0-0.2-0.1-0.4-0.1-0.6c0-1.4,0.1-2.7,0.2-4.1c0-0.2,0-0.3,0-0.5L100.7,3.2z"/>
	<path class="st1" d="M87.2,38.1h7.4c0.1-0.5,0-1-0.1-1.5c-0.2,0.1-0.6,0.4-0.7,0c-0.1-0.3,0.4-0.3,0.6-0.5
		c-0.1-0.3-0.3-0.5-0.4-0.9c-0.1,0.2-0.2,0.3-0.4,0.4c-0.1,0.1-0.2,0.1-0.3,0.1c-0.1-0.1,0-0.2,0-0.3c0.1-0.2,0.2-0.4,0.4-0.5
		c-0.2-0.2-0.4-0.4-0.6-0.6c-0.1,0.2-0.3,0.4-0.4,0.6c-0.1,0.1-0.2,0.2-0.3,0.1s-0.1-0.2,0-0.3l0.3-0.5c-0.4-0.3-0.9-0.4-1.4-0.4
		c0,0.2,0,0.4,0,0.6c0,0.1-0.1,0.2-0.1,0.3c-0.2,0-0.2-0.1-0.2-0.2c0-0.2,0-0.4,0-0.6c-0.4,0-0.8,0-1.1,0.2c0.1,0.2,0.2,0.3,0.2,0.5
		c0,0.1,0,0.2-0.1,0.3c-0.1,0-0.2,0-0.3-0.1c-0.1-0.2-0.2-0.3-0.3-0.5c-0.3,0.2-0.5,0.3-0.8,0.5c0.1,0.2,0.2,0.3,0.3,0.4
		c0.1,0.1,0.1,0.2,0,0.3c-0.1,0-0.2,0-0.3-0.1c-0.1-0.1-0.2-0.2-0.3-0.4c-0.2,0.3-0.4,0.6-0.6,0.8c0.2,0.1,0.3,0.2,0.5,0.3
		c0.1,0.1,0.1,0.2,0,0.2c-0.1,0.1-0.2,0.1-0.2,0.1c-0.2-0.1-0.3-0.1-0.5-0.2C87.2,36.8,87.1,37.5,87.2,38.1z"/>
	<path class="st1" d="M94.1,12.7H94c-0.1,0.1-0.1,0.3-0.2,0.4l-1.3,4c0,0.1-0.1,0.2-0.1,0.3c-0.1,0.2-0.3,0.3-0.5,0.1
		c-0.1-0.1-0.3-0.2-0.4-0.3c-0.8-0.4-1.7,0.1-1.7,1c0,0.5,0.2,1,0.6,1.2c0.7,0.5,1.4,0.4,1.8-0.4c0.1-0.1,0.1-0.3,0.2-0.5
		c0.4-1.2,0.8-2.4,1.2-3.6c0.1-0.2,0.1-0.4,0.4-0.4c0.1,0.1,0.1,0.3,0.2,0.4c0.3,0.9,0.6,1.7,0.6,2.8c0.1-0.1,0.2-0.1,0.2-0.2
		c0.5-0.8,0.8-1.9,0-2.9c-0.3-0.4-0.5-0.8-0.6-1.2C94.4,13.3,94.2,13,94.1,12.7z"/>
	<path class="st1" d="M103.8,20.6c0-0.2,0-0.4,0.1-0.6c0.1-1.5,0.2-3.1,0.4-4.6c0-0.6,0.1-1.2,0.1-1.8c0-0.2,0-0.3-0.2-0.4
		c-0.2-0.1-0.4-0.1-0.5,0c-0.1,0.1-0.1,0.2-0.2,0.4c-0.3,1.7-0.6,3.5-0.8,5.2c-0.1,0.5-0.2,1.1-0.2,1.6L103.8,20.6z"/>
	<path class="st1" d="M103.7,26.2c-0.4-0.9-0.2-1.7,0.1-2.5c0.1-0.2,0.1-0.4,0.2-0.7c0.1-0.3-0.1-0.6-0.4-0.7
		c-0.5-0.3-1-0.2-1.6-0.1c-0.1,0-0.2,0.1-0.2,0.2c-0.3,0.3-0.4,0.8-0.4,1.2C101.5,24.7,102.5,25.8,103.7,26.2L103.7,26.2z"/>
	<path class="st1" d="M94.6,6.4c-0.8,0.1-1.5,0.5-1.7,1.1c0.2,0.4,0.4,0.8,0.7,1.2c0-0.1,0.1-0.2,0.1-0.2c0.2-0.5,0.2-0.5,0.7-0.4
		c0.1,0,0.2,0,0.3,0l0.5-0.7L94.6,6.4z"/>
	<path class="st1" d="M91.4,4.7l0.5,0.9l1.7-1c-0.1-0.2-0.3-0.5-0.4-0.7c-0.1-0.1-0.2-0.2-0.3-0.2C92.2,3.8,91.7,4.1,91.4,4.7z"/>
	<path class="st1" d="M94.4,5.9l-0.5-1c-0.7,0.2-1.3,0.4-1.7,1.1L92.6,7L94.4,5.9z"/>
	<g>
		<path class="st1" d="M101,29.4c-0.1,0.4,0.2,0.8,0.3,1.1c0.9,1.3,1.6,2.3,2.5,3.6c0.1,0.1,0.1,0.2,0.2,0.3l1-0.8
			c-0.9-1.2-1.9-2.3-2.7-3.4C102,29.7,101.5,29.4,101,29.4L101,29.4z"/>
		<path class="st2" d="M105.9,37.1c0,0.1,0,0.1,0,0.2c0,0.1,0.1,0.2,0.2,0.2c0.5,0.4,1.1,0.4,1.7,0.6c0.1,0,0.2,0,0.3,0
			c0.1,0,0.2-0.1,0.2-0.2c0-0.1-0.1-0.1-0.1-0.2c-0.4-0.4-0.4-0.9-0.7-1.3c-0.1-0.2-0.3-0.4-0.6-0.4c-0.1,0-0.2,0.1-0.3,0.1
			c-0.2,0.1-0.4,0.3-0.6,0.6C105.9,36.8,105.9,36.9,105.9,37.1L105.9,37.1z"/>
		<path class="st1" d="M104.3,34.8l1.4,1.3l0.6-0.5c-0.3-0.6-0.6-1.1-1-1.6L104.3,34.8z"/>
	</g>
	<path class="st1" d="M95.4,8l-0.1-0.1c-0.2,0.8-0.6,0.8-1.2,0.6C94,8.7,94,8.9,93.9,9.1l1,0.7l0.7-0.4C95.5,8.9,95.4,8.5,95.4,8z"
		/>
	<path class="st2" d="M103.7,21.7c0-0.2,0-0.4,0.1-0.7c-0.5,0-1-0.2-1.5-0.1c0,0.2-0.1,0.4-0.1,0.6L103.7,21.7z"/>
	<path class="st1" d="M95.1,9.9c0.3,0.2,0.4,0.3,0.6,0.4c0-0.2-0.1-0.5-0.1-0.8C95.4,9.7,95.3,9.8,95.1,9.9z"/>
	<path class="st2" d="M98.1,18.2c-0.4,3.7-0.9,7.4-1.2,11.1h2.4C98.9,25.6,98.6,21.9,98.1,18.2z"/>
	<g>
		<path class="st1" d="M90.7,29.7c1.1,0,1.9-0.4,2.6-1.1c0.3-0.3,0.4-0.7,0.4-1.1c-0.1-0.6-0.6-1.1-1.2-1c0,0,0,0,0,0
			c-0.1,0-0.2,0-0.2,0c-0.3,0-0.5-0.2-0.6-0.5c0,0,0-0.1,0-0.1c0-0.1,0-0.3,0.1-0.4c0-0.3,0.1-0.6,0.1-0.8c0-0.4-0.2-0.8-0.6-1
			c-0.5-0.2-1.1-0.2-1.6,0.1c-0.9,0.6-1.4,1.4-1.6,2.4C87.6,28.1,89.1,29.7,90.7,29.7L90.7,29.7z"/>
		<path class="st2" d="M91.2,24.7c0,0.4-0.2,0.7-0.6,0.7c0,0,0,0,0,0c-0.4,0-0.7-0.3-0.7-0.7c0-0.4,0.3-0.7,0.6-0.7c0,0,0,0,0.1,0
			C90.9,24,91.2,24.3,91.2,24.7C91.2,24.7,91.2,24.7,91.2,24.7L91.2,24.7z"/>
		<path class="st1" d="M90.8,24.7c0-0.2-0.1-0.3-0.3-0.3c-0.2,0-0.3,0.2-0.2,0.3c0,0.2,0.1,0.3,0.3,0.3C90.7,25,90.8,24.9,90.8,24.7
			C90.8,24.7,90.8,24.7,90.8,24.7L90.8,24.7z"/>
		<path class="st2" d="M88.2,25.7c0,0.3,0.3,0.6,0.6,0.6c0.3,0,0.6-0.2,0.6-0.6c0-0.3-0.2-0.6-0.6-0.7c0,0,0,0,0,0
			C88.5,25.1,88.2,25.4,88.2,25.7C88.2,25.7,88.2,25.7,88.2,25.7L88.2,25.7z"/>
		<path class="st2" d="M88.1,27.3c0,0.3,0.3,0.6,0.6,0.6c0,0,0,0,0,0c0.3,0,0.6-0.3,0.6-0.6s-0.3-0.6-0.6-0.6
			C88.4,26.7,88.1,27,88.1,27.3C88.1,27.3,88.1,27.3,88.1,27.3L88.1,27.3z"/>
		<path class="st2" d="M89.1,28.6c0,0.3,0.2,0.6,0.5,0.6c0.3,0,0.5-0.2,0.6-0.5c0-0.3-0.2-0.6-0.5-0.6c0,0,0,0,0,0
			C89.3,28,89.1,28.3,89.1,28.6C89.1,28.6,89.1,28.6,89.1,28.6L89.1,28.6z"/>
		<path class="st2" d="M91.7,27.9c0,0.3,0.2,0.6,0.5,0.6c0.3,0,0.6-0.2,0.6-0.5c0-0.3-0.2-0.6-0.5-0.6C92,27.3,91.8,27.6,91.7,27.9
			L91.7,27.9z"/>
		<path class="st2" d="M91.1,28.1c-0.3,0-0.5,0.2-0.6,0.5c0,0,0,0,0,0c0,0.3,0.2,0.5,0.5,0.6c0.3,0,0.5-0.2,0.6-0.5
			C91.6,28.4,91.4,28.1,91.1,28.1C91.1,28.1,91.1,28.1,91.1,28.1L91.1,28.1z"/>
	</g>
	<path class="st2" d="M88.3,37.2c1.7,0.1,3.3,0,5.1,0c0-0.3-0.1-0.6-0.3-0.8c-0.2-0.2-0.4-0.5-0.6-0.6c-0.6-0.4-1.2-0.6-1.9-0.5
		c-0.5,0-1,0.2-1.4,0.6c-0.2,0.2-0.4,0.4-0.5,0.6C88.5,36.6,88.4,36.9,88.3,37.2C88.3,37.2,88.3,37.2,88.3,37.2L88.3,37.2z"/>
	<g>
		<g id="Artwork_193_2_">
			<g>
				<defs>
					<rect id="SVGID_1_" x="120.1" y="46.3" width="31.2" height="16.1"/>
				</defs>
				<clipPath id="SVGID_00000124855906705147082670000003092467099507957178_">
					<use xlink:href="#SVGID_1_"  style="overflow:visible;"/>
				</clipPath>
				<g style="clip-path:url(#SVGID_00000124855906705147082670000003092467099507957178_);">
					<defs>
						<rect id="SVGID_00000117673857115790958700000004671631012624664247_" x="120.1" y="46.3" width="31.2" height="16.1"/>
					</defs>
					<clipPath id="SVGID_00000150817037686958212860000009635502308838911381_">
						<use xlink:href="#SVGID_00000117673857115790958700000004671631012624664247_"  style="overflow:visible;"/>
					</clipPath>
					<path style="clip-path:url(#SVGID_00000150817037686958212860000009635502308838911381_);fill:#6AC5AC;" d="M122.9,51.4
						c0,1,0.4,1.4,1,1.4c0.9,0,1.2-1,1.3-1.7c0-0.2,0.7-0.6,1.2-0.6c0.2,0,0.2,0.1,0.2,0.2c0,0.2-0.1,0.3-0.2,0.7
						c-0.1,0.4-0.2,1.3-0.2,1.6c-0.2,3.5-1.1,6.1-3.7,6.1c-1.3,0-2.3-0.8-2.3-2c0-1.4,1.1-2,2.1-2c0.3,0,0.5,0.1,0.5,0.2
						c0,0.1-0.1,0.1-0.2,0.2c-0.3,0.2-0.6,0.5-0.6,0.8c0,0.5,0.3,0.8,0.9,0.8c1.1,0,1.8-1.7,2-4c-0.3,0.5-0.9,1.3-2.1,1.3
						c-1.2,0-2.1-0.9-2.1-2.4c0-3,2.2-5.6,4.2-5.6c1.1,0,1.7,0.6,1.7,1.5c0,0.7-0.3,1.3-0.8,1.3c-0.3,0-0.6-0.2-0.6-0.6
						c0-0.6,0.5-0.6,0.5-1c0-0.2-0.1-0.3-0.4-0.3c-0.3,0-0.6,0.1-1,0.5C123.5,48.3,122.9,49.9,122.9,51.4"/>
					<path style="clip-path:url(#SVGID_00000150817037686958212860000009635502308838911381_);fill:#6AC5AC;" d="M126.8,53.9
						c0-0.8,0.4-1.7,0.4-2.1c0-0.2-0.1-0.2-0.1-0.4c0-0.3,0.7-0.5,1.4-0.5c0.3,0,0.4,0.1,0.4,0.3c0,0.5-0.4,1.3-0.4,2.2
						c0,0.3,0.2,0.5,0.4,0.5c0.2,0,0.3-0.1,0.5-0.3c0.1-0.1,0.1-0.1,0.2-0.1c0.1,0,0.2,0.1,0.2,0.2c0,0.1-0.1,0.2-0.2,0.4
						c-0.3,0.3-0.8,0.9-1.6,0.9C127.2,55,126.8,54.5,126.8,53.9 M128.5,48.4c0.5,0,0.7,0.3,0.7,0.7c0,0.5-0.5,1.1-1,1.1
						c-0.4,0-0.7-0.3-0.7-0.7C127.5,49,128,48.4,128.5,48.4"/>
					<path style="clip-path:url(#SVGID_00000150817037686958212860000009635502308838911381_);fill:#6AC5AC;" d="M131.1,54.6
						c0,0.2-0.1,0.3-0.3,0.3c-0.4,0-0.9,0.1-1.1,0.1c-0.2,0-0.3-0.1-0.3-0.3c0-0.5,0.5-2.2,0.5-2.9c0-0.2-0.1-0.2-0.1-0.4
						c0-0.3,0.7-0.5,1.5-0.5c0.3,0,0.4,0.1,0.4,0.3c0,0.2-0.1,0.6-0.1,0.6s0.3-0.8,1.1-0.8c0.4,0,0.6,0.2,0.6,0.6c0,0.5-0.3,1-0.8,1
						c-0.4,0-0.5-0.3-0.5-0.5c-0.1,0-0.2,0.2-0.4,0.6C131.4,53.1,131.1,54.1,131.1,54.6"/>
					<path style="clip-path:url(#SVGID_00000150817037686958212860000009635502308838911381_);fill:#6AC5AC;" d="M133.4,53.8
						c0-1.2,1-2.8,1-4.8c0-0.4-0.2-0.6-0.5-0.6c-0.1,0-0.2-0.1-0.2-0.2c0-0.3,0.7-0.7,1.4-0.7c0.7,0,1.1,0.4,1.1,1c0,1.1-1,3.7-1,5
						c0,0.3,0.2,0.5,0.4,0.5c0.2,0,0.3-0.1,0.5-0.3c0.1-0.1,0.1-0.1,0.2-0.1c0.1,0,0.2,0.1,0.2,0.2c0,0.1-0.1,0.2-0.2,0.4
						c-0.3,0.3-0.8,0.9-1.6,0.9C133.8,55,133.4,54.4,133.4,53.8"/>
					<path style="clip-path:url(#SVGID_00000150817037686958212860000009635502308838911381_);fill:#6AC5AC;" d="M137.1,53.7
						c0,0.3,0.1,0.5,0.3,0.5c0.2,0,0.3-0.1,0.3-0.3c0-0.8-1.3-0.9-1.3-1.9c0-0.8,0.8-1.2,1.8-1.2c0.9,0,1.4,0.4,1.4,0.9
						c0,0.3-0.2,0.7-0.6,0.7c-0.2,0-0.5-0.2-0.5-0.4c0-0.2,0.1-0.3,0.1-0.4c0-0.1-0.1-0.2-0.2-0.2c-0.2,0-0.4,0.2-0.4,0.4
						c0,0.8,1.4,0.9,1.4,1.8c0,0.8-0.7,1.4-1.8,1.4c-1,0-1.7-0.4-1.7-1.1c0-0.4,0.3-0.7,0.6-0.7C136.9,53.2,137.1,53.4,137.1,53.7"
						/>
					<path style="clip-path:url(#SVGID_00000150817037686958212860000009635502308838911381_);fill:#414143;" d="M130,59.3
						c0-0.1,0-0.2,0.2-0.2h2.2c0.1,0,0.2,0.1,0.2,0.1V62c0,0.2-0.1,0.3-0.2,0.3h-0.5c-0.2,0-0.3,0-0.4-0.2l0-0.1
						c-0.4,0.2-1,0.4-1.7,0.4c-2.1,0-3.7-1.1-3.7-3.3c0-1.9,1.3-3.2,3.7-3.2c2.2,0,2.7,0.9,2.7,1.6c0,0.6-0.4,0.9-1,0.9
						c-0.5,0-0.9-0.3-0.9-0.9c0-0.2,0.1-0.3,0.1-0.5c-0.3-0.1-0.6-0.1-0.9-0.1c-1.6,0-2.2,1-2.2,2.2c0,1.2,0.6,2.1,2.1,2.1
						c0.6,0,1-0.1,1.3-0.3v-0.5c0-0.2-0.1-0.3-0.3-0.3h-0.6c-0.1,0-0.2-0.1-0.2-0.2V59.3z"/>
					<path style="clip-path:url(#SVGID_00000150817037686958212860000009635502308838911381_);fill:#414143;" d="M135.9,57.5
						c1.9,0,2.7,1.2,2.7,2.5c0,1.3-0.8,2.5-2.7,2.5c-1.9,0-2.7-1.2-2.7-2.5C133.3,58.6,134,57.5,135.9,57.5 M134.8,59.9
						c0,1,0.4,1.5,1.1,1.5c0.8,0,1.1-0.5,1.1-1.5c0-1-0.4-1.5-1.1-1.5C135.2,58.4,134.8,59,134.8,59.9"/>
					<path style="clip-path:url(#SVGID_00000150817037686958212860000009635502308838911381_);fill:#414143;" d="M144.2,61.3
						L144.2,61.3c0.3,0,0.3,0,0.3,0.2v0.6c0,0.2,0,0.2-0.2,0.2h-2.7c-0.2,0-0.2,0-0.2-0.2v-0.6c0-0.1,0-0.2,0.2-0.2h0.1
						c0.4,0,0.5-0.1,0.5-0.5v-3.4c0-0.4-0.1-0.5-0.5-0.5h-0.1c-0.2,0-0.2,0-0.2-0.2v-0.6c0-0.2,0.1-0.2,0.2-0.2h2.7
						c0.2,0,0.2,0,0.2,0.2v0.6c0,0.1,0,0.2-0.2,0.2h-0.1c-0.4,0-0.5,0.1-0.5,0.5v3.4C143.7,61.2,143.9,61.3,144.2,61.3"/>
					<path style="clip-path:url(#SVGID_00000150817037686958212860000009635502308838911381_);fill:#414143;" d="M145.5,55.9h5.3
						c0.3,0,0.4,0,0.4,0.4l0.1,1.3c0,0.2,0,0.2-0.2,0.2h-0.7c-0.2,0-0.2,0-0.2-0.2l0-0.3c-0.1-0.4-0.3-0.4-1.1-0.4h-0.1v4
						c0,0.3,0.2,0.4,0.5,0.4h0.1c0.2,0,0.2,0,0.2,0.2v0.6c0,0.2,0,0.2-0.2,0.2h-2.7c-0.2,0-0.2,0-0.2-0.2v-0.6c0-0.1,0-0.2,0.2-0.2
						h0.1c0.4,0,0.5-0.1,0.5-0.5v-3.9h-0.1c-0.9,0-1.1,0-1.1,0.4l0,0.3c0,0.2-0.1,0.2-0.2,0.2h-0.7c-0.2,0-0.2-0.1-0.2-0.2l0.1-1.3
						C145.1,55.9,145.2,55.9,145.5,55.9"/>
				</g>
			</g>
		</g>
		<g>
			<path class="st1" d="M112.5,53.5c-0.5-4.3-4.3-7.4-8.6-6.9c-4.3,0.5-7.4,4.3-6.9,8.6c0.5,4.3,4.3,7.4,8.6,6.9
				C109.9,61.6,113,57.8,112.5,53.5z M102,60.2l1.8-3.3c0.4,0.1,0.8,0.2,1.2,0.1c0.2,0,0.4-0.1,0.6-0.2l1.9,3.3
				c-0.7,0.3-1.4,0.5-2.1,0.6C104.2,60.9,103,60.7,102,60.2z M98.3,55.1c0-0.2,0-0.5,0-0.7l3.8,0.3c0,0,0,0,0,0
				c0,0.4,0.2,0.8,0.4,1.1l-2.9,2.5C98.9,57.3,98.5,56.2,98.3,55.1z M102.5,48.3l1.1,3.6c-0.4,0.2-0.8,0.5-1,0.9l-3.4-1.6
				C99.8,49.9,101,48.9,102.5,48.3z M103.4,48.1C103.4,48.1,103.4,48.1,103.4,48.1C103.4,48.1,103.4,48,103.4,48.1
				c0.2,0,0.3-0.1,0.3-0.1c0,0,0,0,0.1,0c0.1,0,0.2,0,0.3,0c0.1,0,0.2,0,0.3,0c0,0,0,0,0.1,0c0.1,0,0.2,0,0.2,0c0,0,0.1,0,0.1,0h0v0
				l0.1,3.8l0,1.1c-0.1,0-0.2,0-0.3,0c-0.1,0-0.2,0-0.3,0.1l-0.2-1.1L103.4,48.1L103.4,48.1z M110.1,50.8l-3.3,1.9
				c-0.4-0.4-0.9-0.8-1.4-0.9l0.3-3.8C107.5,48.2,109.1,49.3,110.1,50.8z M98.4,53.4c0-0.2,0.1-0.5,0.1-0.7c0.1-0.2,0.1-0.4,0.2-0.7
				l3.6,1.2l1.1,0.4c-0.1,0.2-0.1,0.4-0.2,0.6l-1.1-0.2L98.4,53.4z M103.8,54.4c0-0.1,0.1-0.1,0.1-0.1c0.1,0,0.1,0.1,0.1,0.1
				c0,0,0,0,0,0c0,0,0,0,0,0c0,0-0.1,0.1-0.1,0.1c0,0,0,0,0,0C103.8,54.5,103.8,54.4,103.8,54.4C103.8,54.4,103.8,54.4,103.8,54.4z
				 M104.1,53.7c0,0,0.1,0,0.2,0c0.1,0,0.1,0.1,0,0.2c0,0-0.1,0-0.1,0c0,0-0.1,0-0.1,0C104,53.8,104,53.7,104.1,53.7
				C104.1,53.7,104.1,53.7,104.1,53.7z M104.6,54c0,0,0.1,0,0.1,0c0,0,0.1,0,0.1,0c0,0,0.1,0,0.1,0c0,0,0,0,0,0c0,0,0,0,0.1,0
				c0.1,0.1,0.1,0.1,0.1,0.2c0,0,0,0,0,0c0,0,0,0,0,0.1c0,0,0,0,0,0c0,0,0,0.1-0.1,0.1c0,0.1-0.1,0.1-0.2,0.1c0,0-0.1,0-0.1,0
				c0,0,0,0,0,0c0,0,0,0,0,0c0,0-0.1,0-0.1,0c-0.1,0-0.2-0.1-0.2-0.1c0,0,0,0,0-0.1c0,0,0,0,0-0.1c0,0,0,0,0,0c0,0,0,0,0,0
				c0-0.1,0-0.2,0.1-0.2c0,0,0,0,0,0C104.5,54.1,104.5,54.1,104.6,54C104.6,54.1,104.6,54,104.6,54z M104.1,54.9
				c0-0.1,0.1-0.1,0.2,0c0.1,0,0.1,0.1,0,0.2c0,0.1-0.1,0.1-0.2,0C104,55,104,54.9,104.1,54.9z M104.6,55.2
				C104.6,55.2,104.6,55.1,104.6,55.2c0.1-0.1,0.1-0.1,0.1-0.1c0,0,0.1,0,0.1,0c0,0,0,0.1,0,0.1c0,0.1,0,0.1-0.1,0.1c0,0,0,0,0,0
				c0,0,0,0,0,0C104.7,55.3,104.6,55.3,104.6,55.2z M105.4,55c0,0.1-0.1,0.1-0.2,0c-0.1,0-0.1-0.1,0-0.2c0-0.1,0.1-0.1,0.2,0
				C105.5,54.9,105.5,55,105.4,55z M105.7,54.4c0,0.1,0,0.1-0.1,0.1c0,0,0,0,0,0c-0.1,0-0.1-0.1-0.1-0.1c0,0,0,0,0,0c0,0,0,0,0,0
				c0-0.1,0.1-0.1,0.1-0.1C105.6,54.2,105.7,54.3,105.7,54.4C105.7,54.3,105.7,54.3,105.7,54.4z M105.4,53.8
				C105.4,53.9,105.4,53.9,105.4,53.8c-0.1,0-0.2,0-0.2,0c0,0,0,0,0,0c0,0,0-0.1,0-0.2c0,0,0,0,0,0c0-0.1,0.1-0.1,0.2,0
				C105.5,53.7,105.5,53.8,105.4,53.8C105.4,53.8,105.4,53.8,105.4,53.8z M104.7,53.6c-0.1,0-0.1-0.1-0.1-0.1c0-0.1,0.1-0.1,0.1-0.1
				s0.1,0.1,0.1,0.1C104.9,53.6,104.8,53.6,104.7,53.6z M103.5,55.3c0.1,0.2,0.3,0.3,0.5,0.4l-0.7,0.9l-2.2,3.1
				c-0.2-0.1-0.4-0.3-0.6-0.4c-0.2-0.1-0.4-0.3-0.5-0.5l2.6-2.7L103.5,55.3z M106,55.3l0.8,0.8l2.6,2.6c-0.2,0.2-0.3,0.3-0.5,0.5
				c-0.2,0.2-0.4,0.3-0.6,0.4l-2.2-3l-0.7-0.9C105.7,55.6,105.8,55.5,106,55.3z M107.4,53.9l-1.1,0.3c0-0.2-0.1-0.4-0.2-0.6l1.1-0.5
				l3.4-1.5c0.1,0.2,0.2,0.4,0.3,0.6c0.1,0.2,0.1,0.4,0.2,0.7L107.4,53.9z M107.1,55.7c0.2-0.4,0.3-0.8,0.4-1.3l3.7-0.6
				c0.1,1.6-0.3,3.1-1.2,4.3L107.1,55.7z"/>
		</g>
		<g>
			<path class="st1" d="M36.2,62.4V49.9h3.3v1.6h0.1c0.1-0.3,0.3-0.6,0.5-0.9c0.2-0.3,0.5-0.5,0.9-0.6c0.3-0.2,0.7-0.2,1.2-0.2
				c0.6,0,1.2,0.2,1.7,0.5c0.5,0.3,1,0.8,1.3,1.5c0.3,0.7,0.5,1.6,0.5,2.7c0,1.1-0.2,1.9-0.5,2.6c-0.3,0.7-0.8,1.2-1.3,1.5
				c-0.5,0.3-1.1,0.5-1.8,0.5c-0.4,0-0.8-0.1-1.1-0.2s-0.6-0.3-0.9-0.6c-0.2-0.2-0.4-0.5-0.5-0.8h0v4.9H36.2z M39.4,54.4
				c0,0.4,0.1,0.8,0.2,1.1c0.1,0.3,0.3,0.6,0.5,0.7c0.2,0.2,0.5,0.3,0.8,0.3c0.3,0,0.6-0.1,0.8-0.3c0.2-0.2,0.4-0.4,0.5-0.7
				c0.1-0.3,0.2-0.7,0.2-1.2c0-0.5-0.1-0.8-0.2-1.2c-0.1-0.3-0.3-0.6-0.5-0.7c-0.2-0.2-0.5-0.3-0.8-0.3c-0.3,0-0.6,0.1-0.8,0.3
				c-0.2,0.2-0.4,0.4-0.5,0.7C39.5,53.6,39.4,54,39.4,54.4z"/>
			<path class="st1" d="M51.4,59.2c-1,0-1.8-0.2-2.5-0.6c-0.7-0.4-1.2-0.9-1.6-1.6c-0.4-0.7-0.6-1.5-0.6-2.5c0-0.9,0.2-1.8,0.6-2.5
				c0.4-0.7,0.9-1.3,1.6-1.6c0.7-0.4,1.5-0.6,2.5-0.6c0.7,0,1.3,0.1,1.9,0.3c0.6,0.2,1,0.5,1.4,0.9c0.4,0.4,0.7,0.9,0.9,1.5
				c0.2,0.6,0.3,1.2,0.3,2v0.8h-8.1v-1.8h5.1c0-0.3-0.1-0.5-0.2-0.7c-0.1-0.2-0.3-0.4-0.5-0.5c-0.2-0.1-0.5-0.2-0.7-0.2
				c-0.3,0-0.5,0.1-0.7,0.2c-0.2,0.1-0.4,0.3-0.5,0.5c-0.1,0.2-0.2,0.4-0.2,0.7v1.9c0,0.3,0.1,0.6,0.2,0.8c0.1,0.2,0.3,0.4,0.5,0.5
				c0.2,0.1,0.5,0.2,0.8,0.2c0.2,0,0.4,0,0.6-0.1c0.2-0.1,0.3-0.2,0.5-0.3c0.1-0.1,0.2-0.3,0.3-0.4h3c-0.1,0.6-0.3,1.2-0.7,1.6
				c-0.4,0.5-0.9,0.8-1.5,1.1C53,59,52.3,59.2,51.4,59.2z"/>
			<path class="st1" d="M60.5,59v-9.1h3.2v1.7h0.1c0.2-0.6,0.4-1.1,0.8-1.4c0.4-0.3,0.8-0.4,1.3-0.4c0.1,0,0.3,0,0.4,0
				c0.1,0,0.3,0.1,0.4,0.1v2.8c-0.2-0.1-0.4-0.1-0.6-0.1c-0.2,0-0.4,0-0.6,0c-0.3,0-0.6,0.1-0.9,0.2c-0.3,0.1-0.5,0.3-0.6,0.6
				c-0.1,0.3-0.2,0.6-0.2,0.9V59H60.5z"/>
			<path class="st1" d="M71.6,59.2c-1,0-1.8-0.2-2.5-0.6c-0.7-0.4-1.2-0.9-1.6-1.7c-0.4-0.7-0.6-1.5-0.6-2.5c0-0.9,0.2-1.8,0.6-2.5
				c0.4-0.7,0.9-1.3,1.6-1.7c0.7-0.4,1.6-0.6,2.5-0.6c1,0,1.8,0.2,2.5,0.6c0.7,0.4,1.2,0.9,1.6,1.7c0.4,0.7,0.6,1.5,0.6,2.5
				c0,0.9-0.2,1.8-0.6,2.5c-0.4,0.7-0.9,1.3-1.6,1.7C73.5,59,72.6,59.2,71.6,59.2z M71.7,56.7c0.3,0,0.5-0.1,0.7-0.3
				c0.2-0.2,0.4-0.5,0.5-0.8c0.1-0.3,0.2-0.8,0.2-1.2c0-0.5-0.1-0.9-0.2-1.2c-0.1-0.3-0.3-0.6-0.5-0.8c-0.2-0.2-0.4-0.3-0.7-0.3
				c-0.3,0-0.5,0.1-0.8,0.3c-0.2,0.2-0.4,0.5-0.5,0.8c-0.1,0.3-0.2,0.8-0.2,1.2c0,0.5,0.1,0.9,0.2,1.2c0.1,0.3,0.3,0.6,0.5,0.8
				C71.1,56.6,71.4,56.7,71.7,56.7z"/>
			<path class="st1" d="M83.1,49.9v2.4h-6v-2.4H83.1z M78.3,47.7h3.3v8.4c0,0.1,0,0.2,0.1,0.3c0,0.1,0.1,0.1,0.2,0.2
				c0.1,0,0.2,0.1,0.4,0.1c0.1,0,0.2,0,0.3,0c0.1,0,0.2,0,0.3-0.1l0.5,2.3c-0.1,0-0.4,0.1-0.6,0.2c-0.3,0.1-0.6,0.1-1,0.1
				c-0.8,0-1.4,0-1.9-0.2c-0.5-0.2-0.9-0.5-1.2-0.9c-0.3-0.4-0.4-1-0.4-1.6V47.7z M78.4,62.8l0.8-2.8h2.9l-1.5,2.8H78.4z"/>
			<path class="st1" d="M84.5,59v-9.1h3.3V59H84.5z M86.1,48.9c-0.4,0-0.8-0.1-1.1-0.4c-0.3-0.3-0.5-0.6-0.5-1.1s0.2-0.8,0.5-1.1
				c0.3-0.3,0.7-0.4,1.1-0.4c0.4,0,0.8,0.1,1.1,0.4c0.3,0.3,0.5,0.6,0.5,1.1s-0.2,0.8-0.5,1.1C86.9,48.8,86.6,48.9,86.1,48.9z"/>
		</g>
	</g>
	<g>
		<path class="st9" d="M135.3,16.2c0.1-0.4,0.1-0.8,0.2-1.1c0.5-3.4,0.9-6.8,1.4-10.2c0.1-1,0.3-2,0.4-3.1c0-0.2,0.2-0.4,0.4-0.4
			c0.1,0,0.2,0,0.4,0c3.9,0,7.9,0,11.8,0c0.4,0,0.6,0,1.1,0c0.2,0,0.4,0.1,0.4,0.3c0,0.1,0,0.3,0,0.4c0,12.5,0,24.9,0,37.4
			c0,0.3-0.1,0.5-0.1,0.8c0,0.2-0.2,0.4-0.4,0.4c-0.1,0-0.2,0-0.3,0c-2.7,0-5.3,0-8,0c-0.3,0-0.6-0.1-0.8-0.4
			c-0.1-0.1-0.1-0.3-0.2-0.4c0-0.2,0-0.3,0-0.5c0-5.2,0-10.5,0-15.7c0-0.2,0-0.5-0.1-0.7c-0.1,0.5-0.1,0.9-0.2,1.4
			c-0.5,4-1.1,8-1.6,12c-0.2,1.2-0.3,2.3-0.5,3.5c-0.1,0.7-0.1,0.7-0.8,0.7l-5.5,0h-0.3c-0.2,0-0.4-0.1-0.5-0.4
			c-0.1-0.6-0.3-1.2-0.4-1.9c-0.4-2.4-0.7-4.9-1.1-7.3c-0.4-2.4-0.7-4.8-1.1-7.2c-0.1-0.6-0.2-1.2-0.4-1.8v0.6c0,5.6,0,11.1,0,16.7
			c0,0.3,0,0.7,0,1c0,0.2-0.2,0.4-0.4,0.4c0,0,0,0,0,0c-0.1,0-0.1,0-0.2,0c-2.8,0-5.6,0-8.4,0c-0.4,0-0.6-0.2-0.7-0.6
			c0-0.2,0-0.3,0-0.5v-9.5c0-9.2,0-18.3,0-27.5c0-0.3,0.1-0.5,0.1-0.8c0.1-0.2,0.2-0.3,0.5-0.3c0.1,0,0.2,0,0.4,0
			c3.8,0,7.6,0,11.5,0c0.3,0,0.5,0.1,0.8,0.1c0.3,0.1,0.4,0.3,0.5,0.6c0.3,2,0.5,3.9,0.8,5.9c0.3,2.1,0.6,4.2,0.9,6.3
			C135.1,14.9,135.2,15.5,135.3,16.2L135.3,16.2z"/>
		<path class="st10" d="M127.9,14c-0.1,0.7-0.3,1.4-0.4,2.1c-0.1,0.7-0.1,1.5,0.2,2.1c0.1,0.3,0.4,0.6,0.7,0.7
			c0.3,0.1,0.6,0.1,0.8,0c0.6-0.3,1-0.9,1.1-1.5c0.1-0.2,0.1-0.5-0.1-0.7c-0.2-0.1-0.4-0.1-0.5,0c-0.1,0.1-0.1,0.2-0.1,0.3
			c0,0.1-0.1,0.2-0.2,0.3c-0.1,0.1-0.2,0.1-0.3,0c0-0.1-0.1-0.2-0.1-0.2c0-1,0.1-2.1,0.3-3.1c0.4-0.1,0.8,0.1,1.1-0.1
			c0.2-0.2,0.3-0.5,0.2-0.8s-0.1-0.7-0.4-0.8c-0.2,0-0.3-0.1-0.5,0l-4.2,0.4c-0.3,0-0.7,0.1-0.8,0.3c-0.2,0.4-0.4,0.8-0.5,1.2
			c-0.1,0.2-0.1,0.5,0,0.6c0.1,0.1,0.3,0.1,0.5,0c0.1-0.1,0.2-0.3,0.3-0.4l0.1-0.2c0,0,0-0.1,0.1-0.1c0,0,0.1,0,0.1,0h0.6
			c0,0.9-0.1,2-0.7,2.7c-0.2,0.2-0.3,0.4-0.5,0.6c-0.2,0.3-0.2,0.6-0.1,0.9c0.1,0.3,0.3,0.5,0.6,0.6c0.4,0.1,0.9-0.1,1.2-0.4
			c0.3-0.4,0.4-0.8,0.5-1.2c0.2-1.1,0.3-2.1,0.3-3.2C127.4,13.9,127.7,14,127.9,14L127.9,14z"/>
		<path class="st1" d="M126.4,2.9h-4.6c-0.1,0-0.2,0-0.3,0c-0.3,0-0.4,0.1-0.4,0.4c0,0.2,0,0.4,0,0.7c0,2.9,0,5.7,0,8.6
			c0,0.1,0,0.3,0,0.4c0,0.2,0.2,0.4,0.4,0.5c0.2,0.1,0.3-0.1,0.4-0.2c0.1-0.1,0.1-0.1,0.2-0.2l9.1-9.1c0.1-0.1,0.2-0.2,0.3-0.3
			c0.1-0.1,0.1-0.1,0.1-0.2c0.1-0.4-0.1-0.5-0.5-0.5C129.5,2.8,127.9,2.9,126.4,2.9z"/>
		<path class="st10" d="M149.2,4.4c0-1.3-1.1-1.8-1.9-1.6c-0.6,0.2-1.2,0.5-1.7,1c-1.6,1.6-3.2,3.2-4.8,4.8
			c-0.3,0.3-0.5,0.6-0.6,0.9c-0.1,0.4-0.2,0.8-0.3,1.2c-0.1,0.5-0.3,1-0.4,1.5c-0.1,0.5,0.1,0.7,0.6,0.5l0.3-0.1
			c0.8-0.3,1.6-0.6,2.4-0.9c0.1-0.1,0.3-0.1,0.4-0.3c1.7-1.7,3.4-3.4,5.1-5.1C148.8,5.7,149.2,5.1,149.2,4.4L149.2,4.4z"/>
		<path class="st1" d="M142.7,34.3c0,1.6,0,3.2,0,4.8c-0.1,0.3,0.1,0.5,0.3,0.6c0.1,0,0.2,0,0.3,0l6.4,0c0.2,0,0.4,0,0.5-0.2
			c0.1-0.2,0-0.3-0.1-0.5l-5.8-8.3l-0.9-1.3c-0.1-0.2-0.2-0.3-0.5-0.3c-0.2,0-0.2,0.1-0.2,0.3c0,0.5,0,1,0,1.5c0,1,0,2,0,3.1
			L142.7,34.3z"/>
		<path class="st10" d="M146.9,17L146.9,17c0-0.9,0-1.8,0-2.7c0-0.4-0.1-0.5-0.5-0.5c-1.6,0-3.2,0-4.8,0c-0.6,0-0.7,0.1-0.7,0.7
			c0,1.7,0,3.4,0,5.1c0,0.5,0.1,0.6,0.6,0.6c1.6,0,3.2,0,4.8,0c0.5,0,0.6-0.1,0.6-0.6C146.9,18.7,146.9,17.9,146.9,17L146.9,17z"/>
		<path class="st10" d="M127.4,35.7L127.4,35.7c0-0.8,0-1.7,0-2.5c0-0.4-0.1-0.5-0.5-0.5c-1.7,0-3.3,0-5,0c-0.4,0-0.5,0.1-0.5,0.5
			c0,0.1,0,0.2,0,0.3c0,1.5,0,3,0,4.6c0,0.1,0,0.2,0,0.3c0,0.2,0.2,0.4,0.4,0.4c0.1,0,0.2,0,0.3,0l4.3,0c0.2,0,0.5,0,0.7,0
			c0.2,0,0.4-0.1,0.4-0.3c0,0,0,0,0,0c0-0.1,0-0.2,0-0.4L127.4,35.7z"/>
		<path class="st10" d="M121.4,26.8L121.4,26.8c0,0.8,0,1.6,0,2.5c0,0.5,0.1,0.6,0.7,0.6c1.5,0,3,0,4.5,0c0.1,0,0.2,0,0.3,0
			c0.2,0,0.4-0.2,0.4-0.4c0-0.1,0-0.2,0-0.4c0-1.5,0-3,0-4.5c0-0.1,0-0.2,0-0.4c0-0.3-0.1-0.4-0.4-0.4c-0.1,0-0.2,0-0.4,0
			c-1.5,0-3,0-4.5,0c-0.5,0-0.5,0-0.5,0.5C121.4,25.2,121.4,26,121.4,26.8L121.4,26.8z"/>
		<g>
			<path class="st10" d="M136.3,21C136.3,21,136.3,21,136.3,21C136.3,21,136.2,21.1,136.3,21c-0.1,0.2-0.3,0.3-0.5,0.4
				c-0.3,0.2-0.7,0.4-1,0.6c-0.1,0.1-0.2,0.1-0.3,0.3c-0.1,0.2,0,0.4,0.2,0.5c0,0,0.1,0,0.1,0c0.2,0,0.3,0,0.5-0.1
				c0.6-0.3,1.2-0.7,1.8-1.1c0.2-0.1,0.3-0.3,0.3-0.5c0-0.1-0.1-0.2-0.2-0.2c-0.3-0.3-0.6-0.6-0.9-0.9l-0.7-0.7
				c-0.1-0.1-0.3-0.2-0.4-0.3c-0.4-0.1-0.6,0.3-0.4,0.6c0.1,0.1,0.2,0.2,0.3,0.3L136.3,21C136.2,21,136.2,21,136.3,21L136.3,21z"/>
			<path class="st10" d="M135.8,24c0.4,0,0.8,0,1.2,0c0.1,0,0.2,0,0.3-0.1c0.2-0.1,0.2-0.4,0.1-0.6c0,0,0,0,0,0
				c-0.1-0.1-0.1-0.1-0.2-0.2c-0.1,0-0.3,0-0.4,0l-2.1,0c-0.1,0-0.2,0-0.3,0c-0.2,0.1-0.3,0.3-0.2,0.5c0,0.1,0.1,0.1,0.1,0.2
				c0.1,0.1,0.3,0.1,0.5,0.1C135.1,24,135.5,24,135.8,24L135.8,24z"/>
		</g>
		<path class="st1" d="M138.6,31.4c0-1.7-1.4-3.1-3.1-3.1c-1.7,0-3.1,1.4-3.1,3.1c0,1.7,1.4,3.1,3,3.1
			C137.2,34.5,138.6,33.1,138.6,31.4z"/>
		<path class="st2" d="M135.6,28.8c-1.5,0-2.7,1.1-2.7,2.6c0,0,0,0.1,0,0.1c0,1.4,1.2,2.6,2.5,2.6v-0.3c0-0.6,0-1.2,0-1.9
			c0-0.4,0-0.5,0.5-0.5h2.2C138.2,30.1,137,28.9,135.6,28.8L135.6,28.8z"/>
		<path class="st2" d="M136.2,34c0.9-0.1,1.8-1.1,1.9-1.9C137.7,32.3,136.3,33.8,136.2,34L136.2,34z"/>
		<path class="st2" d="M137.2,31.9c-0.4,0.4-0.8,0.8-1.3,1.2c-0.1,0.1-0.2,0.3-0.1,0.4l1.7-1.7C137.5,31.8,137.3,31.8,137.2,31.9
			L137.2,31.9z"/>
		<path class="st2" d="M136.6,31.8c-0.2,0-0.5,0-0.7,0v0.7C136.1,32.4,136.4,32.1,136.6,31.8L136.6,31.8z"/>
		<path class="st2" d="M125.9,8.2l-0.8,0.9c-0.1-0.1-0.2-0.2-0.3-0.3c-0.1-0.1-0.3,0-0.4,0.1c-0.1,0.2,0.2,0.4,0.3,0.6l-1,1
			c-0.2-0.1-0.3-0.3-0.4-0.4c-0.2-0.1-0.4-0.2-0.5,0c-0.1,0.2,0,0.4,0.1,0.5c0.1,0.1,0.3,0.2,0.4,0.3l-1.4,1.4V4c0-0.1,0-0.2,0-0.4
			c0-0.1,0.1-0.1,0.2-0.1c1,0,2-0.1,3.1-0.1c0.9,0,1.9,0,2.8,0l1.4,0l0.7,0c0.1,0,0.7,0.1,0.7,0c-0.4,0.5-0.8,1-1.3,1.4l-0.7-0.6
			c-0.1-0.1-0.2-0.2-0.3-0.2c-0.2,0-0.3,0.2-0.2,0.4c0,0,0,0,0,0c0.1,0.2,0.2,0.3,0.4,0.4c0.2,0.1,0.3,0.2,0.4,0.4l-1,1
			c-0.1-0.1-0.2-0.2-0.4-0.3c-0.2-0.1-0.3,0-0.4,0.2c-0.1,0.2,0.2,0.4,0.3,0.6l-1.1,1.1c-0.1-0.1-0.2-0.2-0.3-0.2
			c-0.1-0.1-0.3,0-0.4,0.1c-0.1,0.1-0.1,0.2,0,0.3C125.8,8.1,125.8,8.1,125.9,8.2z"/>
		<path class="st10" d="M123,6.8v1.4c0,0.1,0,0.3,0.1,0.4c0.1,0.1,0.2,0.2,0.3,0.3c0.2,0,0.3-0.1,0.4-0.2l2.8-2.8
			c0.2-0.1,0.3-0.3,0.2-0.6c0.1-0.2,0-0.4-0.2-0.5c-0.1,0-0.2,0-0.2,0h-2.9c-0.1,0-0.2,0-0.3,0c-0.3,0.1-0.2,0.7-0.2,1L123,6.8z"/>
		<path class="st2" d="M142.9,10.9l3.4-3.4l-1.8-1.8c-1.1,1.1-2.3,2.3-3.5,3.5C141.3,9.4,142.5,10.7,142.9,10.9L142.9,10.9z"/>
		<polygon class="st2" points="147.7,6 146,4.3 145.2,5.1 146.8,6.8 		"/>
		<path class="st2" d="M148.2,5.5c0.3-0.3,0.5-0.8,0.4-1.3c0-0.5-0.4-0.9-1-0.9c0,0,0,0,0,0c-0.4,0-0.9,0.2-1.1,0.5
			C146.8,4.3,147.9,5.3,148.2,5.5L148.2,5.5z"/>
		<path class="st2" d="M141,11c0.5,0.5,0.5,0.5,1.1,0.2c0,0,0,0,0,0l-1.3-1.4c-0.1,0.3-0.1,0.5-0.2,0.8
			C140.7,10.8,140.9,10.9,141,11z"/>
		<path class="st2" d="M149.3,39h-6c-0.1-1.7-0.1-3.4-0.1-5.1c0-0.4,0-0.7,0-1.1c0-0.7,0-1.5,0.1-2.2
			C145.4,33.3,147.4,36.2,149.3,39L149.3,39z"/>
		<path class="st10" d="M145.5,38.1L145.5,38.1c0.3,0,0.7,0,1,0c0.3,0,0.4-0.2,0.3-0.6c0-0.1-0.1-0.2-0.2-0.3l-1.4-2.5
			c-0.1-0.2-0.2-0.4-0.4-0.6c-0.1-0.1-0.2-0.2-0.4-0.2c-0.2,0-0.2,0.2-0.2,0.3c0,1.1,0,2.2,0,3.4c0,0.3,0.1,0.4,0.4,0.4
			C144.9,38.1,145.2,38.1,145.5,38.1L145.5,38.1z"/>
		<rect x="141.6" y="14.5" class="st2" width="4.7" height="5.1"/>
		<path class="st10" d="M144,16.6L144,16.6c-0.4,0-0.8,0-1.2,0c-0.4,0-0.6,0.2-0.6,0.3c0,0.2,0.2,0.3,0.6,0.3c0.8,0,1.5,0,2.3,0
			c0.1,0,0.2,0,0.3,0c0.1,0,0.2-0.1,0.2-0.2c0-0.1-0.1-0.2-0.1-0.3c-0.1-0.1-0.2-0.1-0.4-0.1C144.7,16.6,144.4,16.6,144,16.6
			L144,16.6z"/>
		<rect x="144.5" y="23.3" class="st11" width="4.9" height="5"/>
		<path class="st10" d="M150,25.8L150,25.8c0-0.9,0-1.7,0-2.6c0-0.5,0-0.5-0.5-0.5c-0.1,0-0.2,0-0.3,0c-1.6,0-3.1,0-4.7,0
			c-0.5,0-0.7,0.1-0.7,0.7c0,1.6,0,3.2,0,4.8c0,0.1,0,0.2,0,0.4c0,0.2,0.2,0.4,0.4,0.4c0.1,0,0.2,0,0.3,0l4.5,0c0.1,0,0.2,0,0.4,0
			c0.5-0.1,0.5-0.1,0.6-0.6C150,27.4,150,26.6,150,25.8L150,25.8z"/>
		<path class="st2" d="M147.8,27.1c0-0.4-0.3-0.8-0.7-0.8c0,0,0,0,0,0c-0.5,0-0.8,0.4-0.8,0.9c0,0.4,0.3,0.8,0.7,0.8
			C147.5,27.9,147.8,27.5,147.8,27.1L147.8,27.1z"/>
		<path class="st2" d="M147,26L147,26c0.4,0,0.8,0,1.2,0s0.6-0.1,0.6-0.3s-0.2-0.3-0.6-0.3l-2.3,0c-0.1,0-0.2,0-0.3,0
			c-0.1,0.1-0.2,0.2-0.2,0.3c0,0.1,0.1,0.2,0.2,0.3c0.1,0,0.2,0,0.3,0L147,26z"/>
		<path class="st2" d="M147.1,25.1c0.4,0,0.8-0.3,0.8-0.8c0,0,0,0,0,0c0-0.4-0.4-0.8-0.8-0.8c-0.4,0-0.8,0.3-0.8,0.7c0,0,0,0,0,0
			C146.3,24.7,146.6,25.1,147.1,25.1C147.1,25.1,147.1,25.1,147.1,25.1L147.1,25.1z"/>
		<path class="st2" d="M122,38.1v-4.8c0.4,0,4.8-0.1,4.8,0v4.8H122z"/>
		<path class="st10" d="M124,35.5c-0.1,0.1-0.2,0.3-0.3,0.4c-0.3,0.3-0.6,0.6-0.9,0.9c-0.1,0.1-0.2,0.3-0.1,0.5
			c0.1,0.1,0.3,0.1,0.5-0.1s0.3-0.3,0.5-0.5c0.2-0.2,0.5-0.5,0.7-0.7c0.1,0.1,0.3,0.2,0.4,0.4c0.3,0.3,0.5,0.5,0.8,0.8
			c0.2,0.2,0.4,0.3,0.5,0.1c0.1-0.1,0.1-0.3-0.1-0.6c-0.2-0.2-0.4-0.4-0.6-0.6l-0.6-0.6c0.4-0.4,0.8-0.7,1.1-1
			c0.1-0.1,0.2-0.3,0.1-0.4c0,0,0,0,0-0.1c-0.1-0.1-0.3-0.1-0.4,0c0,0,0,0,0,0c-0.1,0.1-0.2,0.2-0.3,0.3l-0.7,0.7l-0.9-0.9
			c-0.1-0.1-0.2-0.2-0.4-0.4c-0.1-0.1-0.3-0.1-0.4,0c0,0,0,0,0,0c-0.1,0.1-0.1,0.3,0,0.4c0,0,0,0,0,0c0.1,0.1,0.2,0.2,0.3,0.3
			C123.3,34.9,123.6,35.2,124,35.5z"/>
		<path class="st2" d="M122.1,24.5h4.5v4.8h-4.5C122,29,122,25,122.1,24.5L122.1,24.5z"/>
		<path class="st10" d="M124,26.6c-0.3,0-0.5,0-0.7,0c-0.2,0-0.3,0-0.5,0c-0.1,0.1-0.2,0.1-0.2,0.3c0,0.2,0.1,0.3,0.2,0.3
			c0.1,0,0.2,0,0.4,0c0.2,0,0.5,0,0.7,0c0,0.2,0,0.2,0,0.3c0,0.2,0,0.5,0,0.7c0,0.2,0.1,0.3,0.3,0.3c0.2,0,0.3-0.1,0.3-0.3
			c0-0.1,0-0.3,0-0.4c0-0.2,0-0.4,0-0.6c0.1,0,0.2,0,0.2,0c0.3,0,0.5,0,0.8,0c0.2,0,0.3-0.1,0.3-0.3c0,0,0,0,0,0
			c0-0.2-0.1-0.3-0.3-0.3c-0.1,0-0.2,0-0.3,0c-0.2,0-0.5,0-0.7,0c0-0.2,0-0.3,0-0.4c0-0.2,0-0.3,0-0.5c0-0.3-0.1-0.4-0.3-0.5
			c-0.2,0-0.3,0.1-0.3,0.5c0,0.1,0,0.2,0,0.3L124,26.6z"/>
		<polygon class="st10" points="125.9,5.5 123.6,5.5 123.6,7.8 		"/>
		<polygon class="st2" points="144.9,35.5 144.9,37.4 146.1,37.4 145,35.5 		"/>
	</g>
	<g>
		<path class="st10" d="M11.5,36.7C11.5,36.7,11.5,36.7,11.5,36.7c0.2,0,0.3-0.1,0.4-0.1c0.1-0.1,0.2-0.3,0-0.5c0,0,0,0,0,0
			c-0.1-0.1-0.3-0.1-0.5-0.1c-0.1,0-0.2,0-0.3,0c-0.4,0.1-0.3,0.5-0.3,0.7l0,2.5c0,0.2,0,0.3,0.1,0.4c0.1,0.1,0.2,0.1,0.4,0.1
			c0.1,0,0.2,0,0.4,0c0.1,0,0.1,0,0.2,0c0.1,0,0.2-0.1,0.2-0.2c0-0.1,0-0.2-0.1-0.3c-0.1-0.1-0.2-0.1-0.4-0.1c0,0,0,0-0.1,0
			c0,0,0,0,0,0L11.5,36.7C11.5,36.7,11.5,36.7,11.5,36.7z"/>
		<path class="st10" d="M14.5,39.1c-0.1,0-0.2,0-0.3,0.1c-0.1,0-0.2,0.2-0.2,0.3c0,0.2,0.1,0.3,0.3,0.3c0.2,0,0.4,0.1,0.7,0.1
			c0.2,0,0.3-0.2,0.3-0.4c0-0.7,0-1.3,0-2c0-0.3,0-0.7,0-1c0-0.2-0.1-0.4-0.2-0.4c-0.3,0-0.5,0-0.8,0c-0.1,0-0.2,0.2-0.2,0.3
			c0,0.2,0.1,0.3,0.3,0.3c0.1,0,0.2,0,0.3,0.1L14.5,39.1z"/>
		<path class="st10" d="M13.5,38c0.1-0.1,0.1-0.2,0.2-0.2c0.1-0.1,0.1-0.1,0.2-0.2c0.2-0.2,0.2-0.4,0-0.5c-0.1-0.1-0.3-0.1-0.5,0
			c-0.1,0.1-0.2,0.2-0.4,0.4c-0.1-0.1-0.2-0.2-0.3-0.3c-0.1-0.1-0.2-0.2-0.2-0.2c-0.1-0.1-0.3-0.1-0.4,0c-0.1,0.1-0.1,0.3,0,0.4
			c0.1,0.1,0.1,0.2,0.2,0.3c0.1,0.1,0.2,0.3,0.3,0.4c-0.2,0.2-0.3,0.3-0.5,0.5c-0.1,0.1-0.1,0.2-0.2,0.2c-0.1,0.1,0,0.3,0.1,0.4
			c0.1,0.1,0.3,0.1,0.4,0c0.2-0.2,0.4-0.4,0.6-0.6c0.1,0.1,0.2,0.2,0.3,0.3c0.1,0.1,0.2,0.2,0.3,0.3c0.1,0.1,0.3,0.1,0.3,0
			c0.1-0.1,0.2-0.2,0.1-0.4c-0.1-0.1-0.1-0.2-0.2-0.3C13.7,38.3,13.6,38.1,13.5,38L13.5,38z"/>
	</g>
</g>
</svg>
