<?xml version="1.0" encoding="UTF-8"?><svg id="Layer_2" xmlns="http://www.w3.org/2000/svg" xmlns:xlink="http://www.w3.org/1999/xlink" viewBox="0 0 408.06 169.35"><defs><style>.cls-1{fill:none;}.cls-2{clip-path:url(#clippath);}.cls-3{fill:#f58f8b;}.cls-4{fill:#fff;}.cls-5{fill:#ffd87a;}.cls-6{fill:#69c5ac;}.cls-7{fill:#8f8f91;}.cls-8{fill:#e06c96;}.cls-9{fill:#414143;}.cls-10{fill:#414144;}.cls-11{fill:#59bdd9;}.cls-12{clip-path:url(#clippath-1);}.cls-13{clip-path:url(#clippath-3);}.cls-14{clip-path:url(#clippath-2);}</style><clipPath id="clippath"><rect class="cls-1" y="0" width="408.06" height="169.35"/></clipPath><clipPath id="clippath-1"><rect class="cls-1" y="0" width="408.06" height="169.35"/></clipPath><clipPath id="clippath-2"><rect class="cls-1" x="323.96" y="124.93" width="84.05" height="43.35"/></clipPath><clipPath id="clippath-3"><rect class="cls-1" y="0" width="408.06" height="169.35"/></clipPath></defs><g id="Ebene_1"><g id="Artwork_257"><g class="cls-2"><g class="cls-12"><path class="cls-6" d="M15.12,69.97h12.2c1.39,0,1.65,.28,1.66,1.72,.02,5.41,.04,10.82,.05,16.23,.02,.25,.02,.5,0,.75-.27,1.86,1.64,2.81,3.05,2.62,1.26-.15,2.43-.74,3.29-1.68,.36-.41,.59-.9,.67-1.44,.51-3.75,.19-7.57-.93-11.18-.58-1.77-1.62-3.34-3.02-4.57-1.66-1.54-3.42-2.96-5.27-4.25-2.45-1.69-5.06-3.15-7.55-4.76-4.39-2.88-8.53-6.07-12.06-10.01-.78-.87-1.67-1.66-2.37-2.59-1.76-2.36-2.72-5.09-3.4-7.91-1.87-7.52-1.93-15.38-.17-22.92,1.21-5.6,4.57-10.5,9.37-13.64C14.81,3.57,19.49,1.69,24.41,.8,27.78,.12,31.23-.13,34.66,.06c6.29,.46,12.33,1.79,17.75,5.24,1.92,1.2,3.63,2.73,5.04,4.51,1.47,1.79,2.35,3.99,2.52,6.29,.27,4.14,.71,8.27,1.08,12.4,.18,2,.39,4.01,.52,6.01,0,.71-.07,1.41-.23,2.1-.09,.47-.48,.83-.96,.86-.38,.04-.75,.05-1.13,.04l-22.16,.1c-.46,.03-.92-.02-1.36-.14-.35-.11-.64-.36-.8-.69-.3-.82-.48-1.68-.55-2.55-.07-1.8,0-3.6,.03-5.41,.06-1.72-.16-3.43-.66-5.08-.73-2.37-3.37-2.66-5.02-1.45-.38,.32-.65,.76-.76,1.24-.17,.9-.25,1.82-.26,2.74-.12,5.15,2,9.19,6.23,12.06,3.29,2.23,6.69,4.32,10.04,6.45,4.17,2.66,8.13,5.64,11.84,8.92,4,3.49,6.25,7.98,7.07,13.11,1.27,7.66,1.45,15.47,.52,23.18-.18,1.16-.44,2.3-.77,3.43-1.7,6.42-5.9,10.76-11.61,13.81-4.05,2.12-8.46,3.48-13.01,3.99-7.26,.97-14.65,0-21.41-2.83-4.67-1.97-8.76-4.76-11.77-8.92-2.34-3.16-3.54-7.02-3.39-10.96,.09-3.17-.1-6.35-.14-9.53v-6.04c0-.5-.04-1-.11-1.49-.1-.87,.24-1.37,1.09-1.49,.33-.03,.67-.04,1.01-.03H15.12v.02Z"/><path class="cls-9" d="M17.34,30.95c0-1.39,.04-2.77,0-4.15-.05-1.09,.12-2.02,1.01-2.8,.58-.47,.79-1.26,.52-1.95-.31-.77-1.08-.67-1.75-.67l-8.17,.04c-.29,0-.59,0-.88,.05-.79,.15-1.3,.91-1.15,1.69,.02,.11,.06,.22,.1,.33,.21,.5,.52,.94,.79,1.43,.21,.36,.35,.75,.4,1.16,.04,1.63,0,3.27,0,4.9,.02,.38-.19,.74-.52,.92-.39,.25-.76,.52-1.12,.81-4.9,4.06-3.91,10.82-.14,13.99,4.43,3.64,10.96,3.02,14.63-1.38,3.2-3.8,2.71-9.47-1.09-12.66-.19-.16-.38-.3-.58-.45-.63-.42-1.3-.78-2.07-1.26"/><path class="cls-9" d="M47.69,35.28v-.04h8.92c.54,.09,1.09-.11,1.45-.52,.9-1.25,1.02-2.9,.31-4.27-1.39-2.33-2.78-4.67-4.15-7.02-.76-1.3-1.75-2.55-2.1-3.96-.35-1.41-.06-2.99-.13-4.5-.08-1.67,.09-3.2,1.21-4.59,.75-.94,.21-1.99-.97-2.25-.25-.04-.5-.05-.76-.03h-8.17c-.29-.01-.58,0-.87,.06-.9,.22-1.19,.89-.73,1.7,.28,.51,.59,1.01,.93,1.49,.37,.51,.56,1.13,.52,1.76-.04,2.1,0,4.2-.04,6.29,.02,.41-.06,.82-.25,1.2-1.83,2.95-3.71,5.87-5.54,8.82-.32,.47-.52,1.01-.61,1.57-.06,.79-.04,1.59,.07,2.38,.15,1.36,.76,1.88,2.15,1.88l8.76,.02Z"/><path class="cls-9" d="M13.64,79.79c-.89,.58-1.74,1.21-2.55,1.89-2.13,1.89-2.33,5.15-.44,7.28,.44,.5,.97,.9,1.56,1.2,.64,.3,1.24,.67,1.91,1.05-.26,.2-.45,.36-.65,.52-.49,.32-.96,.67-1.41,1.05-1.04,1-1.62,2.39-1.62,3.83,.02,.4,.19,.77,.47,1.05,.33,.31,.66,0,.98-.24,.27-.17,.59-.27,.91-.26h6.29c.41-.04,.81,.13,1.05,.47,.22,.22,.54,.31,.85,.25,.27-.17,.45-.45,.49-.77,.01-.46-.06-.92-.21-1.35-.56-1.75-1.66-3.28-3.15-4.37,.4-.31,.77-.57,1.11-.87,.56-.45,1.08-.94,1.57-1.46,1.61-1.87,1.83-3.83,.48-5.88-.7-.93-1.49-1.79-2.34-2.58-.24-.19-.49-.37-.76-.52,.15-.13,.3-.24,.47-.35,2.01-1.27,2.7-3.21,2.76-5.47,.01-.37-.06-.75-.22-1.09-.13-.25-.37-.41-.65-.45-.21,0-.46,.27-.62,.48-.09,.18-.14,.37-.15,.56h-7.38c-.38,.03-.74-.17-.93-.49-.19-.2-.47-.29-.73-.23-.24,.14-.37,.48-.52,.76-.05,.09,0,.25,.04,.37,.31,2.28,.95,4.35,3.23,5.48,.08-.02,.12,.08,.17,.15"/><path class="cls-9" d="M37.83,50.07c1.11-2.62,.68-4.72-1.17-6.07-1.99-1.45-4.78-1-6.23,.99-.96,1.32-1.12,3.06-.42,4.53,.44,.92,1.18,1.65,2.1,2.1,1.38,.71,2.74,.52,4.16-.05,.39,.68,.72,1.31,1.11,1.9,.22,.35,.22,.8,0,1.15-.23,.71-.41,1.43-.56,2.16-.03,.28-.11,.55-.26,.79-.73,.85-1.52,1.66-2.21,2.4-2.73-.8-4.26-.43-5.35,1.2-1.2,1.74-.76,4.13,.98,5.32,1.1,.76,2.52,.89,3.74,.34,.77-.34,1.41-.93,1.82-1.67,.67-1.18,.52-2.41,.13-3.64l2.34-2.31c1.65,1.24,3.33,1.25,5,0l2.27,1.28c.52,2.94,1.85,4.52,3.98,4.72,2.42,.32,4.64-1.38,4.96-3.8,.21-1.6-.47-3.19-1.77-4.14-.77-.59-1.73-.9-2.7-.88-1.49,.08-2.86,.84-3.72,2.06l-1.85-1.05c-.1-3.37-1.19-4.42-4.75-4.6l-1.58-2.72Z"/><path class="cls-9" d="M30.54,17c1.09,.33,1.84-.23,2.59-.9,1.57-1.4,3.15-2.75,4.72-4.14,.27-.2,.5-.45,.67-.73,.12-.25,.12-.55,0-.8-.18-.21-.45-.33-.73-.33-.32,.07-.64,.18-.93,.33-.78,.3-1.58,.54-2.39,.74-2.52,.48-3.9-.93-3.39-3.43,.1-.45,.24-.89,.43-1.31,.19-.46,.5-.88,.65-1.35,.1-.32,.15-.88,0-1.02-.37-.23-.8-.36-1.24-.36-.2,0-.45,.21-.63,.37-1.77,1.47-3.53,2.96-5.3,4.43-.59,.44-.86,1.19-.68,1.9,.05,.24,.07,.49,.13,.74,.15,.61-.08,1.26-.59,1.64-1.67,1.5-2.97,3.36-3.79,5.45-.33,.79-.87,1.7-.18,2.48,.68,.77,1.77,.56,2.72,.33,2.09-.49,4.01-1.55,5.54-3.05,.72-.73,1.43-1.15,2.42-.97"/><path class="cls-9" d="M33.09,10.58c.32-.19,.63-.42,.91-.67,.9-.93,1.77-1.89,2.62-2.85,.25-.22,.45-.49,.59-.8,.13-.33,.13-.69,0-1.02-.25-.42-.72-.32-1.12-.12-.07,.04-.14,.09-.2,.15-1.24,.92-2.48,1.85-3.73,2.76-.61,.45-.5,.97-.27,1.57,.16,.54,.64,.92,1.2,.98"/><path class="cls-4" d="M13.51,42.28c-.37,1.52-1.68,2.62-3.24,2.72-1.51,0-2.86-.94-3.38-2.36-.6-1.7-.17-3.45,2.17-4.59h-3.46c-.1,.27-.18,.56-.23,.84-.36,2.56,.76,5.1,2.89,6.56,1.26,.92,2.77,1.43,4.33,1.47,3.23,.23,6.28-1.5,7.74-4.38,.7-1.39,.88-3,.49-4.51H11.08c2.49,.87,2.85,2.65,2.42,4.26"/><path class="cls-4" d="M19.94,35.7c-.49-.56-1.01-1.09-1.57-1.57-.71-.52-1.46-.98-2.24-1.37-.68-.27-1.09-.97-.99-1.69,.07-1.38,.03-2.77,.04-4.15,0-1.12-.15-2.27,.82-3.18-2.07-.23-4.16-.2-6.23,.08,.28,.59,.47,1.21,.59,1.86,.08,1.88,.04,3.77,0,5.66,.04,.95-.49,1.82-1.35,2.23-.94,.49-1.74,1.23-2.3,2.13h13.24Z"/><path class="cls-9" d="M10.19,40.24c-.71-.06-1.34,.46-1.4,1.17-.06,.71,.46,1.34,1.17,1.4,.05,0,.09,0,.14,0,.69,.06,1.29-.45,1.35-1.14,0-.06,0-.12,0-.17,.03-.67-.5-1.24-1.17-1.26-.03,0-.06,0-.1,0"/><path class="cls-4" d="M41.66,27.65c-.36,.02-.69,.18-.92,.46-.7,.99-1.34,2.02-1.93,3.08-.47,.79-.21,1.82,.58,2.29,.28,.17,.61,.25,.94,.23,4.99,0,9.97-.01,14.96-.04,1.25,0,1.82-.88,1.24-2.02-.72-1.42-1.57-2.76-2.29-4.03-4.3,.02-8.44-.02-12.57,.02"/><path class="cls-4" d="M47.25,18.39c.57,.02,1.03,.48,1.05,1.05-.03,.57-.51,1.01-1.08,.99-.58,.04-1.17,0-1.76,0l-3.01,4.9h10.37c-.24-.45-.39-.79-.57-1.11-.6-1.05-1.2-2.1-1.84-3.15-.4-.64-.6-1.39-.57-2.14,.03-1.71,0-3.43,0-5.16,0-1.15-.21-2.34,.81-3.39h-6.04c.28,.98,.7,1.62,1.77,1.42,.12-.02,.25-.02,.38,0,.57,.02,1.02,.48,1.05,1.05,0,.58-.47,1.05-1.05,1.05-.45,.05-.91,.05-1.34,.07-.23,.52-.16,.81,.38,.84,.37,0,.76,0,1.13,.04,.57,0,1.05,.43,1.11,1,.03,.58-.41,1.02-1.14,1.05-.49,.04-.99,0-1.57,0v1.46c.74,0,1.33-.04,1.9,.02h.02Z"/><path class="cls-4" d="M11.12,84.94h9.18c-.09-.64-.22-1.13-.95-1.13h-7.97l-.26,1.13Z"/><path class="cls-4" d="M12.25,87.56h7.15c.59,0,.82-.28,.81-.93H11.3c.05,.63,.29,.95,.94,.94l.02-.02Z"/><path class="cls-4" d="M19.52,95.23c-.32-.24-.52-.56-.79-.56-1.88-.04-3.77-.03-5.64-.03-.47,0-.67,.25-.66,.7,1.22,.31,6.03,.27,7.07-.09l.02-.02Z"/><path class="cls-4" d="M14.63,75.93c.88,.04,1.75,0,2.62,0q1.91,0,2.44-.35c-.09-.08-.17-.23-.26-.23-2.29-.03-4.58-.05-6.87-.05-.13,0-.27,.12-.66,.29,1.02,.53,1.88,.31,2.7,.36l.02-.02Z"/><path class="cls-4" d="M13.62,77.62c2.01,1.64,2.77,1.9,4.98,0h-4.98Z"/><path class="cls-4" d="M13.34,82.1h4.72c-1.61-1.55-2.34-1.52-4.73,.02v-.02Z"/><path class="cls-4" d="M17.87,89.33h-3.19c1.75,1.2,1.86,1.2,3.18,.02l.02-.02Z"/><path class="cls-4" d="M17.24,92.96c-1.2-.96-1.32-.96-2.4,0h2.4Z"/><path class="cls-4" d="M34.09,45.27c-1.28-.06-2.36,.92-2.42,2.2-.06,1.28,.92,2.36,2.2,2.42,.07,0,.15,0,.22,0,1.28-.06,2.26-1.14,2.2-2.42-.06-1.19-1.01-2.14-2.2-2.2"/><path class="cls-4" d="M49.82,58.58c-1.2-.04-2.21,.9-2.25,2.11,0,.02,0,.04,0,.06-.05,1.24,.91,2.3,2.15,2.35,.03,0,.05,0,.08,0,1.27,.02,2.32-.99,2.34-2.25h0c0-1.24-.98-2.24-2.21-2.25-.04,0-.07,0-.11,0v-.02Z"/><path class="cls-4" d="M30.48,63.25c-.03,.93,.7,1.71,1.62,1.74,.93,.03,1.71-.7,1.74-1.62,.03-.93-.7-1.71-1.63-1.74h-.04c-.89-.05-1.66,.63-1.71,1.53,0,.04,0,.08,0,.11v-.02Z"/><path class="cls-4" d="M40.52,54.92c-.82,.03-1.48,.68-1.52,1.49-.05,.78,.55,1.46,1.33,1.51,.04,0,.09,0,.13,0,.8,.04,1.49-.57,1.53-1.38,0-.02,0-.05,0-.07-.01-.82-.66-1.49-1.48-1.54v-.02Z"/><path class="cls-9" d="M45.69,87.27v7.79c0,.5,.09,.99,.25,1.46,.88,2.33,3.23,3.55,5.8,3.07,2.44-.42,4.24-2.51,4.28-4.98,0-4.98,0-9.96-.06-14.95-.04-.75,.16-1.5,.57-2.13,.4-.59,.76-1.2,1.08-1.84,.29-.4,.2-.96-.2-1.24-.14-.1-.3-.16-.46-.17-.33-.05-.66-.07-1-.05h-10.68c-1.38,.03-1.7,.61-1.05,1.86,.26,.52,.55,1.03,.87,1.52,.46,.7,.67,1.53,.62,2.37-.05,2.45-.03,4.88-.03,7.29"/><path class="cls-4" d="M54.34,86.11c.04-1.65,.04-3.29,0-4.94-.1-1.11-.01-2.24,.25-3.32,.23-.63,.52-1.24,.87-1.81-1.57-.1-3.15-.15-4.68-.13-1.43,0-3.1-.09-4.49,.25,.16,.79,.73,1.55,.9,2.4,.15,.82,.21,1.65,.19,2.49,0,1.69-.25,3.39,0,5.07h6.96Z"/><path class="cls-4" d="M47.35,95.35c.08,.66,.38,1.28,.85,1.75,1.12,1.12,2.51,1.25,3.96,.69,1.35-.47,2.24-1.76,2.2-3.18-.08-1.92,0-3.85-.04-5.77-.02-.33-.05-.65-.11-.98h-6.91c0,2.56-.06,5.03,.04,7.49"/><path class="cls-4" d="M27.68,16.08c.45-.52,.87-.87,1.57-.72,.25,.02,.5,.02,.75,0,.84,.04,1.66,.06,2.28-.7,.52-.62,1.33-.95,1.77-1.78-1.65,0-3.04-.33-3.99-1.64-.95-1.31-.83-2.73-.52-4.47-.61,.56-1.26,1.09-1.94,1.57-1.47,.91-2.02,2.1-1.46,3.77,.16,.49-.06,1.04-.52,1.27-1.9,1.29-3.04,3.19-4.01,5.2-.11,.33-.19,.67-.24,1.02,2.63-.55,4.7-1.64,6.31-3.51"/><path class="cls-3" d="M187.15,26.81v16.6h1.37l12.7-.05c1.6,0,2.05,.4,2.05,1.96v18.49c0,1.43-.23,1.71-1.64,1.75-4.36,.09-8.71,.12-13.07,.17h-1.57v19.57h1.54c4.62,0,9.22-.05,13.83-.05,.58,0,1.17,.05,1.74,.17,.9,.19,1.15,.52,1.2,1.49v.76c-.03,5.94-.06,11.89-.1,17.83v.76c-.19,1.83-.64,2.24-2.46,2.24-14.42,0-28.84,.01-43.27,.04-.71-.01-1.4-.15-2.06-.42-.7-.21-1.16-.88-1.12-1.6v-1.01c.06-33.24,.13-66.49,.19-99.74v-.88c.04-1.15,.52-1.66,1.66-1.79,.33-.02,.67-.02,1,0h42.13c.92-.08,1.83,.32,2.4,1.05,.37,.51,.54,1.14,.48,1.76V24.39c0,.37,0,.76-.04,1.13,0,.62-.48,1.14-1.1,1.17-.75,.1-1.5,.16-2.25,.18h-12.06l-1.58-.06Z"/><path class="cls-9" d="M180.05,37.76c.27-.45,.52-.84,.75-1.24,1.3-2.3,1.41-1.9-.61-3.96-.72-.74-1.06-.76-2.01-.28-.52,.27-1,.6-1.51,.9-1.21,.73-1.86,.49-2.22-.84-.11-.4-.19-.81-.3-1.22-.42-1.47-.45-1.49-1.98-1.5-2.51-.02-2.37-.21-2.89,2.23-.38,1.78-1.01,1.95-2.49,1.03-2.06-1.28-2.04-1.57-4.18,.7-.47,.4-.56,1.09-.22,1.6,.29,.51,.57,1.02,.86,1.53,.47,.73,.26,1.7-.47,2.18-.13,.09-.28,.15-.44,.2-.64,.2-1.29,.35-1.94,.52-.55,.15-1.04,.38-1.09,1.03-.06,.89-.54,1.83,.16,2.66,.22,.19,.48,.32,.77,.39,.51,.18,1.04,.33,1.57,.44,.62,.11,1.12,.56,1.29,1.16,.41,.74,.34,1.65-.19,2.32-.17,.23-.32,.48-.43,.75-.4,1.04,1.24,3.12,2.34,2.96,.24-.06,.48-.15,.68-.29,.3-.16,.56-.37,.86-.53,.97-.53,1.81-.28,2.39,.69,.24,.39,.49,.78,.7,1.19,1.17,2.21,.93,1.82,3.32,1.67,.7,.01,1.3-.49,1.41-1.17,.14-.53,.32-1.05,.43-1.58,.1-.4,.38-.73,.76-.89,.69-.47,1.61-.4,2.22,.17,.35,.24,.71,.45,1.09,.64,.45,.34,1.08,.34,1.53,0,.69-.58,1.54-1.08,1.72-2.06-.02-.29-.12-.57-.29-.81-.27-.57-.58-1.12-.92-1.64-.54-.6-.55-1.51-.02-2.13,.97-.28,1.9-.53,2.81-.84,.27-.12,.72-.38,.72-.58,.02-.99-.06-1.98-.22-2.96-.04-.25-.53-.5-.84-.63-.63-.24-1.28-.42-1.94-.54-.67-.05-1.19-.6-1.21-1.27Z"/><path class="cls-9" d="M180.48,95.95c.48-.11,.92-.18,1.37-.32,2.61-.69,2.39-.27,2.47-3.28,.1-.71-.37-1.37-1.07-1.51-.64-.19-1.29-.34-1.94-.52-1.3-.36-1.56-.97-.89-2.12,.33-.58,.68-1.15,1.02-1.73,.31-.43,.23-1.02-.17-1.36-.51-.5-.99-1.02-1.48-1.54-.34-.41-.93-.49-1.36-.19-.58,.32-1.16,.65-1.75,.97-1.01,.55-1.49,.34-1.8-.81-.17-.64-.34-1.28-.5-1.95-.12-.5-.52-.89-1.02-1-2.11-.61-3.11-.06-3.69,2.03-.06,.15-.08,.32-.13,.48-.17,.85-1,1.41-1.85,1.24-.2-.04-.39-.12-.56-.23-.63-.34-1.21-.75-1.83-1.06-.29-.12-.72-.27-.93-.15-.68,.4-1.32,.88-1.9,1.42-.37,.38-.41,.97-.11,1.4,.35,.62,.7,1.24,1.01,1.88,.12,.24,.26,.59,.17,.81-.41,.97-.72,2.11-2.12,2.13-.12,.02-.25,.05-.36,.1-1.07,.34-1.3,.59-1.28,1.7,0,1.58-.45,2.23,1.9,2.68,1.26,.24,1.66,1.08,1.3,2.32-.22,.8-.51,1.6-.67,2.42-.11,.4-.07,.82,.12,1.19,1.23,1.76,2.18,1.94,4.1,.9,.17-.12,.36-.22,.56-.28,.34-.08,.7-.1,1.05-.06,.87,.08,1.53,.82,1.52,1.69,.04,.25,.1,.49,.18,.73,.15,.63,.3,1.36,1.01,1.45,.9,.09,1.81,.07,2.7-.05,.17-.02,.35-.42,.45-.7,.25-.62,.44-1.26,.58-1.92,.04-.83,.71-1.49,1.53-1.53,.84,.48,1.66,.98,2.52,1.41,.31,.13,.85,.26,1.03,.1,.69-.6,1.31-1.27,1.84-2.01,.18-.25,.06-.81-.08-1.17-.25-.63-.57-1.22-.96-1.77-.47-.52-.45-1.32,.04-1.81h0Z"/><path class="cls-9" d="M180.98,16.27c.39-.28,.77-.52,1.13-.82,2.2-1.67,2.06-1.24,1-3.99-.35-.89-.81-1.11-1.78-.99-.62,.07-1.24,.18-1.87,.27-1.09,.16-1.66-.36-1.54-1.44,.08-.71,.2-1.41,.29-2.1,.13-.42-.06-.87-.44-1.08-.55-.3-1.14-.53-1.74-.69-1.02-.19-2.01-.13-2.55,1.01-.14,.26-.32,.49-.52,.7-.62,.75-1.22,.76-1.83,0-.34-.42-.64-.89-1-1.29-.17-.22-.42-.38-.69-.45-.79-.06-1.59-.05-2.38,.04-1.05,.16-1.37,.67-1.29,1.77,.03,.46,.08,.92,.14,1.37,.16,1.32-.67,2.13-1.96,1.92-.62-.09-1.24-.23-1.86-.27-.31-.03-.79,0-.93,.18-.52,.7-.96,1.45-1.32,2.24-.14,.46,.04,.96,.46,1.21,.56,.44,1.12,.88,1.65,1.35,.2,.18,.48,.45,.48,.67,0,1.05,.15,2.22-1.13,2.78-.11,.06-.21,.14-.3,.23-.87,.74-.94,1.05-.56,2.07,.74,1.96,.77,1.98,2.82,1.75,1.27-.14,1.93,.37,2.1,1.64,.1,.83,.15,1.67,.31,2.49,.06,.4,.27,.76,.58,1.02,1.77,1.12,2.78,.93,4.06-.67l.24-.29c.92-1.14,2.18-1.12,3.08,.07,.28,.37,.52,.74,.83,1.1,.35,.45,.8,.85,1.38,.67,.86-.27,1.81-.45,2.4-1.22,.15-.19,.1-.56,.08-.85-.02-.63-.09-1.25-.21-1.87-.28-.78,.07-1.65,.82-2.01,.95,.12,1.91,.26,2.86,.34,.3,0,.79,0,.91-.21,.56-.88,1.08-1.81,1-2.91-.08-.32-.26-.61-.52-.81-.49-.46-1.02-.87-1.57-1.25-.63-.31-.9-1.05-.63-1.69h0Z"/><path class="cls-9" d="M190.18,6.49l-9.04,.07c-.31-.02-.63,.03-.92,.13-.38,.1-.61,.49-.51,.87,.07,.25,.26,.44,.51,.51,.29,.09,.59,.13,.89,.11,5.45,0,10.9-.04,16.35-.06h1.65c.28,.01,.56-.02,.82-.1,.4-.09,.65-.49,.56-.89-.06-.26-.26-.48-.52-.55-.34-.13-.71-.18-1.08-.15l-8.71,.07Z"/><path class="cls-9" d="M192.8,103.54l7.21-.03c.33,.02,.66-.03,.97-.14,.4-.1,.64-.51,.54-.91-.07-.26-.27-.47-.54-.54-.3-.1-.63-.14-.94-.12l-14.03,.14c-.44,0-1.19-.06-1.54,.26-.28,.32-.25,.81,.06,1.09,.01,.01,.03,.02,.04,.03,.35,.2,.75,.28,1.14,.24l7.1-.03Z"/><path class="cls-9" d="M192.12,14.22h6.09c.32,.02,.65-.02,.96-.13,.4-.1,.65-.52,.54-.92-.07-.27-.28-.48-.54-.54-.31-.1-.64-.14-.97-.12l-12.37,.12c-.48,0-1.05,.08-1.24,.52-.09,.38,.11,.77,.46,.93,.35,.14,.73,.2,1.11,.17l5.96-.03Z"/><path class="cls-9" d="M193.5,91.97h7.01c.28,.02,.56-.02,.83-.1,.27-.09,.47-.32,.52-.59,0-.35-.2-.66-.52-.78-.31-.11-.64-.16-.98-.14l-13.66-.03c-.39,0-1.17-.06-1.47,.27-.25,.37-.19,.87,.14,1.16,.23,.13,.5,.19,.77,.17l7.35,.04Z"/><path class="cls-9" d="M190.11,56c2.27,0,4.53-.03,6.82-.03,.31,.02,.63-.02,.92-.13,.38-.09,.61-.48,.51-.85-.06-.25-.26-.45-.51-.51-.28-.09-.58-.13-.88-.11l-12.41,.05c-.57,0-1.14,0-1.71,.06-.44,.05-.97,.22-1.05,.65-.03,.33,.16,.64,.47,.77,.3,.11,.63,.16,.95,.14,2.29,0,4.59,0,6.89-.03h0Z"/><path class="cls-9" d="M192.31,19.34c-1.27,0-2.55,.09-3.81,.05-.62-.03-1.25-.04-1.88,0-.37-.01-.73,.08-1.05,.26-.3,.18-.4,.57-.22,.88,0,.01,.01,.02,.02,.04,.2,.17,.47,.26,.73,.25,.63,.05,1.25,.12,1.88,.14,3.07,.08,6.1,0,9.32-.1,.43-.01,.85-.08,1.26-.19,.09-.02,.18-.06,.26-.1,.33-.23,.22-.76-.12-.99-.36-.19-.77-.26-1.17-.22-1.75,.03-3.48-.01-5.23,0h0Z"/><path class="cls-9" d="M194.17,98.01c1.75-.04,3.49-.07,5.24-.03,.31,.02,.63,0,.93-.05,.31-.06,.58-.25,.75-.52,.17-.28,.12-.63-.1-.85-.21-.15-.46-.22-.72-.2h-1.51l-8.73,.08c-.59,0-1.18,0-1.77,.07-.25,.01-.49,.07-.71,.18-.22,.1-.38,.32-.41,.56,0,.3,.19,.58,.47,.69,.28,.11,.58,.16,.88,.14,1.89,.05,3.78,0,5.67-.04v-.02Z"/><path class="cls-9" d="M191.65,49.71h4.87c.36,.03,.71-.02,1.05-.15,.34-.14,.55-.5,.49-.87-.08-.25-.27-.45-.52-.52-.25-.07-.5-.1-.76-.08h-8.53c-.59,0-1.18,0-1.77,.04-.26,0-.51,.05-.76,.15-.24,.1-.42,.32-.47,.58,0,.33,.21,.63,.52,.74,.3,.11,.63,.15,.95,.13l4.92-.02Z"/><path class="cls-9" d="M192.14,61.74l4.11-.03c.38,.03,.77-.04,1.12-.18,.36-.16,.56-.55,.48-.94-.09-.26-.3-.45-.56-.52-.26-.06-.52-.09-.78-.07l-8.36,.14c-.3-.01-.6,.03-.89,.13-.38,.1-.61,.49-.51,.87,.07,.25,.26,.44,.51,.51,.29,.1,.61,.14,.92,.12h3.97Z"/><path class="cls-9" d="M180.9,67.65c0-.31,.15-.6,.4-.78l.83-.61c2.19-1.65,2.03-1.26,1.05-3.87-.39-1.05-.83-1.24-1.96-1.08l-1.74,.25c-.68,.15-1.36-.28-1.51-.97-.04-.16-.04-.34,0-.5,.08-.7,.19-1.4,.29-2.1,.07-.51-.2-1-.68-1.21l-1.85-.8c-.54-.31-1.22-.13-1.54,.4-.35,.47-.71,.94-1.05,1.39-.77,.99-1.31,.99-2.06,.04-.24-.3-.46-.6-.69-.9-1.14-1.48-1.28-1.52-3.05-.8l-.35,.13c-1.17,.5-1.26,.65-1.16,1.89,.04,.46,.09,.92,.14,1.37,.16,.85-.4,1.68-1.25,1.84-.23,.04-.48,.04-.71-.03-.62-.09-1.24-.23-1.86-.28-.31,0-.8,0-.93,.17-.53,.74-.97,1.53-1.32,2.37-.1,.26,.19,.79,.46,1.05,.49,.52,1.1,.9,1.64,1.37,.2,.18,.48,.45,.48,.67,0,1.05,.16,2.22-1.12,2.79-.15,.08-.28,.19-.39,.31-.77,.68-.84,.98-.47,1.98,.73,1.96,.77,1.99,2.81,1.76,1.27-.14,1.94,.37,2.1,1.63,.1,.83,.15,1.67,.31,2.5,.06,.4,.27,.76,.58,1.02,1.77,1.12,2.78,.93,4.06-.67l.24-.29c.92-1.15,2.18-1.12,3.08,.07,.28,.36,.55,.74,.83,1.1,.35,.45,.8,.85,1.38,.67,.86-.27,1.81-.46,2.41-1.23,.15-.2,.08-.61,.07-.9-.03-.58-.17-1.52-.25-2.1-.14-.71,.22-1.42,.87-1.73,.95,.12,1.91,.26,2.86,.34,.31,.03,.79,0,.91-.21,.55-.88,1.09-1.81,1-2.91-.08-.32-.26-.61-.52-.81-.49-.46-1.02-.88-1.57-1.25-.43-.21-.72-.63-.75-1.11Z"/><path class="cls-9" d="M176.9,77.53l-1.21,.49-1.57-2.16c-.17-.31-.51-.48-.86-.41h-1.92c-.31-.03-.63,.03-.92,.15-.21,.14-.38,.32-.52,.52l-1.32,1.68-1.47-.41c-.28-1.09,.2-2.29-.23-3.32-.22-.45-.53-.86-.9-1.2l-.77-.79c-.08-.1-.19-.19-.31-.25-.16-.05-.33-.06-.49-.03l-2.16,.24-.49-1.11,1.78-1.36c.15-.1,.27-.24,.36-.39,.05-.15,.08-.3,.07-.46v-2.54c.01-.18-.02-.36-.09-.52-.08-.12-.18-.22-.3-.3l-2.23-1.74,.48-.9c.03-.05,.06-.18,.11-.21,.06-.02,.13-.02,.19,0,.14,0,.29,.01,.43,.04,.58,.08,1.12,.3,1.7,.39,.25,.04,.51,.04,.77,0,.87-.14,1.51-.84,2.1-1.51,.09-.1,.17-.22,.24-.34,.06-.19,.09-.4,.07-.6l-.08-2.74,1.36-.63,1.65,2.22c.12,.19,.27,.35,.45,.49,.27,.17,.58,.26,.9,.26,1.66,.03,3.12-1.08,3.55-2.69l1.57,.66c-.39,1-.48,2.09-.26,3.15,.24,1.07,1.13,1.88,2.21,2.02,1.01,.06,2.01-.63,2.99-.38l.57,1.42-1.97,1.49c-.27,.19-.51,.41-.71,.67-.57,.82-.25,1.99,.38,2.76s1.52,1.29,2.25,1.97l-.5,1.36c-.68-.22-1.38-.37-2.1-.43-1.51-.19-2.89,.88-3.08,2.39-.02,.16-.03,.32-.02,.49,0,.88,.13,1.75,.37,2.59h-.05Z"/><path class="cls-9" d="M171.77,63.18c-2.34,.02-4.22,1.93-4.2,4.27h0c.05,2.33,1.96,4.17,4.28,4.12,2.32-.05,4.16-1.96,4.11-4.28-.05-2.28-1.91-4.11-4.19-4.11"/><path class="cls-9" d="M179.04,33.46l1.14,1.11-1.78,3.13s0,.09,.02,.14q.84,2.09,2.99,2.67c.12,.03,.24,.06,.36,.1q1.11,.31,1.1,1.73l-3.37,.98c-.22,.6-.52,1.29-.71,2.01-.07,.31-.03,.64,.11,.92,.45,.9,.95,1.76,1.48,2.72l-.89,.95-2.76-1.68c-.93,.4-1.76,.78-2.61,1.11-.36,.13-.62,.45-.66,.82-.18,.76-.39,1.53-.6,2.34l-1.54,.17c-.36-.77-.74-1.51-1.03-2.28-.1-.54-.51-.97-1.04-1.1-.28-.09-.54-.21-.79-.35-.97-.79-1.85-.43-2.71,.2-.27,.19-.56,.34-.91,.55l-.93-.84,1.36-2.47-1.4-3.28-3.09-.83c-.1-1.26-.39-1.2,.62-1.48,.76-.23,1.83-.47,2.62-.66,.36-.73,.77-1.47,1.07-2.23,.08-.3,.05-.63-.08-.91-.36-.84-.8-1.64-1.23-2.49l1.09-1.1c1.02,.57,1.99,1.13,3,1.68l2.4-.85,.71-3.19,1.67-.03c.22,.83,.46,1.62,.62,2.42,.11,.52,.47,.95,.96,1.16,1.33,.76,2.43,.57,3.59-.34,.39-.24,.72-.53,1.21-.79v-.02Z"/><path class="cls-9" d="M175.57,39.92c-.88-2.11-3.31-3.11-5.42-2.22-.05,.02-.09,.04-.14,.06-2.14,.94-3.11,3.43-2.17,5.56,.94,2.14,3.43,3.11,5.56,2.17,2.14-.94,3.11-3.43,2.17-5.56h0"/><path class="cls-9" d="M173.02,82.02l.64,2.54c.04,.24,.12,.47,.25,.67,.2,.23,.45,.42,.74,.53l.97,.48c.15,.09,.33,.14,.5,.16,.22-.02,.43-.1,.6-.24l2.2-1.35,1.19,1.16c-.3,.81-.99,1.43-1.28,2.24-.34,1.11,0,2.32,.87,3.09,.87,.74,2.02,1.09,3.16,.95l-.04,1.66-2.56,.22c-.25,0-.49,.07-.69,.2-.15,.14-.26,.32-.32,.52l-.7,1.67c-.11,.22-.16,.45-.16,.69,.04,.22,.13,.44,.27,.62l1.46,2.35-.97,1.06c-1.06-.45-1.9-1.46-3.05-1.57-1.04-.02-2,.54-2.5,1.46-.47,.9-.78,1.88-.89,2.89h-1.33l-.57-2.36c-.06-.52-.42-.96-.92-1.1-.88-.44-1.87-.9-2.83-.66-.81,.23-1.41,.88-2.2,1.18l-1.25-.99s.39-.68,.42-.75c.12-.27,.23-.54,.31-.82,.17-.56,.26-1.14,.27-1.73,.01-.58-.08-1.15-.27-1.7-.06-.17-.15-.32-.25-.46-.21-.28-.49-.52-.8-.68-.63-.29-1.31-.48-2-.54l-.05-1.25,1.97-.55c.23-.05,.44-.14,.64-.27,.24-.22,.42-.5,.51-.81l.7-1.66c.13-.26,.2-.55,.19-.84-.04-.22-.13-.42-.25-.6l-1.27-2.24,1.03-.76,2.27,1.37c.2,.15,.44,.25,.69,.29,.38-.02,.74-.12,1.08-.28,.5-.18,1.07-.21,1.44-.58,.17-.2,.29-.43,.36-.68l.87-2.45,1.55-.05Z"/><path class="cls-9" d="M175.8,94.25c.91-2.11-.07-4.56-2.18-5.46-.04-.02-.09-.04-.13-.05-2.16-.88-4.63,.15-5.51,2.31-.88,2.16,.15,4.63,2.31,5.51,2.16,.88,4.62-.15,5.51-2.31"/><path class="cls-9" d="M167.26,7.01l1.43-.64,1.69,2.29c.13,.2,.31,.37,.52,.49,.18,.07,.36,.11,.56,.11,.77,.12,1.56-.05,2.22-.46,.71-.56,.91-1.61,1.63-2.17l1.5,.69c-.23,.71-.37,1.44-.41,2.19-.15,1.44,.89,2.73,2.33,2.89,.19,.02,.38,.02,.57,0,.81-.05,1.61-.21,2.37-.48l.65,1.57-2.51,1.91c-.14,.09-.26,.21-.35,.36-.1,.26-.13,.55-.09,.82-.04,.45,0,.9,.1,1.33,.12,.24,.3,.46,.52,.62l2.27,1.89-.52,1.28c-1.17,0-2.38-.6-3.49-.21-.94,.4-1.58,1.29-1.67,2.3-.08,1,.02,2,.29,2.97l-1.2,.59-1.62-2.22c-.08-.12-.18-.23-.29-.31-.16-.07-.35-.1-.52-.08h-1.71c-.29,0-.59,.03-.87,.1-1.01,.33-1.35,1.57-2.13,2.29l-1.47-.44c-.26-1.09,.22-2.3-.22-3.32-.22-.43-.52-.83-.88-1.15l-.78-.81c-.18-.26-.52-.38-.82-.28l-2.1,.25-.51-1.31c.7-.25,1.33-.66,1.85-1.19,.29-.33,.49-.73,.58-1.16,.04-.21,.05-.43,.03-.65v-.29c-.02-.13-.02-.26,0-.39,.01-.17,.01-.35,0-.52,0-.36-.13-.71-.36-1-.14-.16-.3-.31-.47-.44l-2.04-1.57,.66-1.13c1.22-.06,2.5,.85,3.58,.28,.52-.34,.99-.75,1.4-1.22,.16-.12,.29-.26,.4-.42,.06-.15,.08-.31,.06-.47l-.17-2.9Z"/><path class="cls-9" d="M171.76,20.83c2.32,.02,4.21-1.84,4.24-4.15,.02-2.32-1.84-4.21-4.15-4.24-2.33-.01-4.23,1.86-4.25,4.2v.03c0,2.3,1.85,4.17,4.15,4.17h.01Z"/><path class="cls-4" d="M171.72,70.13c1.54,.03,2.82-1.2,2.85-2.74-.02-1.5-1.24-2.7-2.74-2.7-1.45-.08-2.68,1.04-2.75,2.48,0,.05,0,.09,0,.14-.06,1.5,1.12,2.77,2.62,2.82h.02Z"/><path class="cls-4" d="M174.29,40.58c-.61-1.41-2.24-2.06-3.66-1.47-1.36,.66-1.93,2.3-1.27,3.67,.62,1.28,2.12,1.87,3.45,1.36,1.36-.6,2.01-2.16,1.47-3.55h0Z"/><path class="cls-4" d="M174.44,93.78c.58-1.42-.09-3.04-1.5-3.64-1.43-.51-3,.23-3.51,1.65-.48,1.34,.14,2.83,1.44,3.42,1.38,.55,2.95-.07,3.57-1.43h0Z"/><path class="cls-4" d="M171.83,19.29c1.5-.03,2.71-1.23,2.74-2.73-.01-1.51-1.25-2.73-2.76-2.71-.03,0-.06,0-.09,0-1.45,0-2.62,1.17-2.63,2.62,0,.04,0,.09,0,.13,0,1.5,1.23,2.72,2.73,2.72v-.03Z"/><path class="cls-5" d="M136.06,5.81c0-.33-.03-.66-.07-.99-.23-1.46-.48-1.65-1.99-1.66-18.84-.05-37.67-.09-56.51-.13-.62,0-1.23,.08-1.83,.24-1.13,.31-1.32,.58-1.33,1.77V24.92c0,1.36,.24,1.65,1.57,1.67,3.9,.08,7.79,.11,11.69,.16h1.51v1.87c0,25.49,.02,50.97,.06,76.46,.03,.79,.12,1.57,.27,2.35,.08,.66,.65,1.14,1.32,1.11,.33,.03,.67,0,1.01,0l24.77-.18h1.13c1.33,.04,2.43-1,2.47-2.33,0-.06,0-.13,0-.19V26.78h12.08c.83,0,1.68,.03,2.51,0,.65,.06,1.23-.42,1.29-1.07,0-.06,0-.11,0-.17,.04-.33,0-.67,.03-1l.03-18.72Z"/><path class="cls-9" d="M126.01,22.59c-.7,.9-2,1.07-2.9,.37-.11-.09-.21-.18-.31-.29-.42-.52-1.11-.76-1.77-.59-1.66,.17-3.34,.17-5,0-.63-.12-1.28,.09-1.72,.56-.8,.86-1.93,1.57-2.37,2.56-.44,.99-.15,2.22-.15,3.36v19.24c.05,.76-.22,1.5-.74,2.05-.34,.43-.7,.83-1.09,1.22-1.02,.81-1.2,1.84-1.2,3.09,.03,14.46,.03,28.93,0,43.4,.03,.33,.02,.67-.04,1-.3,1.21,.46,1.94,1.16,2.7,.14,.13,.33,.21,.52,.22h3.71c.28-1.05,.47-45.36,.26-48.4v-20.41c.08-.66-.18-1.32-.69-1.75-.83-.7-.93-1.93-.23-2.76,.05-.05,.09-.11,.14-.15,.68-.77,1.83-.92,2.68-.34,1.09,.74,1.38,2.23,.42,3.11-.67,.61-.68,1.26-.68,2.01l-.03,68.18c.02,.42,.02,.84,0,1.26-.08,.79-.37,.96-1.15,.94-1.47-.05-2.93-.08-4.39-.06-.36,.04-.7,.19-.97,.43-1.15,.97-1.88,1-3.15,.13-.3-.2-.65-.32-1.01-.35-.62-.05-1.26,0-1.89,0-.62-.05-1.24,.15-1.71,.55-.86,.75-2.17,.66-2.92-.2-.09-.1-.16-.21-.23-.32-.78-1.53-1.96-2.71-3.06-3.95-.71-.76-1.09-1.78-1.05-2.82,.05-21.72,.09-43.44,.1-65.16,0-.88,.03-1.64-.87-2.28-.9-.65-.81-2.1-.04-2.93,.76-.86,2.08-.95,2.95-.19,.89,.64,1.09,1.89,.45,2.78-.06,.08-.12,.15-.18,.22-.53,.53-.78,1.28-.68,2.02-.02,21.64-.05,43.27-.09,64.91-.09,1.09,.31,2.16,1.1,2.92,.49,.5,.96,1.02,1.39,1.57,2.22-1.25,3.24-.56,4.2,1.26h2.65c.48-.47,.92-.96,1.33-1.49,.18-.32,.27-.68,.25-1.05,.04-4.02,.06-8.04,.07-12.06,0-11.28,.05-22.55,.03-33.84,0-1.14,.22-2.06,1.14-2.74,1.57-1.16,1.9-2.69,1.87-4.6-.11-6.46,0-12.91-.04-19.37,0-1.5,.3-2.72,1.72-3.67,.57-.35,1.04-.83,1.39-1.4,.28-.69,.98-1.11,1.72-1.05h6.29c.62,.07,1.24-.17,1.65-.63,.74-.83,2.02-.9,2.85-.16,.11,.1,.21,.21,.3,.33,.63,.78,.64,1.89,0,2.66l-.02-.02Z"/><path class="cls-9" d="M112.86,96.52c.21,.39,.56,.69,.79,1.05,.86,1.43-.62,3.81-2.62,2.77-.47-.24-.83-.65-1.01-1.14-.32-.94,.19-1.68,.49-2.48,.32-1.06,.45-2.17,.38-3.28V55.78c-1.15-.48-1.7-1.81-1.22-2.96,.48-1.15,1.81-1.7,2.96-1.22,.24,.1,.45,.24,.64,.41,.39,.37,.63,.86,.68,1.39,.01,.15,.01,.29,0,.44-.02,.34-.11,.68-.27,.98-.08,.15-.18,.29-.29,.41-.09,.12-.15,.25-.24,.36-.17,.15-.37,.27-.58,.34v38.89c-.05,.58,.05,1.16,.28,1.69"/><path class="cls-9" d="M102.63,14.64c-.73,.31-1.57,.09-2.06-.52-.52-.71-1.19-.77-1.97-.76-4.11,.05-8.21,.07-12.31,.1-.78,0-1.48,0-2.17,.52-.87,.67-2.11,.54-2.81-.31-.64-.77-.61-1.9,.08-2.62,.74-.81,1.99-.89,2.83-.18,.28,.27,.54,.56,.78,.87h13.66c.76,0,1.41,0,2-.69,.6-.65,1.59-.75,2.32-.25,.74,.37,1.17,1.15,1.08,1.97-.03,.86-.61,1.61-1.44,1.87"/><path class="cls-9" d="M105.47,14.21c.29,0,.57,.07,.82,.2,2.72,1.41,1.2,4.2-.71,4.32-1.28,.01-2.32-1.01-2.34-2.29,0-1.23,1-2.23,2.23-2.23Z"/><path class="cls-9" d="M85.36,14.9c.54,.1,1.06,.25,1.57,.45,2.62,.84,5.47,.36,8.23,.21,2.76-.15,5.82,.17,7.71,2.18,1.9,2,2.06,5.24,2.03,8.11l-.17,19.73c-.04,.63,.02,1.25,.18,1.86,.11,.4,.34,.77,.65,1.05,.18,.17,.17,.29,.34,.52,.25,.31,.38,.71,.35,1.12-.09,.92-.68,1.71-1.55,2.05-.08,.03-.16,.05-.25,.07-1.37,.26-2.8-1.15-2.47-2.51,.17-.67,.67-1.21,.93-1.85,.22-.68,.32-1.39,.28-2.1,0-7.44,.01-14.88,.04-22.31,.05-.92-.05-1.84-.3-2.72-.12-.32-.27-.63-.46-.92-1-1.48-2.9-2.32-4.72-2.53-2.18-.25-4.37,.15-6.57,.08-1.34-.04-2.75-.25-3.96,.34-.61,.29-1.14,.77-1.8,.91-1.31,.28-2.78-1.09-2.1-2.54,.34-.8,1.17-1.29,2.04-1.2Z"/><path class="cls-9" d="M106.01,95.27c.11,.96-.55,1.85-1.5,2.01-.68,.15-1.39-.05-1.9-.52l-.2-.27s-.18-.3-.23-.4c-.28-.63,0-1.31,.09-1.79,.07-.21,.19-.41,.34-.58,.65-.52,.52-.99,.52-1.92-.03-11.11-.03-22.22,0-33.33,.05-.7-.18-1.4-.64-1.93-.76-.88-.66-2.2,.21-2.96,.05-.04,.09-.08,.14-.11,.95-.72,2.3-.57,3.07,.34,.77,.93,.65,2.3-.28,3.08-.27,.21-.54,.41-.83,.59v35.92c.68,.39,1.12,1.09,1.2,1.87Z"/><path class="cls-9" d="M129.71,18.13l-.06,.06c-.82,.73-2.04,.76-2.9,.08-.21-.22-.45-.42-.7-.6-.33-.14-.69-.2-1.05-.17l-12.31-.04c-.54-.04-1.07,.04-1.57,.23-.72,.35-1.12,1.11-1.71,1.65-.44,.3-.83,.68-1.15,1.11-.18,.42-.26,.87-.22,1.32v22.26c-.02,.26,.03,.51,.14,.74,.15,.19,.32,.36,.52,.49,.86,.74,1.01,2.02,.35,2.94-.16,.2-.36,.37-.58,.5-.22,.13-.47,.22-.73,.26-.26,.04-.52,.04-.78,0-.26-.04-.5-.13-.72-.27-.22-.15-.4-.35-.52-.59-.14-.23-.24-.49-.3-.76-.06-.27-.06-.55-.03-.82,.04-.25,.12-.49,.24-.72,.24-.33,.46-.68,.66-1.05,.11-.35,.16-.73,.14-1.1V21.75c-.04-.63,.05-1.26,.26-1.85,.35-.78,1.09-1.28,1.7-1.87,.71-.68,1.31-1.52,2.2-1.94,.78-.3,1.61-.41,2.44-.34l10.89,.11c.92,.17,1.88-.08,2.59-.7,.52-.44,1.19-.66,1.87-.61,2.05,.15,2.4,2.47,1.33,3.57"/><path class="cls-9" d="M131.28,12.42c.02,.34-.08,.69-.28,.96-.4,.34-.93,.49-1.45,.41l-10.53-.14c-3.06-.04-6.17-.08-9.13,.73-.48,.17-.98,.25-1.49,.26-1.12-.07-1.98-1.03-1.92-2.16,.07-1.12,1.03-1.98,2.16-1.92,.34,.02,.66,.12,.95,.3,.4,.25,.72,.63,1.14,.86,.54,.23,1.13,.33,1.71,.28h17.12v-2.19h-48.91v10.74h11.94c1.37,0,2.77,0,4.04,.52,1.92,.79,3.23,2.67,3.83,4.66s.59,4.11,.59,6.18c-.07,19.14-.15,38.28-.23,57.43,0,1.33,.08,4.04,.08,4.04,.43,.32,.75,.77,.9,1.28,.09,.58,.05,1.89-.36,2.36-.08,.1-.19,.17-.31,.21-.09,.05-.18,.08-.27,.12-.11,.01-.23,.03-.34,.06-.15,.05-.3,.07-.46,.07-.37,.03-.74-.03-1.08-.17-.26-.09-.5-.24-.7-.43-.67-.87-.69-2.08-.06-2.98,.25-.3,.56-.55,.92-.72,0,0,.08-1.43,.08-2.04,.04-20.25,.09-40.5,.14-60.75,0-2.71-.22-5.88-2.48-7.39-1.4-.93-3.2-.92-4.88-.88l-8.71,.2c-.4,.01-.79,0-1.19-.04-3.19-.33-3.21-1.88-3.21-3.3V9.28c-.13-.56,.22-1.13,.78-1.26,.16-.04,.33-.04,.49,0h49.33c.56,0,1.19,.04,1.54,.47,.22,.36,.32,.78,.28,1.2l-.04,2.51c.04,.08,.04,.14,.01,.21h-.02Z"/><path class="cls-8" d="M268.21,90.12h-7.76c-.15,1.31-.31,2.59-.45,3.86-.4,3.83-.79,7.67-1.2,11.5-.15,1.43-.67,1.89-2.12,1.89h-25.17c-1.57,0-2.14-.62-1.95-2.2,.42-3.37,.91-6.72,1.36-10.08,.8-5.89,1.6-11.79,2.4-17.68,.8-5.89,1.59-11.75,2.38-17.56,.8-5.89,1.6-11.79,2.4-17.68,.8-5.89,1.6-11.79,2.4-17.68,.81-5.86,1.6-11.71,2.39-17.55,.1-.74,.27-1.48,.41-2.22,.06-.48,.47-.84,.96-.83,.58-.04,1.17-.08,1.76-.08h33.22c.76,0,1.51,0,2.27-.03,1.46-.03,1.51,0,1.76,1.49,.31,1.9,.59,3.81,.87,5.72,1.15,7.69,2.3,15.4,3.45,23.12,1.05,7.04,2.1,14.09,3.15,21.13,1.13,7.58,2.27,15.16,3.41,22.74,1.05,6.99,2.1,13.99,3.15,20.98,.3,1.99,.59,3.98,.9,5.97,.36,2.3,.06,2.7-2.22,2.72l-22.78,.19h-1.13c-.61,.04-1.16-.38-1.28-.98-.2-.9-.52-1.77-.63-2.67-.62-4.48-1.2-8.97-1.79-13.46-.06-.16-.1-.33-.15-.6Z"/><path class="cls-9" d="M271.57,8.5c-.04,.57-.08,.98-.09,1.39-.06,2.68-.12,5.36-.17,8.04,0,1.01,0,2.01-.08,3.02-.06,1.28-.43,1.57-1.67,1.28-.2-.05-.41-.09-.61-.11-1.3-.1-2.5,.72-2.86,1.98-.37,1.32,.33,2.69,1.6,3.18,1.86,.6,3.67,.26,4.52-1.76,.26-.61,.39-1.27,.39-1.94,.04-3.02,0-6.04,0-9.06,0-.36,.04-.71,.07-1.22l6.07,2.99v9.41l-1.44-.23c-1.42-.29-2.8,.63-3.09,2.05v.02c-.23,1.32,.72,2.8,2.14,3.34,1.32,.59,2.88,.09,3.61-1.15,.59-.98,.8-2.14,.59-3.26-.09-.58-.14-1.16-.15-1.74,.13-3.67,.28-7.29,.41-10.93v-1.38l-9.25-3.94Z"/><path class="cls-9" d="M235.14,102.81h19.88c.19-1.32,.07-2.66-.33-3.93-.63,.14-1.6,1.16-2,.06-.24-.68,.99-.92,1.67-1.36-.39-.74-.77-1.48-1.2-2.31-.32,.41-.67,.78-1.05,1.13-.18,.15-.56,.33-.77,.16-.2-.16-.1-.58,0-.78,.32-.49,.67-.97,1.05-1.43-.5-.58-1.07-1.11-1.68-1.57-.38,.57-.7,1.05-1.05,1.52-.19,.27-.41,.6-.81,.36-.39-.25-.26-.57-.07-.88l.89-1.47c-1.13-.78-2.47-1.2-3.85-1.21,.03,.57,.03,1.13,0,1.7-.03,.24-.17,.64-.35,.68-.41,.07-.62-.3-.63-.67v-1.75c-1.02-.1-2.06,.1-2.97,.57,.22,.45,.41,.91,.56,1.39,.07,.25,0,.52-.19,.7-.26,0-.51-.09-.69-.28-.28-.46-.53-.93-.74-1.43-.72,.45-1.42,.94-2.1,1.46,.36,.47,.61,.8,.85,1.14,.25,.34,.38,.65,0,.85-.27,.05-.55-.02-.76-.2-.33-.31-.64-.65-.91-1.02-.56,.8-1.05,1.51-1.57,2.27,.43,.26,.84,.54,1.23,.86,.21,.14,.27,.43,.12,.65-.14,.2-.41,.26-.62,.14-.43-.17-.86-.37-1.26-.6-.76,1.63-1,3.46-.67,5.23"/><path class="cls-9" d="M253.87,34.36h-.35c-.15,.38-.3,.76-.44,1.15l-3.62,10.82c-.08,.28-.17,.56-.29,.83-.32,.67-.68,.73-1.27,.28-.35-.3-.72-.57-1.11-.81-2.21-1.13-4.46,.25-4.48,2.72-.03,1.33,.59,2.58,1.66,3.37,1.77,1.38,3.75,1,4.89-.94,.22-.4,.39-.83,.52-1.26,1.05-3.21,2.1-6.43,3.15-9.66,.16-.5,.25-1.09,1.08-1.12,.21,.34,.4,.69,.56,1.05,.89,2.33,1.74,4.68,1.54,7.48,.35-.3,.52-.4,.63-.56,1.36-2.29,2.1-5.22,.05-7.87-.74-.96-1.3-2.05-1.64-3.21-.24-.75-.59-1.5-.89-2.26"/><path class="cls-9" d="M279.96,55.55c.06-.67,.13-1.21,.17-1.75,.32-4.12,.64-8.25,.95-12.38,.12-1.57,.23-3.15,.34-4.75,.03-.43,0-.82-.46-1.05-.44-.27-1.01-.23-1.41,.1-.24,.28-.39,.62-.44,.99-.76,4.66-1.51,9.32-2.24,13.98-.23,1.44-.43,2.87-.67,4.44l3.74,.41Z"/><path class="cls-9" d="M279.56,70.61c-1.15-2.47-.56-4.6,.36-6.73,.22-.59,.38-1.19,.48-1.81,.2-.81-.25-1.65-1.05-1.91-1.36-.68-2.77-.47-4.2-.27-.25,.04-.47,.34-.66,.55-.77,.91-1.11,2.1-.95,3.28,.28,2.99,2.79,5.99,6.02,6.91v-.02Z"/><path class="cls-9" d="M255.2,17.36c-2.07,.23-4.01,1.46-4.64,2.9,.63,1.05,1.13,2.23,1.94,3.36,.13-.3,.18-.41,.23-.52,.52-1.25,.52-1.24,1.83-1.02,.28,.05,.57,.05,.9,.08l1.3-2.01-1.55-2.78Z"/><path class="cls-9" d="M246.36,12.55l1.34,2.41,4.66-2.67c-.35-.63-.75-1.31-1.1-2.02-.15-.36-.55-.55-.93-.43-1.65,.3-3.09,1.29-3.98,2.71"/><path class="cls-9" d="M254.47,16.04l-1.46-2.62c-1.87,.57-3.54,1.21-4.58,2.88l1.36,2.48,4.68-2.74Z"/><path class="cls-9" d="M272.34,79.18c-.28,1.1,.52,2.18,.73,2.85,2.48,3.47,4.39,6.23,6.84,9.72,.18,.26,.4,.52,.67,.84l2.66-2.14c-2.54-3.15-5.05-6.12-7.42-9.2-.81-1.16-2.08-1.9-3.48-2.05v-.02Z"/><path class="cls-4" d="M285.58,100c0,.14,.03,.29,.09,.42,.11,.22,.26,.41,.45,.56,1.31,1.12,3.03,1.16,4.6,1.66,.23,.1,.48,.13,.73,.11,.26-.03,.46-.26,.46-.52-.05-.19-.17-.36-.33-.47-.96-.95-1.05-2.49-1.79-3.63-.32-.59-.93-.97-1.6-.99-.29,.04-.57,.15-.82,.31-.62,.39-1.14,.93-1.5,1.57-.18,.29-.28,.62-.3,.96v.02Z"/><path class="cls-9" d="M281.41,93.84l3.67,3.58,1.57-1.32c-.9-1.52-1.74-2.92-2.62-4.4l-2.62,2.14Z"/><path class="cls-9" d="M257.26,21.62l-.26-.33c-.41,2.03-1.57,2.29-3.15,1.54-.23,.65-.42,1.19-.65,1.8l2.62,1.8,1.91-1.21c-.17-1.25-.32-2.43-.47-3.61"/><path class="cls-4" d="M279.73,58.64c.05-.52,.09-1.08,.16-1.78-1.36,0-2.58-.49-3.94-.22-.08,.6-.16,1.15-.23,1.66l4.01,.34Z"/><path class="cls-9" d="M256.35,26.71c.73,.52,1.09,.74,1.73,1.15-.06-.65-.18-1.3-.25-2.05-.54,.37-.83,.58-1.48,.89"/><path class="cls-4" d="M264.61,49.16c-1.17,9.92-2.31,19.83-3.31,29.86h6.54c-1.03-10.02-2.04-19.94-3.23-29.86"/><path class="cls-9" d="M244.58,80c2.99,0,5.1-1.19,6.92-3.02,.81-.78,1.2-1.9,1.05-3.01-.15-1.69-1.64-2.94-3.33-2.79-.03,0-.07,0-.1,.01-.21,.02-.43,.03-.65,.03-.76,.07-1.44-.49-1.51-1.26,0-.07,0-.14,0-.21,.04-.36,.1-.73,.17-1.08,.12-.75,.2-1.51,.23-2.27,.03-1.15-.66-2.19-1.73-2.6-1.36-.67-2.98-.55-4.23,.32-2.34,1.58-3.88,3.69-4.31,6.55-.78,5.18,3.1,9.43,7.5,9.34Z"/><path class="cls-4" d="M245.99,66.67c.08,.98-.66,1.84-1.64,1.92h-.04c-1.1,0-1.98-.9-1.98-2-.07-.98,.68-1.83,1.66-1.9,.05,0,.09,0,.14,0,1.06,.03,1.9,.92,1.86,1.98v.02h0Z"/><path class="cls-9" d="M244.91,66.67c0-.48-.36-.89-.83-.94-.41,.07-.7,.44-.67,.85,0,.48,.37,.88,.85,.93,.4-.04,.7-.4,.66-.8v-.03h0Z"/><path class="cls-4" d="M237.81,69.44c0,.93,.75,1.69,1.68,1.69,.87,0,1.6-.66,1.68-1.53,.06-.92-.64-1.71-1.56-1.76h-.05c-.89-.08-1.67,.58-1.75,1.46,0,.05,0,.09,0,.14h0Z"/><path class="cls-4" d="M237.7,73.67c0,.86,.7,1.56,1.56,1.56h.02c.86,0,1.56-.7,1.56-1.56s-.7-1.56-1.56-1.56c-.86-.01-1.57,.68-1.58,1.54,0,.02,0,.04,0,.05v-.02Z"/><path class="cls-4" d="M240.19,77.13c0,.83,.66,1.51,1.48,1.54,.81,0,1.48-.65,1.5-1.47,.03-.82-.62-1.51-1.44-1.54h-.04c-.81-.02-1.49,.63-1.5,1.45,0,.02,0,.04,0,.05v-.03Z"/><path class="cls-4" d="M247.43,75.18c-.05,.83,.58,1.54,1.41,1.59,.83,.05,1.54-.58,1.59-1.41,.05-.83-.58-1.54-1.41-1.59-.83-.05-1.54,.58-1.59,1.41"/><path class="cls-4" d="M245.74,75.8c-.78-.06-1.47,.52-1.53,1.3,0,.04,0,.08,0,.12-.02,.81,.62,1.48,1.44,1.5,.81,.02,1.48-.62,1.5-1.44,.01-.79-.61-1.44-1.4-1.45h0v-.03Z"/><path class="cls-4" d="M238.26,100.26c4.49,.2,9.01,.09,13.7,.07,.02-.82-.23-1.62-.7-2.29-.47-.66-1.06-1.23-1.74-1.67-1.53-1.04-3.36-1.55-5.21-1.45-1.39,.12-2.71,.67-3.78,1.57-.6,.44-1.09,1.01-1.44,1.66-.34,.65-.62,1.33-.84,2.03,0,.08,0,.1,.02,.1v-.05Z"/></g><g class="cls-14"><path class="cls-6" d="M331.44,138.53c0,2.59,1.15,3.77,2.66,3.77,2.45,0,3.11-2.83,3.46-4.68,.1-.66,1.89-1.61,3.21-1.61,.42,0,.59,.21,.59,.52,0,.42-.35,.77-.59,1.82-.24,1.08-.56,3.42-.63,4.44-.49,9.43-2.93,16.32-9.89,16.32-3.42,0-6.29-2.27-6.29-5.42,0-3.67,3.04-5.42,5.63-5.42,.84,0,1.29,.14,1.29,.52,0,.21-.14,.38-.45,.56-.73,.42-1.5,1.22-1.5,2.2,0,1.26,.7,2.17,2.41,2.17,3,0,4.96-4.72,5.52-10.66-.84,1.36-2.45,3.46-5.59,3.46s-5.77-2.41-5.77-6.5c0-8.14,6.05-15.1,11.43-15.1,2.9,0,4.61,1.68,4.61,4.05,0,1.96-.91,3.42-2.27,3.42-.91,0-1.68-.59-1.68-1.54,0-1.61,1.4-1.75,1.4-2.8,0-.59-.38-.91-1.12-.91s-1.54,.24-2.73,1.26c-2.17,1.96-3.7,6.05-3.7,10.1"/><path class="cls-6" d="M341.92,145.38c0-2.24,1.15-4.51,1.15-5.77,0-.59-.21-.66-.21-1.12,0-.77,1.85-1.29,3.88-1.29,.77,0,1.19,.31,1.19,.91,0,1.4-1.12,3.6-1.12,5.91,0,.91,.52,1.43,1.15,1.43,.59,0,.87-.28,1.33-.73,.24-.24,.38-.35,.59-.35,.31,0,.49,.28,.49,.49,0,.38-.21,.66-.56,1.12-.73,.94-2.24,2.31-4.44,2.31s-3.46-1.29-3.46-2.9m4.65-14.78c1.26,0,1.96,.8,1.96,1.85,0,1.4-1.26,2.9-2.59,2.9-1.08,0-1.96-.84-1.96-1.89,0-1.4,1.26-2.87,2.59-2.87"/><path class="cls-6" d="M353.59,147.37c0,.59-.24,.73-.77,.73-1.05,0-2.41,.17-2.94,.17-.45,0-.73-.17-.73-.77,0-1.29,1.47-6.01,1.47-7.9,0-.59-.24-.66-.24-1.12,0-.77,1.89-1.29,3.91-1.29,.77,0,1.19,.31,1.19,.91,0,.56-.21,1.5-.21,1.5,0,0,.94-2.27,3.07-2.27,.98,0,1.61,.59,1.61,1.64,0,1.29-.84,2.76-2.27,2.76-.98,0-1.47-.7-1.47-1.33-.21,.07-.66,.52-1.19,1.5-.63,1.19-1.43,4.09-1.43,5.45"/><path class="cls-6" d="M359.78,144.99c0-3.18,2.69-7.65,2.69-13.07,0-1.15-.59-1.71-1.36-1.71-.31,0-.49-.14-.49-.42,0-.73,1.85-1.89,3.84-1.89,1.82,0,2.97,.98,2.97,2.73,0,2.94-2.8,10.03-2.8,13.38,0,.91,.49,1.43,1.12,1.43,.59,0,.87-.28,1.33-.73,.24-.24,.38-.35,.59-.35,.31,0,.49,.28,.49,.49,0,.38-.21,.66-.56,1.12-.73,.94-2.2,2.31-4.4,2.31-2.34,0-3.42-1.47-3.42-3.28"/><path class="cls-6" d="M369.88,144.82c0,.87,.31,1.47,.94,1.47,.49,0,.77-.31,.77-.94,0-2.06-3.46-2.38-3.46-5,0-2.2,2.2-3.32,4.82-3.32s3.7,.98,3.7,2.41c0,.94-.49,1.78-1.64,1.78-.66,0-1.26-.52-1.26-1.19,0-.52,.28-.73,.28-1.05,0-.35-.28-.49-.66-.49-.45,0-1.01,.49-1.01,1.15,0,2.06,3.84,2.34,3.84,4.89,0,2.27-1.82,3.81-4.89,3.81-2.62,0-4.54-1.15-4.54-3.04,0-1.12,.8-1.78,1.61-1.78,.94,0,1.5,.45,1.5,1.29"/><path class="cls-9" d="M350.63,160.05c0-.38,.12-.65,.55-.65h6.01c.29,0,.43,.14,.43,.38v7.45c0,.5-.17,.74-.62,.74h-1.44c-.53,0-.77-.12-.96-.53l-.12-.24c-1.17,.57-2.68,1.03-4.62,1.03-5.7,0-9.89-2.85-9.89-9,0-5.05,3.54-8.76,10.03-8.76,5.94,0,7.4,2.51,7.4,4.43,0,1.51-1.2,2.42-2.59,2.42-1.27,0-2.35-.91-2.35-2.35,0-.48,.14-.93,.36-1.29-.69-.19-1.53-.31-2.51-.31-4.19,0-5.89,2.75-5.89,5.99s1.75,5.72,5.67,5.72c1.48,0,2.63-.31,3.57-.77v-1.27c0-.55-.36-.77-.84-.77h-1.63c-.38,0-.57-.19-.57-.65v-1.58Z"/><path class="cls-9" d="M366.62,154.95c5.15,0,7.23,3.14,7.23,6.66s-2.08,6.68-7.23,6.68-7.21-3.16-7.21-6.68,2.04-6.66,7.21-6.66m-2.99,6.68c0,2.59,.98,4.02,2.99,4.02s3.02-1.44,3.02-4.02-.98-4.05-3.02-4.05-2.99,1.44-2.99,4.05"/><path class="cls-9" d="M388.96,165.29h.22c.53,0,.6,.12,.6,.43v1.7c0,.45-.12,.55-.6,.55h-7.35c-.45,0-.6-.1-.6-.55v-1.7c0-.31,.1-.43,.6-.43h.19c1.01,0,1.39-.24,1.39-1.34v-9.24c0-1.1-.38-1.34-1.39-1.34h-.22c-.48,0-.57-.12-.57-.43v-1.7c0-.45,.14-.55,.57-.55h7.37c.45,0,.6,.1,.6,.55v1.7c0,.31-.1,.43-.6,.43h-.24c-.98,0-1.34,.17-1.34,1.34v9.24c0,1.17,.36,1.34,1.36,1.34"/><path class="cls-9" d="M392.51,150.69h14.18c.89,0,1.05,.05,1.13,1.13l.19,3.59c.02,.41,.05,.57-.46,.57h-1.89c-.41,0-.55-.12-.62-.53l-.12-.77c-.17-1.1-.74-1.13-3.06-1.13h-.14v10.66c.05,.93,.41,1.08,1.34,1.08h.24c.5,0,.57,.12,.57,.43v1.7c0,.45-.12,.55-.57,.55h-7.38c-.43,0-.58-.1-.58-.55v-1.7c0-.31,.1-.43,.58-.43h.22c.98,0,1.36-.24,1.36-1.34v-10.39h-.17c-2.3,0-2.87,.02-3.04,1.13l-.12,.77c-.07,.41-.24,.53-.62,.53h-1.92c-.48,0-.45-.17-.43-.57l.19-3.59c.05-1.08,.22-1.13,1.13-1.13"/></g><g class="cls-13"><path class="cls-9" d="M303.37,144.34c-1.26-11.54-11.62-19.87-23.16-18.62-11.54,1.26-19.87,11.62-18.62,23.16,1.26,11.54,11.62,19.87,23.16,18.62,11.54-1.26,19.87-11.62,18.62-23.16m-28.27,18.03l4.96-8.91c1,.35,2.08,.49,3.2,.37,.61-.07,1.19-.21,1.74-.41l5.13,8.82c-1.76,.86-3.7,1.44-5.77,1.67-3.29,.36-6.47-.23-9.26-1.54m-9.91-13.87c-.07-.66-.1-1.31-.1-1.96l10.17,.76s0,.07,0,.1c.12,1.07,.46,2.05,.97,2.92l-7.76,6.61c-1.77-2.39-2.94-5.27-3.29-8.43m11.21-18.18l2.89,9.78c-1.13,.55-2.08,1.39-2.78,2.41l-9.26-4.27c1.98-3.6,5.2-6.45,9.16-7.93m2.35-.69h0c.09-.02,.18-.04,.27-.05,.22-.04,.43-.09,.65-.12,.05,0,.1-.01,.14-.02,.26-.04,.52-.08,.79-.11,.27-.03,.53-.05,.8-.07,.05,0,.1,0,.14,0,.22-.01,.44-.02,.67-.02,.09,0,.18,0,.27,0h0l.31,10.14,.1,3.1c-.28-.03-.57-.03-.86,0-.29,.03-.57,.09-.84,.18l-.57-3.04-1.88-9.97Zm18.2,7.33l-8.86,5.05c-.99-1.2-2.35-2.07-3.88-2.44l.71-10.17c4.95,.7,9.31,3.5,12.03,7.56m-31.67,7.14c.09-.61,.21-1.23,.37-1.84,.16-.61,.35-1.21,.57-1.79l9.6,3.29,2.93,1.01c-.25,.5-.4,1.06-.43,1.65l-3.05-.54-9.99-1.77Zm14.57,2.5c0-.19,.16-.35,.35-.35s.35,.16,.35,.35c0,.02,0,.04,0,.06,0,.05-.03,.09-.05,.13-.06,.09-.16,.15-.27,.15h-.01c-.16,0-.3-.11-.33-.26,0-.03-.01-.06-.01-.09m.81-1.88c.13-.09,.32-.08,.44,.04,.14,.13,.14,.35,0,.49-.07,.07-.16,.11-.26,.1-.08,0-.17-.03-.23-.1-.14-.13-.14-.35,0-.49,.02-.02,.03-.03,.05-.05m1.51,.99c.1-.04,.21-.06,.32-.06,.08,0,.17,.01,.24,.03,.09,.03,.18,.06,.27,.11h0c.06,.04,.11,.08,.16,.13,.16,.15,.26,.36,.28,.58,0,.03,.01,.07,.01,.1,0,.06,0,.13-.02,.19,0,.04-.02,.08-.03,.12-.04,.11-.09,.21-.16,.3-.11,.14-.26,.24-.43,.3-.09,.03-.19,.05-.29,.05,0,0-.02,0-.02,0s-.02,0-.02,0c-.07,0-.14-.01-.21-.03-.23-.06-.42-.19-.55-.38-.04-.05-.07-.11-.1-.17-.02-.06-.04-.12-.06-.18,0-.03,0-.07-.01-.1,0-.03-.01-.07-.01-.1,0-.23,.09-.45,.23-.61,.02-.03,.04-.05,.06-.07,.03-.03,.06-.05,.1-.08,.08-.06,.16-.1,.25-.14m-1.53,2.3c.13-.14,.35-.14,.49,0,.14,.13,.14,.35,0,.49-.13,.14-.35,.14-.49,0-.14-.13-.14-.35,0-.49m1.49,.9c0-.1,.04-.19,.11-.25,.06-.06,.14-.09,.24-.09,.1,0,.2,.05,.26,.12,.05,.06,.09,.14,.09,.23,0,.16-.1,.28-.24,.33-.03,.01-.07,.02-.1,.02-.02,0-.04,0-.06,0-.16-.03-.29-.17-.29-.34m2.25-.45c-.13,.14-.35,.14-.49,0-.14-.13-.14-.35,0-.49,.13-.14,.35-.14,.49,0s.14,.35,0,.49m.75-1.83c0,.16-.11,.3-.26,.34-.03,0-.05,.01-.08,.01-.19,0-.34-.15-.35-.34h0v-.03c0-.18,.16-.33,.35-.33,.13,0,.24,.07,.3,.18,.03,.05,.04,.1,.04,.16m-.78-1.41c-.07,.07-.17,.11-.27,.1-.08,0-.16-.03-.22-.1-.01-.01-.03-.03-.04-.04-.1-.13-.09-.32,.03-.45h0c.13-.14,.35-.14,.49,0,.13,.13,.14,.33,.03,.47,0,0-.01,.01-.02,.02m-1.84-.55c-.19,0-.35-.16-.35-.35s.16-.35,.35-.35,.35,.16,.35,.35-.16,.35-.35,.35m-3.27,4.56c.36,.45,.81,.82,1.32,1.09l-1.77,2.54-5.8,8.32c-.52-.34-1.03-.71-1.52-1.11-.49-.4-.95-.83-1.39-1.27l7.02-7.32,2.14-2.24Zm6.55-.06l2.19,2.2,7.1,7.13c-.43,.45-.88,.88-1.36,1.29-.48,.41-.98,.79-1.5,1.14l-5.91-8.14-1.82-2.51c.51-.28,.96-.66,1.31-1.11m3.83-3.92l-2.99,.8c-.08-.59-.28-1.13-.57-1.61l2.84-1.26,9.28-4.11c.27,.56,.51,1.14,.72,1.74,.21,.6,.39,1.2,.53,1.8l-9.8,2.63Zm-.81,4.95c.6-1.05,.94-2.26,.95-3.53l10.06-1.64c.39,4.29-.81,8.36-3.12,11.63l-7.88-6.47Z"/><path class="cls-9" d="M97.66,168.32v-33.82h8.78v4.29h.19c.32-.83,.79-1.6,1.41-2.3,.62-.7,1.39-1.26,2.31-1.68,.92-.42,1.99-.63,3.2-.63,1.62,0,3.17,.43,4.64,1.3,1.47,.86,2.66,2.23,3.59,4.08,.92,1.86,1.39,4.27,1.39,7.24s-.44,5.19-1.32,7.06c-.88,1.87-2.06,3.26-3.52,4.18-1.47,.92-3.08,1.38-4.83,1.38-1.15,0-2.18-.19-3.08-.57-.9-.38-1.67-.9-2.31-1.55-.64-.66-1.12-1.4-1.47-2.23h-.13v13.26h-8.84Zm8.65-21.52c0,1.2,.16,2.23,.47,3.1,.31,.87,.76,1.54,1.35,2.02,.58,.47,1.28,.71,2.09,.71s1.5-.23,2.07-.7c.57-.46,1.01-1.13,1.31-2,.3-.87,.46-1.91,.46-3.13s-.15-2.26-.46-3.13c-.3-.87-.74-1.54-1.31-2-.57-.46-1.26-.7-2.07-.7s-1.51,.23-2.09,.7c-.58,.46-1.03,1.13-1.35,2-.32,.87-.47,1.91-.47,3.13"/><path class="cls-9" d="M138.66,159.55c-2.63,0-4.89-.5-6.78-1.51-1.9-1.01-3.35-2.46-4.37-4.36-1.02-1.9-1.53-4.17-1.53-6.81s.51-4.76,1.54-6.66c1.02-1.9,2.47-3.38,4.34-4.44,1.87-1.06,4.07-1.59,6.61-1.59,1.86,0,3.54,.29,5.04,.86,1.51,.58,2.79,1.41,3.86,2.51,1.07,1.09,1.89,2.42,2.47,3.98,.58,1.56,.86,3.31,.86,5.27v2.05h-21.97v-4.87h13.84c-.01-.7-.19-1.33-.54-1.87-.35-.54-.81-.96-1.39-1.26-.58-.3-1.24-.46-1.98-.46s-1.37,.15-1.97,.46c-.6,.3-1.08,.72-1.43,1.26-.36,.53-.55,1.16-.57,1.87v5.25c0,.79,.17,1.49,.5,2.11,.33,.62,.81,1.11,1.43,1.46,.62,.35,1.37,.53,2.24,.53,.61,0,1.17-.09,1.67-.26,.51-.17,.94-.42,1.31-.74,.36-.33,.63-.72,.8-1.18h8.07c-.28,1.71-.93,3.19-1.97,4.44-1.04,1.25-2.4,2.23-4.11,2.91-1.7,.69-3.69,1.03-5.97,1.03"/><path class="cls-9" d="M163.25,159.1v-24.6h8.58v4.68h.26c.45-1.73,1.16-2.99,2.14-3.8,.98-.8,2.12-1.2,3.44-1.2,.38,0,.77,.03,1.15,.09,.38,.06,.74,.14,1.1,.25v7.54c-.44-.15-.98-.26-1.62-.34-.64-.07-1.19-.11-1.65-.11-.86,0-1.64,.19-2.33,.58-.69,.39-1.23,.93-1.63,1.63-.4,.7-.59,1.52-.59,2.46v12.81h-8.84Z"/><path class="cls-9" d="M193.23,159.55c-2.67,0-4.95-.53-6.85-1.59-1.9-1.06-3.36-2.55-4.37-4.45-1.01-1.91-1.52-4.12-1.52-6.64s.51-4.73,1.52-6.64c1.01-1.91,2.47-3.39,4.37-4.45,1.9-1.06,4.18-1.59,6.85-1.59s4.95,.53,6.85,1.59c1.9,1.06,3.36,2.55,4.37,4.45,1.01,1.91,1.52,4.12,1.52,6.64s-.51,4.73-1.52,6.64c-1.01,1.91-2.47,3.39-4.37,4.45-1.9,1.06-4.19,1.59-6.85,1.59m.06-6.53c.75,0,1.39-.25,1.94-.75,.54-.5,.97-1.22,1.27-2.15,.3-.93,.45-2.03,.45-3.31s-.15-2.4-.45-3.32c-.3-.92-.72-1.64-1.27-2.14-.54-.5-1.19-.75-1.94-.75-.79,0-1.47,.25-2.03,.75-.57,.5-1,1.21-1.3,2.14-.3,.92-.45,2.03-.45,3.32s.15,2.39,.45,3.31c.3,.93,.73,1.64,1.3,2.15,.57,.5,1.24,.75,2.03,.75"/><path class="cls-9" d="M224.24,140.91h-16.21v-6.41h16.21v6.41Zm-13.07-12.3h8.84v22.58c0,.34,.06,.63,.18,.86,.12,.23,.3,.4,.54,.51,.25,.11,.56,.17,.94,.17,.27,0,.58-.03,.94-.1,.36-.06,.62-.12,.79-.16l1.28,6.21c-.4,.12-.96,.26-1.69,.43-.73,.17-1.6,.28-2.6,.34-2.03,.11-3.73-.1-5.11-.63-1.38-.53-2.41-1.36-3.11-2.51-.69-1.14-1.03-2.57-1.01-4.29v-23.41Zm.38,40.74l2.11-7.66h7.94l-4.04,7.66h-6.02Z"/><path class="cls-9" d="M227.82,134.5h8.84v24.6h-8.84v-24.6Zm4.44-2.56c-1.21,0-2.24-.39-3.09-1.19-.85-.79-1.28-1.74-1.28-2.85s.43-2.06,1.28-2.85c.85-.79,1.88-1.19,3.08-1.19s2.23,.4,3.08,1.19c.85,.79,1.27,1.74,1.27,2.85s-.42,2.06-1.27,2.85c-.85,.79-1.87,1.19-3.07,1.19"/><path class="cls-11" d="M364.94,43.58c.16-1.05,.33-2.05,.47-3.07,1.26-9.13,2.5-18.26,3.74-27.4,.37-2.74,.68-5.49,1.01-8.23-.02-.62,.46-1.13,1.08-1.16,.33-.03,.67-.04,1.01-.03,10.61-.04,21.22-.09,31.82-.13,.94,0,1.75-.04,2.84-.03,.51,0,.95,.35,1.05,.84,.07,.37,.1,.75,.09,1.12-.03,33.63-.06,67.26-.09,100.89-.05,.7-.14,1.4-.28,2.1-.07,.61-.59,1.07-1.2,1.08-.25,.03-.5,.04-.75,.03-7.22,0-14.43,0-21.64,.07-.93,0-1.66-.22-2.13-1.01-.21-.35-.35-.74-.42-1.14-.04-.42-.04-.84,0-1.25,0-14.09,.01-28.18,.04-42.27,.03-.64-.04-1.27-.21-1.89-.18,1.24-.38,2.49-.52,3.73-1.46,10.75-2.91,21.51-4.37,32.26-.42,3.11-.89,6.21-1.34,9.32-.28,1.95-.28,1.96-2.19,1.96l-14.72,.06h-.88c-.62,.05-1.16-.4-1.23-1.01-.31-1.68-.69-3.35-.95-5.04-1-6.55-1.96-13.11-2.93-19.65-.97-6.53-1.92-13.02-2.89-19.52-.22-1.65-.54-3.29-.97-4.9v46.41c0,.92,0,1.84-.06,2.75,.04,.6-.42,1.13-1.02,1.17h-.03c-.16,.03-.33,.04-.5,.04h-22.52c-1.13,0-1.67-.52-1.78-1.68-.02-.42-.02-.84,0-1.25V6.86c.02-.7,.14-1.4,.34-2.07,.15-.55,.67-.92,1.24-.86h1.01c10.32,0,20.63,.01,30.94,.04,.74,.07,1.47,.19,2.19,.37,.92,.15,1.18,.76,1.3,1.57,.72,5.28,1.48,10.54,2.22,15.81,.8,5.64,1.59,11.29,2.38,16.93,.23,1.64,.47,3.27,.71,4.91h.14Z"/><path class="cls-10" d="M345.03,37.79c-.17,1.92-.72,3.79-1.05,5.7-.33,1.9-.36,3.93,.42,5.7,.34,.89,1.02,1.61,1.89,1.99,.72,.23,1.5,.18,2.19-.13,1.62-.68,2.66-2.33,3.1-4.03,.17-.66,.23-1.46-.28-1.91-.44-.36-1.08-.32-1.47,.09-.19,.26-.32,.56-.39,.87-.07,.32-.22,.61-.45,.84-.25,.23-.63,.23-.87,0-.12-.2-.17-.43-.14-.66,.11-2.8,.22-5.62,.91-8.34,1-.21,2.18,.29,3-.33,.62-.47,.7-1.36,.63-2.13-.07-.77-.35-1.77-1.12-2.1-.41-.13-.85-.16-1.28-.08l-11.42,1.2c-.78,.08-1.76,.22-2.26,.9-.61,.98-1.08,2.04-1.41,3.15-.21,.57-.37,1.31,.1,1.68,.39,.25,.9,.2,1.23-.13,.32-.32,.56-.71,.7-1.13l.28-.67c.03-.09,.09-.17,.16-.24,.11-.07,.23-.09,.36-.07h1.52c.03,2.55-.16,5.32-1.8,7.28-.49,.49-.94,1.01-1.35,1.57-.42,.69-.53,1.53-.3,2.31,.23,.77,.82,1.39,1.57,1.66,1.15,.38,2.45-.21,3.23-1.14,.72-.98,1.19-2.13,1.37-3.33,.54-2.86,.83-5.76,.87-8.67,.68-.06,1.37,0,2.03,.17Z"/><path class="cls-9" d="M340.78,7.69h-13.19c-.81,.06-1.01,.29-.99,1.09,0,.59,.05,1.17,.05,1.76v24.25c.07,.55,.43,1.03,.95,1.23,.52,.28,.84-.17,1.18-.47,.19-.17,.36-.36,.52-.52l24.42-24.44c.26-.27,.52-.52,.79-.81,.17-.18,.3-.4,.37-.63,.24-.94-.19-1.44-1.29-1.45-4.26-.01-8.53,0-12.81,0"/><path class="cls-10" d="M402.36,11.77c-.08-3.52-2.97-4.81-5.17-4.36-1.71,.42-3.26,1.33-4.46,2.62-4.37,4.27-8.66,8.63-13,12.93-.74,.68-1.26,1.57-1.49,2.55-.24,1.1-.59,2.18-.88,3.27-.36,1.33-.77,2.65-1.05,4-.31,1.47,.21,1.89,1.57,1.38l.93-.36c2.19-.83,4.37-1.65,6.55-2.51,.38-.16,.73-.4,1.02-.7,4.55-4.57,9.11-9.13,13.64-13.73,1.38-1.36,2.34-3.03,2.34-5.09Z"/><path class="cls-9" d="M384.74,92.4c.02,4.32,.04,8.64,.07,12.96-.18,.69,.23,1.4,.92,1.59,.23,.06,.48,.06,.71-.01l17.27-.04c.52,0,1.13-.07,1.33-.52,.2-.45-.09-.87-.35-1.23l-15.67-22.27-2.55-3.62c-.29-.41-.66-.88-1.23-.71-.41,.12-.52,.39-.52,.78-.08,1.34,0,2.72,0,4.06,0,2.76,.01,5.52,.04,8.28v.75Z"/><path class="cls-10" d="M396.24,45.89h0v-7.29c0-1.15-.19-1.31-1.32-1.31-4.28,.02-8.55,.05-12.82,.08-1.57,0-1.86,.26-1.87,1.82-.03,4.57-.04,9.14-.03,13.7,0,1.39,.34,1.71,1.72,1.7,4.28-.02,8.55-.06,12.82-.1,1.33,0,1.48-.19,1.49-1.57,.01-2.36,0-4.7,0-7.05v.02Z"/><path class="cls-10" d="M343.71,96.21h-.04v-6.79c0-1.11-.35-1.43-1.44-1.44h-13.45c-.99,0-1.32,.35-1.42,1.36-.02,.29-.02,.59,0,.88v13.19c0,.57,.42,1.06,.99,1.12,.29,.05,.58,.07,.88,.05l11.54-.09c.63,0,1.26-.04,1.88-.07,.52,.02,.96-.39,.98-.92v-.02c.04-.33,.05-.67,.04-1.01l.04-6.28Z"/><path class="cls-10" d="M327.36,72.38h0v6.66c0,1.46,.3,1.74,1.79,1.74h12.06c.25,0,.5,0,.75-.03,.53-.03,.95-.45,.99-.98,.03-.33,.04-.67,.03-1v-13.19c-.05-.84-.29-1.1-1.14-1.17-.34-.03-.67,0-1.01,0h-12.06c-1.28,0-1.42,.1-1.43,1.43,0,2.19,.02,4.37,.02,6.55h0Z"/><path class="cls-10" d="M367.46,56.65s0,.02,0,.03c0,.05-.02,.09-.06,.13-.34,.35-.75,.63-1.19,.83-.94,.51-1.86,1.06-2.76,1.63-.31,.16-.58,.4-.77,.69-.27,.51-.08,1.15,.43,1.42,.11,.06,.22,.1,.34,.11,.44,0,.88-.12,1.25-.37,1.66-.91,3.33-1.81,4.92-2.84,.61-.21,.94-.87,.74-1.48-.09-.26-.26-.47-.48-.62-.75-.85-1.55-1.66-2.35-2.47l-1.77-1.79c-.31-.37-.71-.66-1.16-.82-.99-.25-1.57,.85-1.13,1.66,.19,.32,.44,.61,.73,.84l3.2,2.96s.05,.06,.07,.1h0Z"/><path class="cls-10" d="M366.25,64.69c1.05-.03,2.13-.08,3.19-.13,.32,0,.64-.06,.93-.2,.49-.35,.61-1.03,.26-1.52l-.02-.02c-.16-.2-.38-.34-.62-.41-.34-.1-.7-.13-1.05-.1l-5.56,.12c-.27,0-.55,.02-.81,.1-.56,.21-.84,.83-.63,1.38,.07,.18,.18,.34,.33,.46,.38,.25,.82,.36,1.27,.34,.9,.03,1.8,.03,2.7,0h0Z"/><path class="cls-9" d="M373.8,84.77c0-4.56-3.7-8.26-8.26-8.26-4.56,0-8.26,3.7-8.26,8.26,0,4.55,3.68,8.24,8.22,8.26,4.57,0,8.28-3.69,8.29-8.26"/><path class="cls-4" d="M365.81,77.68c-3.94-.13-7.23,2.96-7.36,6.9,0,.09,0,.17,0,.26,.06,3.71,3.28,7.09,6.69,6.89v-5.88c0-1.19,.1-1.28,1.32-1.28h6.07c.32-3.41-2.98-6.72-6.71-6.89Z"/><path class="cls-4" d="M367.3,91.56c2.48-.35,4.89-3.08,5.03-5.06-.85,.59-4.76,4.53-5.03,5.06h0Z"/><path class="cls-4" d="M369.97,86.11c-1.12,1.07-2.24,2.14-3.39,3.18-.33,.28-.43,.75-.24,1.13l4.69-4.57c-.33-.17-.68-.11-1.06,.25Z"/><path class="cls-4" d="M368.34,85.75c-.67,0-1.31-.12-1.96,.1v1.92c.79-.53,1.46-1.21,1.96-2.02Z"/><path class="cls-4" d="M339.65,22.18l-2.19,2.37c-.24-.33-.55-.6-.92-.79-.38-.16-.82-.03-1.05,.31-.29,.6,.43,1.15,.75,1.74l-2.76,2.74c-.49-.26-.77-.78-1.18-1.15-.41-.37-1.12-.57-1.47-.13-.23,.43-.13,.96,.24,1.27,.34,.34,.78,.52,1.09,.9l-3.85,3.9V10.66c-.05-.33-.05-.66,0-.99,.12-.3,.31-.23,.65-.24,2.76-.09,5.51-.16,8.27-.19,2.54-.03,5.07-.03,7.61,0l3.8,.05,1.9,.04c.23,0,1.8,.19,1.9,.04-1.04,1.34-2.2,2.6-3.45,3.76l-1.86-1.74c-.21-.26-.52-.42-.85-.45-.46,.1-.75,.55-.65,1.01,0,.03,.02,.07,.03,.1,.19,.45,.53,.82,.96,1.05,.43,.24,.8,.57,1.09,.96l-2.77,2.76c-.26-.34-.61-.6-1-.77-.41-.15-.87,.05-1.05,.45-.18,.62,.62,1.05,.92,1.64l-2.88,2.84c-.23-.27-.52-.5-.84-.65-.37-.22-.85-.1-1.07,.27-.15,.26-.15,.58,.02,.84,.16,.29,.36,.54,.61,.75"/><path class="cls-10" d="M331.68,18.45v3.67c-.02,.38,.03,.77,.16,1.13,.14,.37,.46,.63,.85,.68,.42-.04,.79-.26,1.05-.59l7.54-7.53c.44-.37,.68-.92,.67-1.49,.2-.48-.02-1.03-.5-1.24-.2-.08-.42-.1-.62-.04h-7.77c-.24-.01-.47,.01-.7,.07-.92,.3-.66,1.85-.66,2.59v2.74Z"/><path class="cls-4" d="M385.43,29.3l9.22-9.3-4.72-4.78c-3.04,3.06-6.16,6.21-9.31,9.37,.42,.79,3.82,4.14,4.81,4.71Z"/><polygon class="cls-4" points="398.39 16.19 393.72 11.56 391.46 13.79 395.97 18.33 398.39 16.19"/><path class="cls-4" d="M399.58,14.79c.85-.94,1.25-2.2,1.1-3.46-.06-1.36-1.21-2.41-2.56-2.35h-.02c-1.18,0-2.3,.5-3.07,1.39,.84,1.19,3.74,4.01,4.56,4.44v-.02Z"/><path class="cls-4" d="M380.24,29.72q1.34,1.33,3.07,.52c.06-.03,.09-.13,0,0l-3.59-3.78c-.19,.69-.37,1.36-.59,2.18,.4,.39,.78,.72,1.12,1.07"/><path class="cls-4" d="M402.65,105.24h-16.09c-.23-4.6-.27-9.22-.27-13.83v-2.96c0-2,.08-4,.16-5.99,5.59,7.45,11,15.04,16.22,22.77h-.02Z"/><path class="cls-10" d="M392.39,102.68h0c.88,0,1.76,.05,2.62,0,.86-.05,1.21-.67,.84-1.49-.12-.27-.28-.52-.43-.77l-3.83-6.63c-.28-.56-.6-1.1-.97-1.6-.25-.3-.62-.49-1.01-.52-.47,0-.62,.48-.62,.94,0,3.02,0,6.03,.04,9.04,0,.8,.25,1.01,1.09,1.05,.79,.02,1.54-.02,2.3-.02h-.02Z"/><rect class="cls-4" x="381.92" y="39.04" width="12.64" height="13.77"/><path class="cls-10" d="M388.34,44.84h0c-1.05,0-2.1,.05-3.15,0-1.05-.05-1.57,.42-1.5,.92,.07,.5,.49,.78,1.5,.78,2.05,0,4.1-.03,6.14-.06,.29,.02,.59-.02,.86-.12,.24-.13,.42-.36,.48-.62-.01-.28-.15-.53-.38-.69-.3-.14-.63-.21-.96-.19-.97-.05-1.97-.03-2.97-.03h-.02Z"/><polygon class="cls-7" points="402.97 62.9 402.97 76.28 389.79 76.28 389.79 62.89 402.97 62.9"/><path class="cls-10" d="M404.67,69.52h0v-6.92c0-1.36-.1-1.44-1.41-1.39h-.76c-4.24,0-8.47,0-12.71,.05-1.48,0-1.77,.31-1.77,1.77,0,4.32,.02,8.64,.05,12.95,0,.34,.02,.67,.07,1,.05,.62,.57,1.09,1.19,1.08h.76l12.06-.03c.33,0,.67,0,1-.04,1.3-.17,1.48-.36,1.48-1.67,.03-2.29,.03-4.55,.03-6.8h0Z"/><path class="cls-4" d="M398.61,73.02c.06-1.17-.83-2.18-2.01-2.24h-.03c-1.22,.08-2.17,1.11-2.15,2.34,.01,1.14,.87,2.08,2,2.2,1.24-.04,2.22-1.06,2.21-2.3h-.02Z"/><path class="cls-4" d="M396.44,70.04h3.15c1.05,0,1.57-.3,1.54-.88-.04-.57-.5-.8-1.57-.79l-6.25,.09c-.25-.03-.5,0-.73,.07-.26,.16-.58,.45-.59,.68,.06,.31,.25,.58,.52,.74,.27,.1,.57,.13,.85,.09h3.08Z"/><path class="cls-4" d="M396.6,67.6c1.16,.02,2.11-.9,2.13-2.06v-.04c-.03-1.14-.96-2.05-2.1-2.06-1.14-.02-2.07,.88-2.1,2.01,0,.04,0,.08,0,.12,0,1.12,.92,2.02,2.04,2.02h.02Z"/><path class="cls-4" d="M329.05,102.79v-13.03c1.05-.06,12.92-.37,12.92,0v13.03h-12.92Z"/><path class="cls-10" d="M334.36,95.74c-.35,.38-.62,.69-.91,.98-.76,.78-1.54,1.54-2.3,2.32-.38,.39-.63,.81-.19,1.32,.34,.37,.79,.33,1.31-.16,.52-.48,.89-.89,1.33-1.33,.64-.63,1.29-1.26,1.96-1.92,.4,.38,.71,.66,1.01,.95,.72,.7,1.42,1.42,2.15,2.1,.63,.61,1.05,.69,1.4,.34,.35-.35,.3-.87-.32-1.51-.62-.64-1.13-1.12-1.69-1.68l-1.53-1.53c1.05-1,2.03-1.87,2.96-2.77,.34-.25,.41-.74,.16-1.08-.04-.05-.08-.1-.13-.14-.33-.29-.83-.26-1.12,.07h0c-.31,.29-.6,.6-.89,.89l-1.99,2-2.39-2.34c-.33-.32-.65-.66-1-.94-.28-.3-.74-.31-1.04-.04h-.01c-.33,.3-.36,.8-.08,1.13v.02c.22,.26,.45,.5,.7,.72,.87,.88,1.72,1.73,2.62,2.61"/><path class="cls-4" d="M329.19,66.08h12.15v13.02h-12.11c-.27-.9-.31-11.54-.04-13.01h0Z"/><path class="cls-10" d="M334.41,71.74h-1.91c-.41-.03-.83,0-1.23,.11-.29,.14-.51,.39-.6,.7-.09,.41,.21,.7,.63,.79,.33,.06,.66,.09,1,.09h2c.04,.41,.07,.65,.08,.9,0,.62,0,1.26,.05,1.88,.04,.44,.26,.81,.78,.82,.52,0,.75-.35,.81-.8,.04-.37,.05-.75,.04-1.13,0-.52,0-1.05,.04-1.57,.33-.03,.49-.06,.66-.06,.71,0,1.43,0,2.13-.04,.45,0,.81-.35,.82-.79h0c0-.52-.35-.74-.79-.82-.29-.04-.58-.06-.88-.05h-1.91c-.03-.43-.05-.72-.05-1v-1.38c-.03-.84-.26-1.2-.77-1.22-.51-.03-.82,.34-.87,1.26v2.32Z"/><polygon class="cls-10" points="339.61 14.75 333.31 14.75 333.31 20.98 339.61 14.75"/><polygon class="cls-4" points="390.7 95.85 390.7 100.98 393.96 100.98 390.92 95.74 390.7 95.85"/><path class="cls-10" d="M30.98,98.96s.07-.05,.11-.06c.38-.04,.75-.15,1.08-.33,.38-.32,.42-.88,.1-1.26-.03-.04-.07-.07-.1-.1-.39-.29-.92-.2-1.4-.18-.28,0-.56,.01-.84,.05-.95,.19-.89,1.22-.88,1.99l.04,6.79c-.05,.43,.07,.86,.33,1.21,.29,.24,.67,.36,1.05,.34,.32,.02,.65,.02,.97,0,.18,0,.35-.05,.52-.11,.26-.13,.45-.38,.49-.67,.03-.29-.08-.58-.32-.76-.31-.18-.65-.3-1-.34-.06,0-.11-.04-.14-.08-.02-.04-.03-.08-.02-.12v-6.24s0-.1,.02-.14"/><path class="cls-10" d="M38.99,105.54c-.34,.08-.6,.13-.84,.2-.38,.08-.64,.43-.63,.81-.03,.42,.27,.79,.69,.84,.59,.1,1.2,.15,1.8,.14,.66-.04,.92-.42,.91-1.08-.02-1.81-.04-3.61-.06-5.42v-2.71c0-.47-.15-.95-.63-1.03-.72-.09-1.45-.1-2.18-.03-.39,.05-.67,.41-.62,.8,0,.41,.29,.77,.7,.84,.28,.07,.57,.1,.87,.15l-.02,6.49Z"/><path class="cls-10" d="M36.4,102.48c.21-.23,.36-.42,.52-.58s.39-.37,.55-.58c.42-.52,.45-.97,.08-1.35-.37-.38-.89-.35-1.42,.13-.32,.29-.61,.6-.98,.96-.32-.35-.59-.65-.84-.93-.2-.23-.41-.44-.64-.63-.31-.35-.84-.38-1.19-.07-.35,.31-.38,.84-.07,1.19,.16,.25,.35,.49,.55,.71,.3,.35,.6,.7,.94,1.09-.48,.49-.9,.91-1.31,1.35-.18,.2-.34,.41-.46,.65-.16,.35-.04,.77,.28,.98,.31,.29,.8,.28,1.11-.03,.55-.49,1.06-1.01,1.62-1.56,.28,.31,.52,.59,.78,.84,.25,.27,.52,.52,.8,.75,.28,.21,.68,.19,.93-.06,.33-.21,.45-.63,.28-.98-.14-.27-.31-.51-.5-.74-.35-.37-.68-.73-1.03-1.12h0Z"/></g></g></g></g></svg>